<svg width="24" height="24" viewBox="0 0 24 24" fill="none" xmlns="http://www.w3.org/2000/svg">
<path d="M21.8438 12C21.8438 6.56344 17.4366 2.15625 12 2.15625C6.56344 2.15625 2.15625 6.56344 2.15625 12C2.15625 17.4366 6.56344 21.8438 12 21.8438C17.4366 21.8438 21.8438 17.4366 21.8438 12Z" stroke="#DBB25A" stroke-width="1.5" stroke-linejoin="round"/>
<path d="M12 21.8438C9.28172 21.8438 7.07812 19.6402 7.07812 16.9219C7.07812 14.2036 9.28172 12 12 12C14.7183 12 16.9219 9.79641 16.9219 7.07812C16.9219 4.35984 14.7183 2.15625 12 2.15625" stroke="#DBB25A" stroke-width="1.5" stroke-linejoin="round"/>
<path d="M13.6406 16.9219C13.6406 17.357 13.4678 17.7743 13.1601 18.082C12.8524 18.3896 12.4351 18.5625 12 18.5625C11.5649 18.5625 11.1476 18.3896 10.8399 18.082C10.5322 17.7743 10.3594 17.357 10.3594 16.9219C10.3594 16.4868 10.5322 16.0695 10.8399 15.7618C11.1476 15.4541 11.5649 15.2812 12 15.2812C12.4351 15.2812 12.8524 15.4541 13.1601 15.7618C13.4678 16.0695 13.6406 16.4868 13.6406 16.9219Z" stroke="#DBB25A" stroke-width="1.5" stroke-linejoin="round"/>
<path d="M13.6406 7.07812C13.6406 6.643 13.4678 6.2257 13.1601 5.91803C12.8524 5.61035 12.4351 5.4375 12 5.4375C11.5649 5.4375 11.1476 5.61035 10.8399 5.91803C10.5322 6.2257 10.3594 6.643 10.3594 7.07812C10.3594 7.51325 10.5322 7.93055 10.8399 8.23822C11.1476 8.5459 11.5649 8.71875 12 8.71875C12.4351 8.71875 12.8524 8.5459 13.1601 8.23822C13.4678 7.93055 13.6406 7.51325 13.6406 7.07812Z" stroke="#DBB25A" stroke-width="1.5" stroke-linejoin="round"/>
</svg>
