<svg width="24" height="24" viewBox="0 0 24 24" fill="none" xmlns="http://www.w3.org/2000/svg">
<path d="M16.8444 3.88171C16.9916 3.07218 16.4132 2.31609 15.5915 2.26874C13.8885 2.1703 10.994 2.07046 8.15006 2.27812C7.81408 2.30289 7.49215 2.42307 7.22211 2.62451C6.95208 2.82596 6.74516 3.10031 6.62568 3.4153C5.19225 7.18171 4.50834 10.6608 4.21772 12.502C4.09772 13.2614 4.64428 13.9378 5.41115 13.9908C6.55397 14.0691 8.3174 14.1506 10.3588 14.1094C10.1469 15.6197 9.91959 17.9391 9.69318 20.4923C9.57881 21.7814 11.0947 22.492 11.9779 21.5461C15.4654 17.8087 18.6688 13.6458 20.4294 11.2683C21.0702 10.402 20.5096 9.22499 19.4324 9.19687C18.205 9.16682 16.977 9.1637 15.7494 9.18749C16.1558 7.55765 16.5158 5.68921 16.8444 3.88171Z" stroke="#DBB25A" stroke-width="1.5" stroke-linejoin="round"/>
</svg>
