<svg width="24" height="24" viewBox="0 0 24 24" fill="none" xmlns="http://www.w3.org/2000/svg">
<path d="M3.35156 21.8016C2.79984 21.7748 2.37563 21.4312 2.30766 20.8828C2.22984 20.2547 2.15625 19.1859 2.15625 17.3906C2.15625 15.5953 2.22984 14.5266 2.30766 13.8984C2.37563 13.35 2.79984 13.0064 3.35203 12.9797C3.81047 12.9563 4.48125 12.9375 5.4375 12.9375C6.39281 12.9375 7.06453 12.9567 7.52344 12.9797C8.07516 13.0064 8.49937 13.35 8.56734 13.8984C8.64516 14.5266 8.71875 15.5953 8.71875 17.3906V21.8438H5.4375C4.74195 21.8467 4.04643 21.8327 3.35156 21.8016Z" stroke="#DBB25A" stroke-width="1.5" stroke-linecap="round" stroke-linejoin="round"/>
<path d="M17.4858 6.82125C17.9634 7.40718 17.5289 8.25 16.7728 8.25H15.1861C15.239 9.44625 15.2803 11.1703 15.2803 13.6406V21.8437H8.71779V13.6406C8.71779 11.1703 8.75904 9.44625 8.81201 8.25H7.22529C6.4692 8.25 6.03467 7.40765 6.51232 6.82125C8.27717 4.65281 10.1986 3.04687 11.2336 2.25C11.4523 2.07955 11.7217 1.987 11.999 1.987C12.2764 1.987 12.5458 2.07955 12.7645 2.25C13.7995 3.04687 15.7204 4.65281 17.4858 6.82125Z" stroke="#DBB25A" stroke-width="1.5" stroke-linecap="round" stroke-linejoin="round"/>
<path d="M15.2812 21.8438V17.3906C15.2812 15.5953 15.3548 14.5266 15.4327 13.8984C15.5006 13.35 15.9248 13.0064 16.477 12.9797C16.9355 12.9567 17.6067 12.9375 18.5625 12.9375C19.5178 12.9375 20.1895 12.9567 20.6484 12.9797C21.1997 13.0064 21.6244 13.35 21.6923 13.8984C21.7702 14.5266 21.8438 15.5953 21.8438 17.3906C21.8438 19.1859 21.7702 20.2547 21.6923 20.8828C21.6244 21.4312 21.2002 21.7748 20.648 21.8016C20.1895 21.8245 19.5183 21.8438 18.5625 21.8438H15.2812Z" stroke="#DBB25A" stroke-width="1.5" stroke-linecap="round" stroke-linejoin="round"/>
</svg>
