<svg width="24" height="24" viewBox="0 0 24 24" fill="none" xmlns="http://www.w3.org/2000/svg">
<path d="M18.7973 2.36473C19.0042 2.37938 19.198 2.39418 19.3789 2.40888C20.5767 2.50619 21.4942 3.42363 21.5915 4.62142C21.6062 4.80236 21.621 4.99618 21.6356 5.20311M16.4535 2.23793C15.508 2.20063 14.4169 2.17246 13.1723 2.16138M10.8249 2.16138C9.58024 2.17246 8.48913 2.20063 7.54366 2.23793M5.1999 2.36473C4.99298 2.37938 4.79918 2.39418 4.61825 2.40888C3.42045 2.50618 2.50302 3.42362 2.40571 4.62142C2.39101 4.80236 2.37621 4.99618 2.36155 5.20311M21.839 10.8281C21.8279 9.58348 21.7998 8.49237 21.7624 7.54685M21.7624 16.4567C21.7998 15.5111 21.8279 14.42 21.839 13.1754M21.6356 18.8004C21.621 19.0074 21.6062 19.2012 21.5915 19.3821C21.4942 20.5799 20.5767 21.4974 19.3789 21.5947C19.198 21.6094 19.0042 21.6242 18.7973 21.6388M2.23475 7.54685C2.19745 8.49237 2.16928 9.58348 2.1582 10.8281M13.1723 21.8422C14.4169 21.8311 15.508 21.8029 16.4535 21.7656" stroke="#DBB25A" stroke-width="1.5" stroke-linecap="round" stroke-linejoin="round"/>
<path d="M13.481 5.67811C12.8677 5.7833 12.6294 6.43106 13.0455 6.89592C13.2762 7.15369 13.5716 7.47192 13.9487 7.86084C13.0668 8.81686 11.8899 10.1347 11.2886 10.8105C11.0494 11.0793 10.9838 11.4633 11.1705 11.7713C11.2961 11.9786 11.462 12.2136 11.6607 12.4082C11.848 12.5916 12.0525 12.7349 12.2316 12.8412C12.5219 13.0134 12.8776 12.9434 13.1306 12.7196C13.8043 12.1237 15.168 10.9095 16.1298 10.0008C16.5601 10.4028 16.9081 10.7134 17.1866 10.9524C17.6596 11.3585 18.2979 11.1026 18.3869 10.4839C18.6876 8.39386 18.5361 6.89414 18.4109 6.15699C18.3559 5.83341 18.1081 5.59064 17.7848 5.54372C17.0482 5.43676 15.5524 5.32285 13.481 5.67811Z" stroke="#DBB25A" stroke-width="1.5" stroke-linecap="round" stroke-linejoin="round"/>
<path d="M10.0776 15.7312C10.0287 14.7309 9.26906 13.9713 8.26884 13.9224C7.71216 13.8952 7.00716 13.875 6.14062 13.875C5.27407 13.875 4.56907 13.8952 4.01242 13.9224C3.01217 13.9713 2.25255 14.7309 2.20365 15.7312C2.17644 16.2878 2.15625 16.9928 2.15625 17.8594C2.15625 18.7259 2.17644 19.431 2.20365 19.9876C2.25255 20.9878 3.01216 21.7475 4.01242 21.7964C4.56907 21.8235 5.27407 21.8438 6.14062 21.8438C7.00716 21.8438 7.71216 21.8235 8.26884 21.7964C9.26906 21.7475 10.0287 20.9878 10.0776 19.9876C10.1048 19.431 10.125 18.7259 10.125 17.8594C10.125 16.9928 10.1048 16.2878 10.0776 15.7312Z" stroke="#DBB25A" stroke-width="1.5" stroke-linecap="round" stroke-linejoin="round"/>
</svg>
