<svg width="17" height="17" viewBox="0 0 17 17" fill="none" xmlns="http://www.w3.org/2000/svg">
<path d="M15.0002 5.38666C14.9869 4.81936 14.8806 4.25806 14.6857 3.72515C14.5136 3.26827 14.2427 2.85502 13.8925 2.51491C13.5525 2.16467 13.1391 1.89383 12.6823 1.72176C12.1494 1.52678 11.5881 1.42054 11.0208 1.40724C10.296 1.36621 10.0635 1.36621 8.20371 1.36621C6.34391 1.36621 6.11144 1.36621 5.38666 1.40724C4.81936 1.42054 4.25806 1.52678 3.72515 1.72176C3.26827 1.89383 2.85502 2.16467 2.51491 2.51491C2.16444 2.85349 1.89556 3.26734 1.72859 3.72515C1.52769 4.25666 1.419 4.81857 1.40724 5.38666C1.36621 6.11144 1.36621 6.34391 1.36621 8.20371C1.36621 10.0635 1.36621 10.296 1.40724 11.0208C1.419 11.5888 1.52769 12.1508 1.72859 12.6823C1.89556 13.1402 2.16444 13.5539 2.51491 13.8925C2.85502 14.2427 3.26827 14.5136 3.72515 14.6857C4.25806 14.8806 4.81936 14.9869 5.38666 15.0002C6.11144 15.0412 6.34391 15.0412 8.20371 15.0412C10.0635 15.0412 10.296 15.0412 11.0208 15.0002C11.5881 14.9869 12.1494 14.8806 12.6823 14.6857C13.1358 14.5072 13.5479 14.2373 13.8925 13.8925C14.2373 13.5479 14.5072 13.1358 14.6857 12.6823C14.8806 12.1494 14.9869 11.5881 15.0002 11.0208C15.0002 10.296 15.0412 10.0635 15.0412 8.20371C15.0412 6.34391 15.0412 6.11144 15.0002 5.38666ZM13.7695 10.9387C13.7644 11.3728 13.6859 11.8027 13.537 12.2105C13.4226 12.5054 13.2479 12.7732 13.0243 12.9969C12.8006 13.2206 12.5328 13.3952 12.2378 13.5096C11.8301 13.6585 11.4001 13.7371 10.966 13.7421C10.2823 13.7762 10.0293 13.7831 8.23106 13.7831C6.4328 13.7831 6.17981 13.7831 5.49606 13.7421C5.04528 13.7522 4.59625 13.6827 4.16958 13.537C3.87467 13.4226 3.60684 13.2479 3.38317 13.0243C3.1595 12.8006 2.98488 12.5328 2.87046 12.2378C2.7185 11.8215 2.63984 11.3819 2.63799 10.9387C2.63799 10.255 2.59696 10.002 2.59696 8.20371C2.59696 6.40544 2.59696 6.15246 2.63799 5.46871C2.63984 5.02549 2.7185 4.58595 2.87046 4.16958C2.98488 3.87467 3.1595 3.60684 3.38317 3.38317C3.60684 3.1595 3.87467 2.98488 4.16958 2.87046C4.58595 2.7185 5.02549 2.63984 5.46871 2.63799C6.15246 2.63799 6.40544 2.59696 8.20371 2.59696C10.002 2.59696 10.255 2.59696 10.9387 2.63799C11.3728 2.64296 11.8027 2.72157 12.2105 2.87046C12.5054 2.98488 12.7732 3.1595 12.9969 3.38317C13.2206 3.60684 13.3952 3.87467 13.5096 4.16958C13.6709 4.58428 13.7588 5.02388 13.7695 5.46871C13.8036 6.15246 13.8105 6.40544 13.8105 8.20371C13.8105 10.002 13.8036 10.255 13.7695 10.9387Z" fill="#9E9E9E"/>
<path d="M8.20588 4.69141C7.51078 4.69141 6.8313 4.89753 6.25334 5.2837C5.67539 5.66988 5.22493 6.21877 4.95893 6.86094C4.69292 7.50313 4.62334 8.20978 4.75893 8.89155C4.89454 9.57324 5.22926 10.1995 5.72077 10.691C6.21227 11.1826 6.83852 11.5172 7.52021 11.6528C8.20199 11.7885 8.90864 11.7189 9.55082 11.4528C10.193 11.1869 10.742 10.7364 11.1281 10.1584C11.5143 9.58049 11.7204 8.90098 11.7204 8.20588C11.7204 7.2738 11.3502 6.37986 10.691 5.72077C10.0319 5.06168 9.13797 4.69141 8.20588 4.69141ZM8.20588 10.4828C7.75556 10.4828 7.31537 10.3492 6.94094 10.099C6.56648 9.84886 6.27464 9.49324 6.10231 9.07718C5.92998 8.66119 5.8849 8.20335 5.97275 7.76165C6.0606 7.32001 6.27745 6.91427 6.59588 6.59588C6.91427 6.27745 7.32001 6.0606 7.76165 5.97275C8.20335 5.8849 8.66119 5.92998 9.07718 6.10231C9.49325 6.27464 9.84886 6.56647 10.099 6.94094C10.3492 7.31537 10.4828 7.75556 10.4828 8.20588C10.4828 8.50488 10.4239 8.80094 10.3095 9.07718C10.195 9.35349 10.0273 9.60443 9.81591 9.8159C9.60443 10.0273 9.35349 10.195 9.07718 10.3095C8.80095 10.4239 8.50489 10.4828 8.20588 10.4828Z" fill="#9E9E9E"/>
<path d="M11.8545 3.73438C11.6923 3.73438 11.5337 3.78249 11.3987 3.87262C11.2639 3.96276 11.1588 4.09088 11.0966 4.24077C11.0345 4.39066 11.0183 4.5556 11.05 4.71472C11.0817 4.87385 11.1597 5.02002 11.2744 5.13473C11.3892 5.24946 11.5353 5.32758 11.6944 5.35923C11.8536 5.39089 12.0185 5.37465 12.1684 5.31255C12.3183 5.25047 12.4464 5.14533 12.5366 5.01043C12.6267 4.87553 12.6748 4.71692 12.6748 4.55468C12.6748 4.33713 12.5884 4.12847 12.4346 3.97464C12.2807 3.82079 12.0721 3.73438 11.8545 3.73438Z" fill="#9E9E9E"/>
</svg>
