<svg width="17" height="16" viewBox="0 0 17 16" fill="none" xmlns="http://www.w3.org/2000/svg">
<path d="M14.4823 4.72828C14.4076 4.45089 14.2615 4.19791 14.0586 3.99454C13.8556 3.79116 13.603 3.64447 13.3258 3.56908C12.2978 3.28683 8.18549 3.28223 8.18549 3.28223C8.18549 3.28223 4.07381 3.27764 3.04523 3.54742C2.76817 3.62628 2.51605 3.77504 2.31305 3.97941C2.11006 4.18379 1.96301 4.43692 1.88602 4.7145C1.61493 5.74242 1.61231 7.8744 1.61231 7.8744C1.61231 7.8744 1.60968 10.0169 1.8788 11.0343C2.02978 11.5968 2.47285 12.0412 3.03604 12.1929C4.07446 12.4751 8.17564 12.4797 8.17564 12.4797C8.17564 12.4797 12.288 12.4843 13.3159 12.2152C13.5932 12.1399 13.8462 11.9936 14.0496 11.7906C14.253 11.5877 14.3999 11.3351 14.4758 11.0579C14.7475 10.0307 14.7495 7.89934 14.7495 7.89934C14.7495 7.89934 14.7626 5.7562 14.4823 4.72828ZM6.87006 9.84951L6.87334 5.91111L10.2912 7.88359L6.87006 9.84951Z" fill="#9E9E9E"/>
</svg>
