<svg width="17" height="17" viewBox="0 0 17 17" fill="none" xmlns="http://www.w3.org/2000/svg">
<path d="M14.2907 14.2903H11.7376V10.2924C11.7376 9.33928 11.7184 8.11263 10.4084 8.11263C9.07849 8.11263 8.87541 9.14988 8.87541 10.222V14.2903H6.32434V6.06958H8.7749V7.19025H8.80772C9.05332 6.77097 9.40792 6.42608 9.83389 6.19227C10.2599 5.95846 10.7412 5.84446 11.2268 5.86241C13.8114 5.86241 14.2893 7.56358 14.2893 9.77756V14.2903H14.2907ZM3.4437 4.94481C3.15059 4.94522 2.86395 4.85869 2.62004 4.69615C2.37612 4.53362 2.18588 4.3024 2.07341 4.03173C1.96092 3.76106 1.93125 3.46311 1.98814 3.17558C2.04502 2.88805 2.1859 2.62384 2.39297 2.41639C2.60004 2.20894 2.86398 2.06757 3.15141 2.01015C3.43884 1.95274 3.73685 1.98186 4.00772 2.09384C4.27859 2.20582 4.51017 2.39562 4.67315 2.63924C4.83613 2.88286 4.9232 3.16934 4.92334 3.46244C4.9236 3.65696 4.88554 3.84962 4.8113 4.02941C4.73708 4.20921 4.62814 4.3726 4.49073 4.51028C4.35332 4.64794 4.19011 4.75718 4.01046 4.83174C3.8308 4.9063 3.63822 4.94472 3.4437 4.94481ZM4.72232 14.2903H2.16441V6.06958H4.72232V14.2903Z" fill="#9E9E9E"/>
</svg>
