<svg width="34" height="11" viewBox="0 0 34 11" fill="none" xmlns="http://www.w3.org/2000/svg">
<path d="M0.000242218 10.1641V0.224062H0.952242V9.68806L0.518242 9.24006H6.04824V10.1641H0.000242218ZM10.4943 10.3881C9.57034 10.3881 8.77234 10.1827 8.10034 9.77206C7.43767 9.35206 6.929 8.75473 6.57434 7.98006C6.21967 7.2054 6.04234 6.2814 6.04234 5.20806C6.04234 4.13473 6.21967 3.21073 6.57434 2.43606C6.929 1.65206 7.43767 1.05006 8.10034 0.630062C8.77234 0.210062 9.57034 6.23465e-05 10.4943 6.23465e-05C11.4277 6.23465e-05 12.2257 0.210062 12.8883 0.630062C13.551 1.05006 14.0597 1.65206 14.4143 2.43606C14.7783 3.21073 14.9603 4.13473 14.9603 5.20806C14.9603 6.2814 14.7783 7.2054 14.4143 7.98006C14.0597 8.75473 13.551 9.35206 12.8883 9.77206C12.2257 10.1827 11.4277 10.3881 10.4943 10.3881ZM10.4943 9.45006C11.2223 9.45006 11.843 9.28206 12.3563 8.94606C12.8697 8.61006 13.2663 8.12473 13.5463 7.49006C13.8263 6.8554 13.9663 6.09473 13.9663 5.20806C13.9663 4.3214 13.8263 3.56073 13.5463 2.92606C13.2663 2.28206 12.8697 1.79206 12.3563 1.45606C11.843 1.11073 11.2223 0.938062 10.4943 0.938062C9.77567 0.938062 9.155 1.11073 8.63234 1.45606C8.119 1.79206 7.72234 2.28206 7.44234 2.92606C7.17167 3.56073 7.03634 4.3214 7.03634 5.20806C7.03634 6.09473 7.17167 6.8554 7.44234 7.49006C7.72234 8.12473 8.119 8.61006 8.63234 8.94606C9.155 9.28206 9.77567 9.45006 10.4943 9.45006ZM20.0626 10.3881C19.1572 10.3881 18.3779 10.1687 17.7246 9.73006C17.0806 9.2914 16.5859 8.68473 16.2406 7.91006C15.8952 7.12606 15.7226 6.2254 15.7226 5.20806C15.7226 4.1814 15.8952 3.28073 16.2406 2.50606C16.5859 1.72206 17.0852 1.11073 17.7386 0.672062C18.3919 0.224062 19.1806 6.23465e-05 20.1046 6.23465e-05C20.8512 6.23465e-05 21.4906 0.140062 22.0226 0.420062C22.5546 0.700062 22.9839 1.09206 23.3106 1.59606C23.6372 2.09073 23.8659 2.6694 23.9966 3.33206L23.0026 3.40206C22.8532 2.63673 22.5452 2.03473 22.0786 1.59606C21.6212 1.1574 20.9632 0.938062 20.1046 0.938062C19.3299 0.938062 18.6906 1.1294 18.1866 1.51206C17.6919 1.8854 17.3232 2.39406 17.0806 3.03806C16.8379 3.68206 16.7166 4.4054 16.7166 5.20806C16.7166 6.03873 16.8379 6.7714 17.0806 7.40606C17.3326 8.04073 17.7106 8.54006 18.2146 8.90406C18.7186 9.26806 19.3392 9.45006 20.0766 9.45006C20.6926 9.45006 21.2246 9.31006 21.6726 9.03006C22.1206 8.75006 22.4659 8.36273 22.7086 7.86806C22.9606 7.3734 23.1006 6.80873 23.1286 6.17406H20.1326V5.27806H24.0246V10.1641H23.2966L23.2266 7.63006L23.3666 7.75606C23.2732 8.25073 23.0726 8.69873 22.7646 9.10006C22.4659 9.49206 22.0832 9.80473 21.6166 10.0381C21.1592 10.2714 20.6412 10.3881 20.0626 10.3881ZM29.3079 10.3881C28.3839 10.3881 27.5859 10.1827 26.9139 9.77206C26.2513 9.35206 25.7426 8.75473 25.3879 7.98006C25.0333 7.2054 24.8559 6.2814 24.8559 5.20806C24.8559 4.13473 25.0333 3.21073 25.3879 2.43606C25.7426 1.65206 26.2513 1.05006 26.9139 0.630062C27.5859 0.210062 28.3839 6.23465e-05 29.3079 6.23465e-05C30.2413 6.23465e-05 31.0393 0.210062 31.7019 0.630062C32.3646 1.05006 32.8733 1.65206 33.2279 2.43606C33.5919 3.21073 33.7739 4.13473 33.7739 5.20806C33.7739 6.2814 33.5919 7.2054 33.2279 7.98006C32.8733 8.75473 32.3646 9.35206 31.7019 9.77206C31.0393 10.1827 30.2413 10.3881 29.3079 10.3881ZM29.3079 9.45006C30.0359 9.45006 30.6566 9.28206 31.1699 8.94606C31.6833 8.61006 32.0799 8.12473 32.3599 7.49006C32.6399 6.8554 32.7799 6.09473 32.7799 5.20806C32.7799 4.3214 32.6399 3.56073 32.3599 2.92606C32.0799 2.28206 31.6833 1.79206 31.1699 1.45606C30.6566 1.11073 30.0359 0.938062 29.3079 0.938062C28.5893 0.938062 27.9686 1.11073 27.4459 1.45606C26.9326 1.79206 26.5359 2.28206 26.2559 2.92606C25.9853 3.56073 25.8499 4.3214 25.8499 5.20806C25.8499 6.09473 25.9853 6.8554 26.2559 7.49006C26.5359 8.12473 26.9326 8.61006 27.4459 8.94606C27.9686 9.28206 28.5893 9.45006 29.3079 9.45006Z" fill="#B8B8B8"/>
</svg>
