<svg width="16" height="16" viewBox="0 0 16 16" fill="none" xmlns="http://www.w3.org/2000/svg">
<path d="M6.48926 6.24792C6.48926 6.64851 6.64839 7.03269 6.93165 7.31595C7.21491 7.5992 7.59909 7.75834 7.99967 7.75834C8.40026 7.75834 8.78444 7.5992 9.0677 7.31595C9.35096 7.03269 9.51009 6.64851 9.51009 6.24792C9.51009 5.84733 9.35096 5.46315 9.0677 5.17989C8.78444 4.89664 8.40026 4.7375 7.99967 4.7375C7.59909 4.7375 7.21491 4.89664 6.93165 5.17989C6.64839 5.46315 6.48926 5.84733 6.48926 6.24792Z" stroke="black" stroke-linecap="round" stroke-linejoin="round"/>
<path d="M5.46552 2.84585C5.68 2.63198 5.85581 2.5625 6.14944 2.5625H9.85056C10.1442 2.5625 10.3206 2.63198 10.5345 2.84585L13.1541 5.46552C13.368 5.6794 13.4375 5.85581 13.4375 6.14944V9.85056C13.4375 10.1526 13.362 10.3266 13.1541 10.5345L10.5345 13.1541C10.3206 13.368 10.1442 13.4375 9.85056 13.4375H6.14944C5.84735 13.4375 5.67335 13.362 5.46552 13.1541L2.84646 10.5345C2.63198 10.32 2.5625 10.1442 2.5625 9.85056V6.14944C2.5625 5.84735 2.63802 5.67335 2.84585 5.46552L5.46552 2.84585Z" stroke="black" stroke-linecap="round" stroke-linejoin="round"/>
<path d="M4.97949 12.5464V12.35C5.17101 8.61202 10.8296 8.61202 11.0212 12.35V12.5464" stroke="black" stroke-linecap="round" stroke-linejoin="round"/>
</svg>
