<svg width="16" height="16" viewBox="0 0 16 16" fill="none" xmlns="http://www.w3.org/2000/svg">
<path d="M10.9792 13.6875C12.4749 13.6875 13.6875 12.4749 13.6875 10.9792V10.8251C13.6875 10.4929 13.4852 10.1941 13.1768 10.0707L11.507 9.40281C11.1046 9.24185 10.6451 9.33618 10.3386 9.64263L9.5054 10.4759C9.3718 10.6095 9.17747 10.6657 8.99667 10.6108C7.2727 10.0873 5.91271 8.7273 5.38917 7.00333C5.33427 6.82253 5.39055 6.6282 5.52418 6.49457L6.35737 5.66138C6.66382 5.35493 6.75815 4.89536 6.59719 4.49301L5.92929 2.82325C5.8059 2.51477 5.50714 2.3125 5.17491 2.3125H5.02083C3.52505 2.3125 2.3125 3.52506 2.3125 5.02083V5.15625C2.3125 9.79026 6.00718 13.5613 10.6115 13.6844L10.6148 13.686L10.6183 13.6875H10.9792Z" stroke="black" stroke-linejoin="round"/>
</svg>
