<svg width="24" height="24" viewBox="0 0 24 24" fill="none" xmlns="http://www.w3.org/2000/svg">
<path d="M21.7877 9.195L19.279 4.74656C19.1565 4.52949 18.9786 4.34885 18.7634 4.22317C18.5481 4.09748 18.3034 4.03124 18.0541 4.03125H5.94634C5.69718 4.03133 5.45252 4.0976 5.23739 4.22328C5.02226 4.34897 4.84438 4.52956 4.72196 4.74656L2.21274 9.195C2.06183 9.46248 2.00263 9.77202 2.04419 10.0763C2.08575 10.3806 2.22578 10.6629 2.4429 10.8802L11.3374 19.7747C11.5132 19.9504 11.7517 20.0492 12.0002 20.0492C12.2488 20.0492 12.4872 19.9504 12.6631 19.7747L21.5581 10.8797C21.7752 10.6625 21.9154 10.3802 21.957 10.0759C21.9987 9.77163 21.9395 9.46206 21.7887 9.19453L21.7877 9.195Z" stroke="#DBB25A" stroke-width="1.5" stroke-linecap="round" stroke-linejoin="round"/>
<path d="M9.54971 4.03125L8.16409 9.53438C8.0675 9.91829 8.0949 10.3229 8.24237 10.6903L11.9961 20.0494H12.0041" stroke="#DBB25A" stroke-width="1.5" stroke-linecap="round" stroke-linejoin="round"/>
<path d="M14.4503 4.03125L15.8355 9.53438C15.9322 9.91824 15.905 10.3229 15.7577 10.6903L12.0039 20.0494" stroke="#DBB25A" stroke-width="1.5" stroke-linecap="round" stroke-linejoin="round"/>
<path d="M2.15625 10.125H21.8438" stroke="#DBB25A" stroke-width="1.5" stroke-linecap="round" stroke-linejoin="round"/>
</svg>
