<svg width="24" height="24" viewBox="0 0 24 24" fill="none" xmlns="http://www.w3.org/2000/svg">
<path d="M21.541 19.3047C21.4541 20.2738 20.82 21.0741 19.8653 21.2615C18.4794 21.5336 16.0184 21.8438 12 21.8438C7.98159 21.8438 5.52061 21.5336 4.13468 21.2615C3.18001 21.0741 2.54594 20.2738 2.459 19.3047C2.32417 17.8019 2.15625 15.2731 2.15625 12C2.15625 8.72686 2.32417 6.19814 2.459 4.69526C2.54594 3.72626 3.18001 2.92593 4.13468 2.73849C5.52061 2.46638 7.98159 2.15625 12 2.15625C16.0184 2.15625 18.4794 2.46638 19.8653 2.73849C20.82 2.92593 21.4541 3.72626 21.541 4.69526C21.6758 6.19814 21.8438 8.72686 21.8438 12C21.8438 15.2731 21.6758 17.8019 21.541 19.3047Z" stroke="#DBB25A" stroke-width="1.5" stroke-linecap="round" stroke-linejoin="round"/>
<path d="M16.6875 21.375C16.6875 21.375 17.1562 16.89 17.1562 9.65625" stroke="#DBB25A" stroke-width="1.5" stroke-linecap="round" stroke-linejoin="round"/>
<path d="M7.3125 21.375C7.3125 21.375 6.84375 16.89 6.84375 9.65625" stroke="#DBB25A" stroke-width="1.5" stroke-linecap="round" stroke-linejoin="round"/>
<path d="M2.625 9.18774C2.625 9.18774 5.4713 9.55609 10.125 9.63971" stroke="#DBB25A" stroke-width="1.5" stroke-linecap="round" stroke-linejoin="round"/>
<path d="M21.375 9.18774C21.375 9.18774 18.5287 9.55609 13.875 9.63971" stroke="#DBB25A" stroke-width="1.5" stroke-linecap="round" stroke-linejoin="round"/>
<path d="M11.5098 6.85111C10.7265 6.87544 10.1663 7.49517 10.1435 8.27859C10.1326 8.6505 10.125 9.10748 10.125 9.65625C10.125 10.205 10.1326 10.662 10.1435 11.0339C10.1663 11.8173 10.7264 12.4371 11.5098 12.4614C11.6591 12.466 11.8223 12.4688 12 12.4688C12.1777 12.4688 12.3409 12.466 12.4902 12.4614C13.2736 12.4371 13.8337 11.8173 13.8565 11.0339C13.8674 10.662 13.875 10.205 13.875 9.65625C13.875 9.10748 13.8674 8.6505 13.8565 8.27859C13.8337 7.49517 13.2735 6.87544 12.4902 6.85111C12.3409 6.84647 12.1777 6.84375 12 6.84375C11.8223 6.84375 11.6591 6.84647 11.5098 6.85111Z" stroke="#DBB25A" stroke-width="1.5" stroke-linecap="round" stroke-linejoin="round"/>
</svg>
