<svg width="24" height="24" viewBox="0 0 24 24" fill="none" xmlns="http://www.w3.org/2000/svg">
<path d="M14.6434 2.17058C14.9812 2.16143 15.3493 2.15625 15.75 2.15625C15.75 2.15625 16.2188 3.09375 16.2188 5.90625C16.2188 6.02119 16.218 6.13298 16.2165 6.24173C17.6755 6.98906 18.7923 8.22984 19.4145 9.77484C19.8517 9.71648 20.2782 9.6758 20.674 9.66169C21.2697 9.6405 21.7385 10.0887 21.7836 10.6831C21.8166 11.1195 21.8438 11.7092 21.8438 12.4688C21.8438 13.2283 21.8166 13.818 21.7836 14.2544C21.7385 14.8488 21.2697 15.297 20.674 15.2758C20.3684 15.2649 20.0445 15.2382 19.7115 15.1997C19.4429 16.2287 18.9715 17.1536 18.334 17.9285C18.6467 18.6064 18.9238 19.2519 19.1293 19.7448C19.3573 20.2917 19.2063 20.9231 18.7336 21.2804C18.5371 21.4289 18.3331 21.5725 18.1624 21.6703C17.9876 21.7703 17.7535 21.876 17.5202 21.9723C16.9792 22.1954 16.3658 22.0132 16.0071 21.5509C15.7114 21.1698 15.3347 20.6745 14.942 20.1329C14.3594 20.2977 13.7385 20.3932 13.0865 20.4111C12.4664 20.428 11.7929 20.4375 11.0625 20.4375C10.3321 20.4375 9.65864 20.428 9.03848 20.4111C8.38645 20.3932 7.76564 20.2977 7.18303 20.1329C6.79031 20.6745 6.41358 21.1698 6.11794 21.5509C5.7592 22.0132 5.14583 22.1954 4.60482 21.9723C4.37147 21.876 4.13738 21.7703 3.96263 21.6703C3.79185 21.5725 3.58792 21.4289 3.39137 21.2804C2.91867 20.9231 2.76773 20.2917 2.99573 19.7448C3.20123 19.2519 3.47829 18.6064 3.79102 17.9285C2.76085 16.6763 2.16438 15.0327 2.15677 13.1904C2.15643 13.1068 2.15625 13.0224 2.15625 12.9375C2.15625 12.8526 2.15643 12.7682 2.15677 12.6846C2.17342 8.65373 5.00907 5.57391 9.03848 5.46394C9.65864 5.44702 10.3321 5.4375 11.0625 5.4375H11.088C11.2931 3.5819 12.7121 2.22285 14.6434 2.17058Z" stroke="#DBB25A" stroke-width="1.5" stroke-linecap="round" stroke-linejoin="round"/>
<path d="M6.14062 9.41766C6.97205 8.58192 8.14833 8.06414 9.52964 8.02852C9.74723 8.02289 9.97439 8.01853 10.2114 8.01562" stroke="#DBB25A" stroke-width="1.5" stroke-linecap="round" stroke-linejoin="round"/>
<path d="M15.2812 9.1875V9.65625" stroke="#DBB25A" stroke-width="1.5" stroke-linecap="round" stroke-linejoin="round"/>
<path d="M4.09844 7.31236C2.8248 7.31236 1.6875 6.25528 1.6875 4.95128C1.6875 3.6473 2.8248 2.59021 4.09844 2.59021C5.30391 2.59021 5.9063 3.23398 5.9063 3.87791" stroke="#DBB25A" stroke-width="1.5" stroke-linecap="round" stroke-linejoin="round"/>
</svg>
