<svg width="24" height="24" viewBox="0 0 24 24" fill="none" xmlns="http://www.w3.org/2000/svg">
<path d="M2.15625 13.6706C2.15625 13.6706 4.96875 12.4688 7.3125 12.4688C8.96578 12.4688 10.7813 13.1334 11.9972 13.6814C12.93 14.1014 13.4667 14.3667 13.68 15.3675C13.8286 16.0627 13.3294 17.2214 12.6206 17.2786L12.1214 17.3189M12.1214 17.3189C10.9767 17.3189 9.20484 16.9795 9.20484 16.9795M12.1214 17.3189C13.7091 17.3189 17.8884 16.5647 19.3697 16.2877C19.7231 16.222 20.0892 16.1737 20.4253 16.3003C20.8481 16.4602 21.4153 16.8459 21.6863 17.7769C21.8981 18.5044 21.3895 19.2042 20.6831 19.4775C18.6112 20.2791 14.2908 21.8438 12.1214 21.8438C6.375 21.8438 2.15625 20.4014 2.15625 20.4014" stroke="#DBB25A" stroke-width="1.5" stroke-linecap="round" stroke-linejoin="round"/>
<path d="M17.625 4.96875C17.625 4.03125 17.1469 2.15625 15.4744 2.15625C13.5633 2.15625 13.4751 4.5 14.6269 4.96875" stroke="#DBB25A" stroke-width="1.5" stroke-linecap="round" stroke-linejoin="round"/>
<path d="M17.625 4.96875C17.625 4.03125 18.1031 2.15625 19.7756 2.15625C21.6867 2.15625 21.7748 4.5 20.6227 4.96875" stroke="#DBB25A" stroke-width="1.5" stroke-linecap="round" stroke-linejoin="round"/>
<path d="M21.7875 10.0804C21.7359 10.8384 21.1528 11.3995 20.3948 11.4501C19.4727 11.5077 18.5489 11.5347 17.625 11.5312C16.7011 11.5347 15.7773 11.5077 14.8552 11.4501C14.0972 11.3995 13.5145 10.8384 13.4625 10.0804C13.4306 9.61635 13.4062 9.01166 13.4062 8.24994C13.4062 7.48822 13.4306 6.88354 13.4625 6.41947C13.5141 5.6615 14.0972 5.10041 14.8552 5.04979C15.7773 4.99219 16.7011 4.96515 17.625 4.96869C18.8348 4.96869 19.7475 5.00666 20.3948 5.04979C21.1528 5.10041 21.7355 5.6615 21.7875 6.41947C21.8194 6.88354 21.8438 7.48822 21.8438 8.24994C21.8438 9.01166 21.8194 9.61635 21.7875 10.0804Z" stroke="#DBB25A" stroke-width="1.5" stroke-linecap="round" stroke-linejoin="round"/>
<path d="M17.625 4.98987V11.5524" stroke="#DBB25A" stroke-width="1.5" stroke-linecap="round" stroke-linejoin="round"/>
</svg>
