<svg width="24" height="24" viewBox="0 0 24 24" fill="none" xmlns="http://www.w3.org/2000/svg">
<path d="M2.47828 4.40719C2.57203 3.59625 3.06422 2.92687 3.86109 2.75062C5.10422 2.47547 7.51406 2.15625 12 2.15625C16.4859 2.15625 18.8953 2.47547 20.1389 2.75062C20.9358 2.92687 21.428 3.59625 21.5217 4.40719C21.6642 5.63344 21.8438 7.65281 21.8438 10.0312C21.8438 14.475 19.4986 18.6328 15.5475 20.6663C14.2275 21.3459 12.9394 21.8438 12 21.8438C11.0606 21.8438 9.7725 21.3455 8.4525 20.6663C4.50141 18.6328 2.15625 14.475 2.15625 10.0312C2.15625 7.65281 2.33578 5.63344 2.47828 4.40719Z" stroke="#DBB25A" stroke-width="1.5" stroke-linecap="round" stroke-linejoin="round"/>
<path d="M6.06563 7.25953C6.14156 6.49734 6.60328 5.87531 7.35703 5.73938C8.20547 5.58609 9.63797 5.4375 12 5.4375C14.362 5.4375 15.7941 5.58609 16.643 5.73938C17.3967 5.87531 17.8584 6.49734 17.9339 7.25953C18.0397 8.33645 18.0931 9.41789 18.0938 10.5C18.0938 12.9909 16.8844 15.2859 14.8584 16.7353C13.8253 17.4741 12.7387 18.0938 12 18.0938C11.2613 18.0938 10.1747 17.4741 9.14156 16.7353C7.11562 15.2859 5.90625 12.9909 5.90625 10.5C5.90625 9.19313 5.98734 8.055 6.06563 7.25953Z" stroke="#DBB25A" stroke-width="1.5" stroke-linecap="round" stroke-linejoin="round"/>
</svg>
