<svg width="24" height="24" viewBox="0 0 24 24" fill="none" xmlns="http://www.w3.org/2000/svg">
<path d="M18.1888 8.57066C18.9843 7.77472 19.2168 6.57801 18.5573 5.66629C18.1345 5.08503 17.6661 4.53831 17.1567 4.03129C16.6496 3.52182 16.1029 3.05347 15.5217 2.63066C14.6099 1.97113 13.4132 2.20363 12.6173 2.9991L2.72853 12.8888C2.45103 13.1658 2.26822 13.5225 2.234 13.913C2.16837 14.6574 2.09806 16.0833 2.23916 18.1064C2.25463 18.3249 2.3484 18.5304 2.50323 18.6852C2.65806 18.84 2.86355 18.9338 3.08197 18.9493C5.10556 19.0908 6.53103 19.0205 7.27541 18.9544C7.66587 18.9202 8.02259 18.7374 8.29962 18.4599L18.1888 8.57066Z" stroke="#DBB25A" stroke-width="1.5" stroke-linecap="round" stroke-linejoin="round"/>
<path d="M16.218 10.0711C16.218 10.0711 15.9255 8.76891 14.1715 7.01484C12.4174 5.26172 11.1152 4.96875 11.1152 4.96875" stroke="#DBB25A" stroke-width="1.5" stroke-linecap="round" stroke-linejoin="round"/>
<path d="M7.78055 18.5086C7.78055 18.5086 7.48805 17.2064 5.73398 15.4523C3.97992 13.6992 2.67773 13.4062 2.67773 13.4062" stroke="#DBB25A" stroke-width="1.5" stroke-linecap="round" stroke-linejoin="round"/>
<path d="M2.15625 21.8438H13.4062C14.6233 21.8438 15.8076 21.449 16.7812 20.7188L17.1562 20.4375M17.1562 20.4375L18.2812 19.5938C18.5961 19.3576 18.8286 19.0284 18.946 18.6528C19.0633 18.2772 19.0595 17.8742 18.935 17.5008C18.8106 17.1275 18.5718 16.8028 18.2526 16.5727C17.9333 16.3426 17.5498 16.2188 17.1562 16.2188C16.7627 16.2188 16.3792 16.3426 16.0599 16.5727C15.7407 16.8028 15.5019 17.1275 15.3775 17.5008C15.253 17.8742 15.2492 18.2772 15.3665 18.6528C15.4839 19.0284 15.7164 19.3576 16.0312 19.5938L17.1562 20.4375ZM17.1562 20.4375L18.2812 21.2812C18.7681 21.6464 19.3602 21.8438 19.9688 21.8438H22.3125" stroke="#DBB25A" stroke-width="1.5" stroke-linecap="round" stroke-linejoin="round"/>
</svg>
