<svg width="24" height="24" viewBox="0 0 24 24" fill="none" xmlns="http://www.w3.org/2000/svg">
<path d="M3.03375 2.18443C2.54016 2.24068 2.28 2.67896 2.26219 3.17583C2.22047 4.32896 2.15625 6.93052 2.15625 12.0001C2.15625 17.0696 2.22047 19.6707 2.26219 20.8243C2.28 21.3211 2.54016 21.7594 3.03375 21.8161C3.18188 21.833 3.35719 21.8438 3.5625 21.8438C3.76828 21.8438 3.94312 21.833 4.09125 21.8157C4.58484 21.7594 4.845 21.3211 4.86281 20.8243C4.90453 19.6711 4.96875 17.0696 4.96875 12.0001C4.96875 6.93052 4.90453 4.32943 4.86281 3.17583C4.845 2.67896 4.58484 2.24068 4.09125 2.18396C3.91567 2.1647 3.73913 2.15547 3.5625 2.1563C3.35672 2.1563 3.18188 2.16708 3.03375 2.18443Z" stroke="#DBB25A" stroke-width="1.5" stroke-linecap="round" stroke-linejoin="round"/>
<path d="M4.95516 15.7388C6.86766 15.8536 8.43938 16.1864 9.92391 16.5009C13.102 17.175 15.877 17.7628 20.73 15.9338C21.1144 15.7894 21.405 15.4716 21.4786 15.0675C21.6286 14.2378 21.8438 12.5039 21.8438 9.37126C21.8438 7.05048 21.7256 5.49704 21.6033 4.51079C21.5039 3.70735 20.7028 3.30798 19.9327 3.55829C15.7387 4.92048 13.1367 4.15829 10.2802 3.32204C8.46234 2.78907 6.54094 2.22657 4.04063 2.16235H3.5625" stroke="#DBB25A" stroke-width="1.5" stroke-linecap="round" stroke-linejoin="round"/>
</svg>
