<svg width="24" height="24" viewBox="0 0 24 24" fill="none" xmlns="http://www.w3.org/2000/svg">
<path d="M20.4375 10.5938C20.4375 16.6495 14.1797 20.9662 12.4425 22.0481C12.3101 22.1319 12.1567 22.1764 12 22.1764C11.8433 22.1764 11.6899 22.1319 11.5575 22.0481C9.82078 20.9662 3.5625 16.6495 3.5625 10.5938C3.5625 5.93391 7.34016 2.15625 12 2.15625C16.6598 2.15625 20.4375 5.93391 20.4375 10.5938Z" stroke="#DBB25A" stroke-width="1.5" stroke-linecap="round" stroke-linejoin="round"/>
<path d="M16.1916 11.9166C16.653 11.162 16.8 10.2565 16.6008 9.39468C16.1738 7.44327 13.8085 6.64593 12.3352 7.95374C12.2185 8.05686 12.1149 8.17546 12 8.29358C11.8852 8.17546 11.7816 8.0564 11.6649 7.95374C10.1916 6.64593 7.82626 7.44327 7.39923 9.39468C7.20006 10.2565 7.34699 11.162 7.80845 11.9166C8.5547 13.1259 9.72564 14.0869 10.9008 14.9541C11.2194 15.1883 11.6045 15.3146 12 15.3146C12.3955 15.3146 12.7806 15.1883 13.0992 14.9541C14.2749 14.0869 15.4453 13.1259 16.1916 11.9166Z" stroke="#DBB25A" stroke-width="1.5" stroke-linecap="round" stroke-linejoin="round"/>
</svg>
