<svg width="24" height="24" viewBox="0 0 24 24" fill="none" xmlns="http://www.w3.org/2000/svg">
<path d="M14.3972 2.17922C15.2175 2.19609 15.8363 2.91984 15.7397 3.73453L15.63 4.66453C15.5897 5.0066 15.4253 5.32199 15.1679 5.55087C14.9105 5.77975 14.578 5.9062 14.2336 5.90625H9.76641C9.42189 5.90632 9.08934 5.77992 8.83185 5.55102C8.57435 5.32213 8.40985 5.00668 8.36954 4.66453L8.25985 3.73453C8.16376 2.91984 8.78251 2.19609 9.60282 2.17922C10.3153 2.16469 11.1122 2.15625 12.0005 2.15625C12.8883 2.15625 13.6842 2.16469 14.3972 2.17922Z" stroke="#DBB25A" stroke-width="1.5" stroke-linecap="round" stroke-linejoin="round"/>
<path d="M8.25094 3.62012C6.98062 3.66324 6.01219 3.72465 5.29313 3.78512C4.21547 3.87652 3.41062 4.67387 3.31875 5.75152C3.20625 7.06824 3.09375 9.25074 3.09375 12.7031C3.09375 16.155 3.20625 18.3375 3.31875 19.6546C3.41062 20.7323 4.21547 21.5296 5.29359 21.6206C6.59953 21.7312 8.73094 21.8437 12 21.8437C15.2691 21.8437 17.4005 21.7312 18.7064 21.6206C19.7845 21.5292 20.5894 20.7323 20.6812 19.6546C20.7937 18.3375 20.9062 16.155 20.9062 12.7031C20.9062 9.25074 20.7937 7.06824 20.6812 5.75152C20.5894 4.6734 19.7845 3.87652 18.7064 3.78512C17.9878 3.72418 17.0189 3.66324 15.7486 3.62012" stroke="#DBB25A" stroke-width="1.5" stroke-linecap="round" stroke-linejoin="round"/>
</svg>
