<svg width="24" height="24" viewBox="0 0 24 24" fill="none" xmlns="http://www.w3.org/2000/svg">
<path d="M3.58727 14.5917C2.95288 14.5038 2.40739 14.1036 2.28739 13.4576C2.17347 12.8445 2.06836 11.9168 2.06836 10.5812C2.06836 9.24562 2.17347 8.31799 2.28739 7.70481C2.40739 7.05885 2.95288 6.65862 3.58727 6.57075C5.94665 6.24387 11.9082 5.18457 16.1254 2.4202C17.1793 1.72934 18.4903 2.06811 18.6769 3.33811C18.8962 4.83118 19.0934 7.13243 19.0934 10.5812C19.0934 14.03 18.8962 16.3313 18.6769 17.8243C18.4903 19.0943 17.1793 19.4331 16.1254 18.7423C11.9082 15.9779 5.94665 14.9186 3.58727 14.5917Z" stroke="#DBB25A" stroke-width="1.3" stroke-linejoin="round"/>
<path d="M19.0283 13.8039C20.0677 13.4449 20.9693 13.0467 21.3834 12.8564C21.5426 12.7833 21.6764 12.6632 21.7296 12.491C21.8182 12.2039 21.9312 11.6319 21.9312 10.5812C21.9312 9.53046 21.8182 8.95846 21.7296 8.67136C21.6764 8.49907 21.5426 8.37909 21.3834 8.30589C20.9693 8.11559 20.0677 7.71739 19.0283 7.3584C19.0694 8.30102 19.0937 9.37037 19.0937 10.5812C19.0937 11.792 19.0694 12.8614 19.0283 13.8039Z" stroke="#DBB25A" stroke-width="1.3" stroke-linejoin="round"/>
<path d="M6.995 15.2086L5.06103 19.1665C4.65059 20.0065 5.09375 21.0207 5.97917 21.2678L8.16703 21.8783C8.95363 22.0978 9.76288 21.6129 9.96061 20.8035L10.941 16.3047C9.56128 15.8352 8.20292 15.4776 6.995 15.2086Z" stroke="#DBB25A" stroke-width="1.3" stroke-linejoin="round"/>
<path d="M2.28739 13.4578C2.40739 14.1038 2.95288 14.504 3.58727 14.5919C4.05616 14.6569 4.66732 14.7508 5.37878 14.8812V6.28162C4.66732 6.41205 4.05616 6.50597 3.58727 6.5709C2.95288 6.65881 2.40739 7.05904 2.28739 7.705C2.17347 8.31814 2.06836 9.24581 2.06836 10.5814C2.06836 11.917 2.17347 12.8447 2.28739 13.4578Z" stroke="#DBB25A" stroke-width="1.3" stroke-linejoin="round"/>
</svg>
