<svg width="24" height="24" viewBox="0 0 24 24" fill="none" xmlns="http://www.w3.org/2000/svg">
<g clip-path="url(#clip0_380_140)">
<path d="M5.00873 22.5066C4.49965 22.456 4.17086 22.033 4.14874 21.5219C4.13241 21.1444 4.11593 20.616 4.10547 19.8951C3.38465 19.8847 2.85625 19.8682 2.47872 19.8519C1.9676 19.8297 1.54467 19.501 1.49399 18.9919C1.47321 18.7831 1.45898 18.5303 1.45898 18.2291C1.45898 17.928 1.47321 17.6751 1.49399 17.4664C1.54467 16.9573 1.9676 16.6285 2.47872 16.6064C2.85625 16.59 3.38465 16.5736 4.10547 16.5631C4.11593 15.8423 4.13241 15.3139 4.14874 14.9363C4.17086 14.4253 4.49965 14.0023 5.00873 13.9516C5.21748 13.9309 5.47033 13.9166 5.77148 13.9166C6.07264 13.9166 6.3255 13.9309 6.53422 13.9516C7.04334 14.0023 7.37209 14.4253 7.39423 14.9363C7.41057 15.3139 7.42705 15.8423 7.4375 16.5631C8.15831 16.5736 8.68673 16.59 9.06427 16.6064C9.57535 16.6285 9.99831 16.9573 10.049 17.4664C10.0698 17.6751 10.084 17.928 10.084 18.2291C10.084 18.5303 10.0698 18.7831 10.049 18.9919C9.99831 19.501 9.57535 19.8297 9.06427 19.8519C8.68673 19.8682 8.15831 19.8847 7.4375 19.8951C7.42705 20.616 7.41057 21.1444 7.39423 21.5219C7.37209 22.033 7.04334 22.456 6.53422 22.5066C6.3255 22.5274 6.07264 22.5416 5.77148 22.5416C5.47033 22.5416 5.21748 22.5274 5.00873 22.5066Z" stroke="#DBB25A" stroke-linejoin="round"/>
<path d="M20.5802 9.33799C20.5487 8.45033 20.5042 7.69325 20.4569 7.06679C20.4402 6.8458 20.392 6.63673 20.317 6.44272C20.2925 6.37909 20.265 6.31708 20.2349 6.25685M20.2349 6.25685C19.9365 5.66067 19.3733 5.23365 18.7088 5.08214C18.6437 4.21701 18.4653 3.34452 18.2799 2.75916C18.0176 1.93141 17.2067 1.45409 16.3388 1.4779C9.97994 1.65237 6.62999 2.98964 5.05309 3.91688C4.20381 4.41628 3.75433 5.31989 3.64752 6.29931C3.51795 7.4874 3.37549 9.38782 3.37549 12.0006M20.2349 6.25685C19.8291 5.4461 18.9332 4.94841 17.959 5.03106C15.8688 5.20837 12.5709 5.42957 9.12549 5.42957" stroke="#DBB25A" stroke-linecap="round" stroke-linejoin="round"/>
<path d="M20.5839 14.5007C20.5451 15.6257 20.4837 16.516 20.4221 17.19C20.3281 18.2174 19.6052 19.0316 18.5877 19.2026C17.3397 19.4122 15.3407 19.6404 12.479 19.6636" stroke="#DBB25A" stroke-linecap="round" stroke-linejoin="round"/>
<path d="M15.8669 13.2637C15.9072 13.9597 16.4116 14.5079 17.1043 14.5875C18.4612 14.7434 19.9995 14.6301 21.3493 14.3759C21.9917 14.255 22.4644 13.7459 22.5052 13.0935C22.5266 12.7495 22.5423 12.3103 22.5423 11.7604C22.5423 11.3177 22.5322 10.9309 22.517 10.5998C22.479 9.77063 21.7368 9.21403 20.9116 9.30272C19.7755 9.42486 18.6068 9.50695 17.4706 9.47661C16.6409 9.45448 15.8973 10.0106 15.8593 10.8398C15.8441 11.1709 15.834 11.5578 15.834 12.0004C15.834 12.5137 15.8476 12.9306 15.8669 13.2637Z" stroke="#DBB25A" stroke-linejoin="round"/>
<path d="M18.2295 11.8801V12.3593" stroke="#DBB25A" stroke-linecap="round"/>
</g>
<defs>
<clipPath id="clip0_380_140">
<rect width="24" height="24" fill="white"/>
</clipPath>
</defs>
</svg>
