<svg width="24" height="24" viewBox="0 0 24 24" fill="none" xmlns="http://www.w3.org/2000/svg">
<path d="M9.60433 1.45837C13.3092 1.45837 16.3127 6.17802 16.3127 12C16.3127 17.8221 13.3092 22.5417 9.60433 22.5417C5.89941 22.5417 2.896 17.8221 2.896 12C2.896 6.17802 5.89941 1.45837 9.60433 1.45837Z" stroke="#DBB25A" stroke-linecap="round" stroke-linejoin="round"/>
<path d="M16.3128 11.9999C16.3128 17.8219 13.3094 22.5416 9.60449 22.5416H14.3962C18.1011 22.5416 21.1045 17.8219 21.1045 11.9999C21.1045 6.1779 18.1011 1.45825 14.3962 1.45825H9.60449C13.3094 1.45825 16.3128 6.1779 16.3128 11.9999Z" stroke="#DBB25A" stroke-linecap="round" stroke-linejoin="round"/>
<path d="M16.3125 12H21.1042" stroke="#DBB25A" stroke-linecap="round" stroke-linejoin="round"/>
<path d="M14.8032 5.29175H19.547" stroke="#DBB25A" stroke-linecap="round" stroke-linejoin="round"/>
<path d="M14.8032 18.7084H19.547" stroke="#DBB25A" stroke-linecap="round" stroke-linejoin="round"/>
</svg>
