<svg width="24" height="24" viewBox="0 0 24 24" fill="none" xmlns="http://www.w3.org/2000/svg">
<path d="M17.5208 18.5045C20.1627 17.9897 22.0628 16.5594 22.0628 14.8755V6.72966C22.0628 4.74251 19.4168 3.10852 16.0283 2.91541" stroke="#DBB25A" stroke-linecap="round" stroke-linejoin="round"/>
<path d="M17.272 5.29065C18.4358 5.72777 19.1886 6.42366 19.1886 7.20748C19.1886 7.94128 18.5289 8.59802 17.4898 9.03752" stroke="#DBB25A" stroke-linecap="round" stroke-linejoin="round"/>
<path d="M15.3547 6.24988C15.3547 8.63162 12.3512 10.5624 8.64632 10.5624C4.94141 10.5624 1.93799 8.63162 1.93799 6.24988" stroke="#DBB25A" stroke-linecap="round" stroke-linejoin="round"/>
<path d="M8.64632 8.16659C10.7634 8.16659 12.4797 7.30845 12.4797 6.24992C12.4797 5.19137 10.7634 4.33325 8.64632 4.33325C6.52922 4.33325 4.81299 5.19137 4.81299 6.24992C4.81299 7.30845 6.52922 8.16659 8.64632 8.16659Z" stroke="#DBB25A" stroke-linecap="round" stroke-linejoin="round"/>
<path d="M15.3551 11.0415C15.3551 12.894 12.3517 14.3957 8.64681 14.3957C4.9419 14.3957 1.93848 12.894 1.93848 11.0415" stroke="#DBB25A" stroke-linecap="round" stroke-linejoin="round"/>
<path d="M15.3551 14.8748C15.3551 16.7272 12.3517 18.2289 8.64681 18.2289C4.9419 18.2289 1.93848 16.7272 1.93848 14.8748" stroke="#DBB25A" stroke-linecap="round" stroke-linejoin="round"/>
<path d="M1.93799 6.24988C1.93799 3.86815 4.94141 1.93738 8.64632 1.93738C12.3512 1.93738 15.3547 3.86815 15.3547 6.24988V18.7082C15.3547 20.5607 12.3512 22.0624 8.64632 22.0624C4.94141 22.0624 1.93799 20.5607 1.93799 18.7082L1.93799 6.24988Z" stroke="#DBB25A" stroke-linecap="round" stroke-linejoin="round"/>
<path d="M15.3551 14.8748C15.3551 16.7272 12.3517 18.2289 8.64681 18.2289C4.9419 18.2289 1.93848 16.7272 1.93848 14.8748" stroke="#DBB25A" stroke-linecap="round" stroke-linejoin="round"/>
<path d="M22.063 7.20789C22.063 9.04698 20.2722 10.6172 17.7505 11.2372" stroke="#DBB25A" stroke-linecap="round" stroke-linejoin="round"/>
<path d="M22.0628 11.5208C22.0628 12.9324 20.3187 14.1404 17.8491 14.6353" stroke="#DBB25A" stroke-linecap="round" stroke-linejoin="round"/>
</svg>
