<svg width="344" height="208" viewBox="0 0 344 208" fill="none" xmlns="http://www.w3.org/2000/svg">
<g opacity="0.6">
<path d="M170.111 0.25C226.366 0.25 271.973 46.1089 271.973 102.682C271.973 159.255 226.367 205.113 170.111 205.113C113.856 205.113 68.25 159.254 68.25 102.682C68.2501 46.1089 113.856 0.250046 170.111 0.25Z" stroke="#F3F3F3" stroke-width="0.5"/>
<path d="M170.113 20.7866C215.026 20.7867 251.438 57.4509 251.438 102.682C251.438 147.913 215.026 184.578 170.113 184.578C125.2 184.578 88.7881 147.913 88.7881 102.682C88.7881 57.4509 125.2 20.7866 170.113 20.7866Z" stroke="#F3F3F3" stroke-width="0.5"/>
<circle cx="170.113" cy="102.681" r="63.8635" stroke="#EFEFEF" stroke-width="0.5"/>
<circle cx="170" cy="103" r="42.75" stroke="#E9E9E9" stroke-width="0.5"/>
</g>
<path d="M182 87.5L217 48C224 41 224 41 238.5 41H264" stroke="#E8E8E8" stroke-width="0.5"/>
<path d="M182 118L217 157.5C224 164.5 224 164.5 238.5 164.5H264" stroke="#E8E8E8" stroke-width="0.5"/>
<line x1="183" y1="102.75" x2="303" y2="102.75" stroke="#E8E8E8" stroke-width="0.5"/>
<g filter="url(#filter0_d_555_1288)">
<circle cx="264" cy="41" r="19" fill="#FAFAFA"/>
</g>
<path d="M264.772 42.9617C264.823 42.3809 265.184 41.9176 265.761 41.836C266.267 41.7646 267.043 41.7031 268.219 41.7031C269.394 41.7031 270.171 41.7646 270.676 41.836C271.253 41.9176 271.615 42.3809 271.665 42.9617C271.711 43.4784 271.734 43.9969 271.734 44.5156C271.734 46.1026 270.897 47.5876 269.486 48.3139C269.014 48.5565 268.554 48.7344 268.219 48.7344C267.883 48.7344 267.423 48.5565 266.952 48.3139C265.541 47.5876 264.703 46.1026 264.703 44.5156C264.703 43.9152 264.735 43.379 264.772 42.9617Z" stroke="#092F52" stroke-width="1.1" stroke-linecap="round" stroke-linejoin="round"/>
<path d="M266.988 44.7853L268.146 46.0977L269.801 43.6367" stroke="#092F52" stroke-width="1.1" stroke-linecap="round" stroke-linejoin="round"/>
<path d="M263.63 40.9392C264.27 40.617 264.808 40.1233 265.184 39.5133C265.559 38.9033 265.758 38.2008 265.758 37.4844C265.758 35.3486 264.027 33.6172 261.891 33.6172C259.755 33.6172 258.024 35.3486 258.024 37.4844C258.024 38.2008 258.222 38.9033 258.598 39.5133C258.974 40.1233 259.512 40.617 260.152 40.9392C258.388 41.5495 257.052 43.0619 256.705 44.9185C256.593 45.5183 256.943 46.0084 257.548 46.0868C258.285 46.182 259.591 46.2734 261.891 46.2734C262.269 46.2734 262.62 46.271 262.946 46.2664" stroke="#092F52" stroke-width="1.1" stroke-linecap="round" stroke-linejoin="round"/>
<circle cx="303" cy="103" r="21.75" stroke="#E8E8E8" stroke-width="0.5"/>
<circle cx="264" cy="41" r="21.75" stroke="#E8E8E8" stroke-width="0.5"/>
<circle cx="264" cy="165" r="21.75" stroke="#E8E8E8" stroke-width="0.5"/>
<circle cx="75" cy="165" r="21.75" stroke="#E8E8E8" stroke-width="0.5"/>
<circle cx="76" cy="41" r="21.75" stroke="#E8E8E8" stroke-width="0.5"/>
<circle cx="37" cy="103" r="21.75" stroke="#E8E8E8" stroke-width="0.5"/>
<g filter="url(#filter1_d_555_1288)">
<circle cx="303" cy="103" r="19" fill="#FAFAFA"/>
</g>
<path d="M303.772 104.962C303.823 104.381 304.184 103.918 304.761 103.836C305.267 103.765 306.043 103.703 307.219 103.703C308.394 103.703 309.171 103.765 309.676 103.836C310.253 103.918 310.615 104.381 310.665 104.962C310.711 105.478 310.734 105.997 310.734 106.516C310.734 108.103 309.897 109.588 308.486 110.314C308.014 110.556 307.554 110.734 307.219 110.734C306.883 110.734 306.423 110.556 305.952 110.314C304.541 109.588 303.703 108.103 303.703 106.516C303.703 105.915 303.735 105.379 303.772 104.962Z" stroke="#092F52" stroke-width="1.1" stroke-linecap="round" stroke-linejoin="round"/>
<path d="M305.988 106.785L307.146 108.098L308.801 105.637" stroke="#092F52" stroke-width="1.1" stroke-linecap="round" stroke-linejoin="round"/>
<path d="M302.63 102.939C303.27 102.617 303.808 102.123 304.184 101.513C304.559 100.903 304.758 100.201 304.758 99.4844C304.758 97.3486 303.027 95.6172 300.891 95.6172C298.755 95.6172 297.024 97.3486 297.024 99.4844C297.024 100.201 297.222 100.903 297.598 101.513C297.974 102.123 298.512 102.617 299.152 102.939C297.388 103.549 296.052 105.062 295.705 106.919C295.593 107.518 295.943 108.008 296.548 108.087C297.285 108.182 298.591 108.273 300.891 108.273C301.269 108.273 301.62 108.271 301.946 108.266" stroke="#092F52" stroke-width="1.1" stroke-linecap="round" stroke-linejoin="round"/>
<g filter="url(#filter2_d_555_1288)">
<circle cx="264" cy="165" r="19" fill="#FAFAFA"/>
</g>
<path d="M264.772 166.962C264.823 166.381 265.184 165.918 265.761 165.836C266.267 165.765 267.043 165.703 268.219 165.703C269.394 165.703 270.171 165.765 270.676 165.836C271.253 165.918 271.615 166.381 271.665 166.962C271.711 167.478 271.734 167.997 271.734 168.516C271.734 170.103 270.897 171.588 269.486 172.314C269.014 172.556 268.554 172.734 268.219 172.734C267.883 172.734 267.423 172.556 266.952 172.314C265.541 171.588 264.703 170.103 264.703 168.516C264.703 167.915 264.735 167.379 264.772 166.962Z" stroke="#092F52" stroke-width="1.1" stroke-linecap="round" stroke-linejoin="round"/>
<path d="M266.988 168.785L268.146 170.098L269.801 167.637" stroke="#092F52" stroke-width="1.1" stroke-linecap="round" stroke-linejoin="round"/>
<path d="M263.63 164.939C264.27 164.617 264.808 164.123 265.184 163.513C265.559 162.903 265.758 162.201 265.758 161.484C265.758 159.349 264.027 157.617 261.891 157.617C259.755 157.617 258.024 159.349 258.024 161.484C258.024 162.201 258.222 162.903 258.598 163.513C258.974 164.123 259.512 164.617 260.152 164.939C258.388 165.549 257.052 167.062 256.705 168.919C256.593 169.518 256.943 170.008 257.548 170.087C258.285 170.182 259.591 170.273 261.891 170.273C262.269 170.273 262.62 170.271 262.946 170.266" stroke="#092F52" stroke-width="1.1" stroke-linecap="round" stroke-linejoin="round"/>
<path d="M158 87.5L123 48C116 41 116 41 101.5 41H76" stroke="#E8E8E8" stroke-width="0.5"/>
<path d="M158 118L123 157.5C116 164.5 116 164.5 101.5 164.5H76" stroke="#E8E8E8" stroke-width="0.5"/>
<line y1="-0.25" x2="120" y2="-0.25" transform="matrix(-1 0 0 1 157 103)" stroke="#E8E8E8" stroke-width="0.5"/>
<g filter="url(#filter3_d_555_1288)">
<circle cx="76" cy="41" r="19" fill="#FAFAFA"/>
</g>
<path d="M76.7717 42.9617C76.823 42.3809 77.1841 41.9176 77.7613 41.836C78.2669 41.7646 79.0431 41.7031 80.2188 41.7031C81.3944 41.7031 82.1706 41.7646 82.6762 41.836C83.2534 41.9176 83.6148 42.3809 83.6655 42.9617C83.7111 43.4784 83.7341 43.9969 83.7344 44.5156C83.7344 46.1026 82.8966 47.5876 81.4858 48.3139C81.0143 48.5565 80.5541 48.7344 80.2188 48.7344C79.8834 48.7344 79.4232 48.5565 78.9517 48.3139C77.5405 47.5876 76.7031 46.1026 76.7031 44.5156C76.7031 43.9152 76.7351 43.379 76.7717 42.9617Z" stroke="#092F52" stroke-width="1.1" stroke-linecap="round" stroke-linejoin="round"/>
<path d="M78.9883 44.7853L80.1463 46.0977L81.8008 43.6367" stroke="#092F52" stroke-width="1.1" stroke-linecap="round" stroke-linejoin="round"/>
<path d="M75.63 40.9392C76.2699 40.617 76.8078 40.1233 77.1835 39.5133C77.5593 38.9033 77.7582 38.2008 77.758 37.4844C77.758 35.3486 76.0266 33.6172 73.8908 33.6172C71.7551 33.6172 70.0236 35.3486 70.0236 37.4844C70.0235 38.2008 70.2224 38.9033 70.5982 39.5133C70.9739 40.1233 71.5117 40.617 72.1517 40.9392C70.3879 41.5495 69.0516 43.0619 68.7053 44.9185C68.5935 45.5183 68.9426 46.0084 69.548 46.0868C70.2845 46.182 71.5906 46.2734 73.8908 46.2734C74.2688 46.2734 74.6196 46.271 74.9455 46.2664" stroke="#092F52" stroke-width="1.1" stroke-linecap="round" stroke-linejoin="round"/>
<g filter="url(#filter4_d_555_1288)">
<circle cx="37" cy="103" r="19" fill="#FAFAFA"/>
</g>
<path d="M37.7717 104.962C37.823 104.381 38.1841 103.918 38.7613 103.836C39.2669 103.765 40.0431 103.703 41.2188 103.703C42.3944 103.703 43.1706 103.765 43.6762 103.836C44.2534 103.918 44.6148 104.381 44.6655 104.962C44.7111 105.478 44.7341 105.997 44.7344 106.516C44.7344 108.103 43.8966 109.588 42.4858 110.314C42.0143 110.556 41.5541 110.734 41.2188 110.734C40.8834 110.734 40.4232 110.556 39.9517 110.314C38.5405 109.588 37.7031 108.103 37.7031 106.516C37.7031 105.915 37.7351 105.379 37.7717 104.962Z" stroke="#092F52" stroke-width="1.1" stroke-linecap="round" stroke-linejoin="round"/>
<path d="M39.9883 106.785L41.1463 108.098L42.8008 105.637" stroke="#092F52" stroke-width="1.1" stroke-linecap="round" stroke-linejoin="round"/>
<path d="M36.63 102.939C37.2699 102.617 37.8078 102.123 38.1835 101.513C38.5593 100.903 38.7582 100.201 38.758 99.4844C38.758 97.3486 37.0266 95.6172 34.8908 95.6172C32.7551 95.6172 31.0236 97.3486 31.0236 99.4844C31.0235 100.201 31.2224 100.903 31.5982 101.513C31.9739 102.123 32.5117 102.617 33.1517 102.939C31.3879 103.549 30.0516 105.062 29.7053 106.919C29.5935 107.518 29.9426 108.008 30.548 108.087C31.2845 108.182 32.5906 108.273 34.8908 108.273C35.2688 108.273 35.6196 108.271 35.9455 108.266" stroke="#092F52" stroke-width="1.1" stroke-linecap="round" stroke-linejoin="round"/>
<g filter="url(#filter5_d_555_1288)">
<circle cx="76" cy="165" r="19" fill="#FAFAFA"/>
</g>
<path d="M76.7717 166.962C76.823 166.381 77.1841 165.918 77.7613 165.836C78.2669 165.765 79.0431 165.703 80.2188 165.703C81.3944 165.703 82.1706 165.765 82.6762 165.836C83.2534 165.918 83.6148 166.381 83.6655 166.962C83.7111 167.478 83.7341 167.997 83.7344 168.516C83.7344 170.103 82.8966 171.588 81.4858 172.314C81.0143 172.556 80.5541 172.734 80.2188 172.734C79.8834 172.734 79.4232 172.556 78.9517 172.314C77.5405 171.588 76.7031 170.103 76.7031 168.516C76.7031 167.915 76.7351 167.379 76.7717 166.962Z" stroke="#092F52" stroke-width="1.1" stroke-linecap="round" stroke-linejoin="round"/>
<path d="M78.9883 168.785L80.1463 170.098L81.8008 167.637" stroke="#092F52" stroke-width="1.1" stroke-linecap="round" stroke-linejoin="round"/>
<path d="M75.63 164.939C76.2699 164.617 76.8078 164.123 77.1835 163.513C77.5593 162.903 77.7582 162.201 77.758 161.484C77.758 159.349 76.0266 157.617 73.8908 157.617C71.7551 157.617 70.0236 159.349 70.0236 161.484C70.0235 162.201 70.2224 162.903 70.5982 163.513C70.9739 164.123 71.5117 164.617 72.1517 164.939C70.3879 165.549 69.0516 167.062 68.7053 168.919C68.5935 169.518 68.9426 170.008 69.548 170.087C70.2845 170.182 71.5906 170.273 73.8908 170.273C74.2688 170.273 74.6196 170.271 74.9455 170.266" stroke="#092F52" stroke-width="1.1" stroke-linecap="round" stroke-linejoin="round"/>
<g filter="url(#filter6_d_555_1288)">
<circle cx="170" cy="103" r="29" fill="#FAFAFA"/>
</g>
<path fill-rule="evenodd" clip-rule="evenodd" d="M172.364 89.7561L176.192 93.5396C176.703 94.0454 176.962 94.7142 176.965 95.384C176.969 96.0511 176.72 96.7198 176.217 97.2286C174.442 99.0239 172.443 101.078 170.548 102.878L168.927 101.257L170.668 99.5173C170.71 99.5031 170.749 99.4793 170.783 99.4458L170.787 99.4367L170.789 99.4389L174.573 95.6116C174.633 95.5512 174.662 95.4718 174.662 95.393C174.661 95.3167 174.632 95.2407 174.575 95.1838L170.741 91.3935L170.731 91.389L170.733 91.3868C170.674 91.3316 170.598 91.3042 170.522 91.3046C170.446 91.3051 170.37 91.3342 170.313 91.3917L170.308 91.4008L170.306 91.3986L166.522 95.2259C166.463 95.2863 166.433 95.3657 166.434 95.4445C166.434 95.5208 166.463 95.5968 166.521 95.6537L169.62 98.7176L167.989 100.348L164.904 97.2979C164.392 96.7921 164.134 96.1233 164.13 95.4535C164.126 94.7865 164.375 94.1177 164.878 93.6089L168.669 89.7748L168.673 89.7657L168.675 89.7679C169.18 89.2608 169.846 89.0048 170.513 89.001C171.18 88.9971 171.849 89.2464 172.357 89.7493L172.367 89.7538L172.364 89.7561Z" fill="#092F52"/>
<path fill-rule="evenodd" clip-rule="evenodd" d="M184.243 105.378L180.455 109.201C179.949 109.713 179.28 109.97 178.61 109.973C177.943 109.976 177.275 109.727 176.766 109.223C174.973 107.446 172.921 105.445 171.123 103.548L172.745 101.928L174.483 103.671C174.498 103.713 174.521 103.753 174.555 103.786L174.564 103.791L174.562 103.793L178.385 107.581C178.445 107.64 178.525 107.67 178.604 107.67C178.68 107.669 178.756 107.64 178.813 107.583L182.607 103.753L182.612 103.744L182.614 103.746C182.669 103.686 182.697 103.61 182.696 103.534C182.696 103.458 182.667 103.382 182.609 103.325L182.6 103.32L182.603 103.318L178.779 99.5305C178.719 99.4707 178.64 99.441 178.561 99.4413C178.484 99.4417 178.408 99.4708 178.351 99.5283L175.284 102.624L173.656 100.992L176.709 97.9095C177.215 97.3984 177.884 97.1408 178.554 97.1377C179.221 97.1346 179.89 97.3845 180.398 97.888L184.228 101.682L184.237 101.687L184.235 101.689C184.742 102.195 184.997 102.861 185 103.527C185.003 104.195 184.753 104.863 184.25 105.371L184.245 105.38L184.243 105.378Z" fill="#092F52"/>
<path fill-rule="evenodd" clip-rule="evenodd" d="M168.786 117.264L164.918 113.522C164.401 113.021 164.135 112.355 164.124 111.686C164.113 111.019 164.355 110.347 164.853 109.833C166.608 108.019 168.585 105.943 170.461 104.123L172.099 105.726L170.377 107.485C170.335 107.499 170.296 107.524 170.263 107.557L170.259 107.567L170.256 107.564L166.514 111.432C166.455 111.493 166.426 111.573 166.428 111.652C166.429 111.728 166.459 111.804 166.517 111.86L170.392 115.609L170.401 115.613L170.399 115.615C170.459 115.67 170.536 115.697 170.612 115.695C170.688 115.694 170.763 115.664 170.82 115.606L170.824 115.597L170.826 115.599L174.568 111.731C174.628 111.67 174.656 111.59 174.655 111.512C174.654 111.435 174.624 111.36 174.566 111.303L171.433 108.273L173.047 106.625L176.165 109.642C176.682 110.142 176.947 110.808 176.958 111.478C176.969 112.145 176.727 112.816 176.23 113.33L172.481 117.205L172.477 117.214L172.475 117.212C171.975 117.725 171.312 117.988 170.645 117.999C169.978 118.01 169.307 117.768 168.793 117.27L168.784 117.266L168.786 117.264Z" fill="#092F52"/>
<path fill-rule="evenodd" clip-rule="evenodd" d="M156.755 101.646L160.536 97.8161C161.041 97.304 161.71 97.0453 162.38 97.0411C163.047 97.0368 163.716 97.2855 164.225 97.7882C166.021 99.5618 168.077 101.56 169.878 103.454L168.258 105.076L166.517 103.336C166.503 103.294 166.479 103.254 166.446 103.221L166.437 103.217L166.439 103.214L162.609 99.4334C162.548 99.3738 162.469 99.3442 162.39 99.3447C162.314 99.3452 162.238 99.3744 162.181 99.432L158.393 103.269L158.389 103.278L158.387 103.276C158.332 103.335 158.304 103.411 158.305 103.487C158.305 103.564 158.334 103.64 158.392 103.696L158.401 103.701L158.399 103.703L162.229 107.484C162.289 107.544 162.368 107.573 162.447 107.573C162.523 107.572 162.599 107.543 162.656 107.486L165.718 104.384L167.35 106.014L164.302 109.102C163.796 109.614 163.128 109.872 162.458 109.877C161.791 109.881 161.122 109.632 160.613 109.129L156.776 105.342L156.767 105.337L156.769 105.335C156.262 104.83 156.005 104.165 156.001 103.498C155.997 102.831 156.245 102.162 156.748 101.653L156.753 101.644L156.755 101.646Z" fill="#092F52"/>
<defs>
<filter id="filter0_d_555_1288" x="227" y="6" width="78" height="78" filterUnits="userSpaceOnUse" color-interpolation-filters="sRGB">
<feFlood flood-opacity="0" result="BackgroundImageFix"/>
<feColorMatrix in="SourceAlpha" type="matrix" values="0 0 0 0 0 0 0 0 0 0 0 0 0 0 0 0 0 0 127 0" result="hardAlpha"/>
<feOffset dx="2" dy="4"/>
<feGaussianBlur stdDeviation="10"/>
<feComposite in2="hardAlpha" operator="out"/>
<feColorMatrix type="matrix" values="0 0 0 0 0 0 0 0 0 0 0 0 0 0 0 0 0 0 0.25 0"/>
<feBlend mode="normal" in2="BackgroundImageFix" result="effect1_dropShadow_555_1288"/>
<feBlend mode="normal" in="SourceGraphic" in2="effect1_dropShadow_555_1288" result="shape"/>
</filter>
<filter id="filter1_d_555_1288" x="266" y="68" width="78" height="78" filterUnits="userSpaceOnUse" color-interpolation-filters="sRGB">
<feFlood flood-opacity="0" result="BackgroundImageFix"/>
<feColorMatrix in="SourceAlpha" type="matrix" values="0 0 0 0 0 0 0 0 0 0 0 0 0 0 0 0 0 0 127 0" result="hardAlpha"/>
<feOffset dx="2" dy="4"/>
<feGaussianBlur stdDeviation="10"/>
<feComposite in2="hardAlpha" operator="out"/>
<feColorMatrix type="matrix" values="0 0 0 0 0 0 0 0 0 0 0 0 0 0 0 0 0 0 0.25 0"/>
<feBlend mode="normal" in2="BackgroundImageFix" result="effect1_dropShadow_555_1288"/>
<feBlend mode="normal" in="SourceGraphic" in2="effect1_dropShadow_555_1288" result="shape"/>
</filter>
<filter id="filter2_d_555_1288" x="227" y="130" width="78" height="78" filterUnits="userSpaceOnUse" color-interpolation-filters="sRGB">
<feFlood flood-opacity="0" result="BackgroundImageFix"/>
<feColorMatrix in="SourceAlpha" type="matrix" values="0 0 0 0 0 0 0 0 0 0 0 0 0 0 0 0 0 0 127 0" result="hardAlpha"/>
<feOffset dx="2" dy="4"/>
<feGaussianBlur stdDeviation="10"/>
<feComposite in2="hardAlpha" operator="out"/>
<feColorMatrix type="matrix" values="0 0 0 0 0 0 0 0 0 0 0 0 0 0 0 0 0 0 0.25 0"/>
<feBlend mode="normal" in2="BackgroundImageFix" result="effect1_dropShadow_555_1288"/>
<feBlend mode="normal" in="SourceGraphic" in2="effect1_dropShadow_555_1288" result="shape"/>
</filter>
<filter id="filter3_d_555_1288" x="39" y="6" width="78" height="78" filterUnits="userSpaceOnUse" color-interpolation-filters="sRGB">
<feFlood flood-opacity="0" result="BackgroundImageFix"/>
<feColorMatrix in="SourceAlpha" type="matrix" values="0 0 0 0 0 0 0 0 0 0 0 0 0 0 0 0 0 0 127 0" result="hardAlpha"/>
<feOffset dx="2" dy="4"/>
<feGaussianBlur stdDeviation="10"/>
<feComposite in2="hardAlpha" operator="out"/>
<feColorMatrix type="matrix" values="0 0 0 0 0 0 0 0 0 0 0 0 0 0 0 0 0 0 0.25 0"/>
<feBlend mode="normal" in2="BackgroundImageFix" result="effect1_dropShadow_555_1288"/>
<feBlend mode="normal" in="SourceGraphic" in2="effect1_dropShadow_555_1288" result="shape"/>
</filter>
<filter id="filter4_d_555_1288" x="0" y="68" width="78" height="78" filterUnits="userSpaceOnUse" color-interpolation-filters="sRGB">
<feFlood flood-opacity="0" result="BackgroundImageFix"/>
<feColorMatrix in="SourceAlpha" type="matrix" values="0 0 0 0 0 0 0 0 0 0 0 0 0 0 0 0 0 0 127 0" result="hardAlpha"/>
<feOffset dx="2" dy="4"/>
<feGaussianBlur stdDeviation="10"/>
<feComposite in2="hardAlpha" operator="out"/>
<feColorMatrix type="matrix" values="0 0 0 0 0 0 0 0 0 0 0 0 0 0 0 0 0 0 0.25 0"/>
<feBlend mode="normal" in2="BackgroundImageFix" result="effect1_dropShadow_555_1288"/>
<feBlend mode="normal" in="SourceGraphic" in2="effect1_dropShadow_555_1288" result="shape"/>
</filter>
<filter id="filter5_d_555_1288" x="39" y="130" width="78" height="78" filterUnits="userSpaceOnUse" color-interpolation-filters="sRGB">
<feFlood flood-opacity="0" result="BackgroundImageFix"/>
<feColorMatrix in="SourceAlpha" type="matrix" values="0 0 0 0 0 0 0 0 0 0 0 0 0 0 0 0 0 0 127 0" result="hardAlpha"/>
<feOffset dx="2" dy="4"/>
<feGaussianBlur stdDeviation="10"/>
<feComposite in2="hardAlpha" operator="out"/>
<feColorMatrix type="matrix" values="0 0 0 0 0 0 0 0 0 0 0 0 0 0 0 0 0 0 0.25 0"/>
<feBlend mode="normal" in2="BackgroundImageFix" result="effect1_dropShadow_555_1288"/>
<feBlend mode="normal" in="SourceGraphic" in2="effect1_dropShadow_555_1288" result="shape"/>
</filter>
<filter id="filter6_d_555_1288" x="123" y="58" width="98" height="98" filterUnits="userSpaceOnUse" color-interpolation-filters="sRGB">
<feFlood flood-opacity="0" result="BackgroundImageFix"/>
<feColorMatrix in="SourceAlpha" type="matrix" values="0 0 0 0 0 0 0 0 0 0 0 0 0 0 0 0 0 0 127 0" result="hardAlpha"/>
<feOffset dx="2" dy="4"/>
<feGaussianBlur stdDeviation="10"/>
<feComposite in2="hardAlpha" operator="out"/>
<feColorMatrix type="matrix" values="0 0 0 0 0 0 0 0 0 0 0 0 0 0 0 0 0 0 0.25 0"/>
<feBlend mode="normal" in2="BackgroundImageFix" result="effect1_dropShadow_555_1288"/>
<feBlend mode="normal" in="SourceGraphic" in2="effect1_dropShadow_555_1288" result="shape"/>
</filter>
</defs>
</svg>
