<svg width="253" height="251" viewBox="0 0 253 251" fill="none" xmlns="http://www.w3.org/2000/svg">
<circle cx="123.218" cy="127.781" r="122.818" fill="#FAFAFA" stroke="#F4F4F4" stroke-width="0.8"/>
<path d="M123.217 25.5002C179.388 25.5002 224.929 71.2908 224.929 127.781C224.929 184.272 179.388 230.064 123.217 230.064C67.0453 230.064 21.5059 184.272 21.5059 127.781C21.506 71.2908 67.0453 25.5003 123.217 25.5002Z" fill="#FAFAFA" stroke="#F3F3F3" stroke-width="0.8"/>
<path d="M123.219 46.0369C168.048 46.037 204.394 82.6326 204.394 127.782C204.394 172.931 168.048 209.527 123.219 209.527C78.3896 209.527 42.044 172.931 42.0439 127.782C42.0439 82.6326 78.3896 46.0369 123.219 46.0369Z" fill="#FAFAFA" stroke="#F3F3F3" stroke-width="0.8"/>
<circle cx="123.218" cy="127.781" r="63.7135" stroke="#EFEFEF" stroke-width="0.8"/>
<circle cx="123.219" cy="127.781" r="31.6568" fill="#FAFAFA" stroke="#E9E9E9" stroke-width="0.8"/>
<circle cx="243.583" cy="103.823" r="9.12728" fill="#092F52" fill-opacity="0.2"/>
<circle cx="243.583" cy="103.823" r="8.87728" stroke="#092F52" stroke-opacity="0.2" stroke-width="0.5"/>
<circle cx="243.584" cy="103.823" r="3.42273" fill="#092F52"/>
<circle cx="30.2327" cy="209.927" r="9.12728" fill="#092F52" fill-opacity="0.2"/>
<circle cx="30.2327" cy="209.927" r="8.87728" stroke="#092F52" stroke-opacity="0.2" stroke-width="0.5"/>
<circle cx="30.2343" cy="209.927" r="3.42273" fill="#092F52"/>
<circle cx="90.7015" cy="9.12728" r="9.12728" fill="#092F52" fill-opacity="0.2"/>
<circle cx="90.7015" cy="9.12728" r="8.87728" stroke="#092F52" stroke-opacity="0.2" stroke-width="0.5"/>
<circle cx="90.702" cy="9.12732" r="3.42273" fill="#092F52"/>
<path d="M117.913 131.924C121.268 131.924 124.612 131.942 127.961 131.912C128.336 131.895 128.71 131.957 129.06 132.095C129.41 132.232 129.727 132.441 129.992 132.71C131.399 134.058 132.901 135.302 134.281 136.68C134.634 137.033 134.936 137.801 134.79 138.2C134.644 138.598 133.92 139.043 133.436 139.059C130.973 139.145 128.502 139.135 126.041 139.059C125.543 139.045 124.969 138.736 124.578 138.391C122.395 136.473 120.275 134.483 118.088 132.568C117.675 132.223 117.163 132.021 116.628 131.992C114.259 131.932 111.891 131.956 109.522 131.972C108.814 131.972 108.206 131.85 107.914 131.107C107.621 130.363 108.028 129.91 108.518 129.471C114.24 124.275 119.956 119.072 125.666 113.864C125.978 113.554 126.351 113.313 126.761 113.156C127.171 113 127.609 112.931 128.046 112.954C130.182 113.018 132.321 112.99 134.459 112.97C135.217 112.97 135.945 112.992 136.265 113.832C136.573 114.641 136.046 115.13 135.513 115.613C129.964 120.648 124.414 125.685 118.862 130.724C118.503 131.049 118.153 131.382 117.798 131.711L117.913 131.924Z" fill="#092F52"/>
</svg>
