<svg width="367" height="220" viewBox="0 0 367 220" fill="none" xmlns="http://www.w3.org/2000/svg">
<path d="M0.321289 134.391C11.7391 139.285 43.5457 165.382 73.7213 113.187C86.2265 91.1667 121.187 58.0552 160.986 101.769C200.785 145.483 235.201 119.983 247.435 101.769C252.872 92.7978 269.781 75.6712 293.921 78.9334C337.146 84.7746 320.821 30 366.321 30" stroke="url(#paint0_linear_205_2392)" stroke-width="1.63111"/>
<line x1="228.821" y1="-2.18557e-08" x2="228.821" y2="220" stroke="#E6E6E6" stroke-dasharray="6 6"/>
<circle cx="228.321" cy="120" r="8" fill="#092F52" fill-opacity="0.2"/>
<circle cx="228.321" cy="120" r="7.75" stroke="#092F52" stroke-opacity="0.5" stroke-width="0.5"/>
<circle cx="228.321" cy="120" r="3" fill="#092F52"/>
<rect x="159.821" y="38.5" width="102" height="31" rx="15.5" fill="#F4F4F4" stroke="#E8E8E8"/>
<path d="M184.879 59L180.623 55.052V54.044H183.213C183.727 54.044 184.165 53.9693 184.529 53.82C184.893 53.6707 185.169 53.4467 185.355 53.148C185.551 52.8493 185.649 52.4807 185.649 52.042C185.649 51.6127 185.551 51.2487 185.355 50.95C185.169 50.642 184.893 50.404 184.529 50.236C184.165 50.068 183.727 49.984 183.213 49.984H180.623V49.13H183.213C183.839 49.13 184.408 49.2467 184.921 49.48C185.444 49.7133 185.859 50.0493 186.167 50.488C186.475 50.9173 186.629 51.4353 186.629 52.042C186.629 52.6393 186.489 53.1573 186.209 53.596C185.929 54.0347 185.533 54.3753 185.019 54.618C184.515 54.8513 183.913 54.968 183.213 54.968H181.855L186.237 59H184.879ZM180.623 52.476V51.622H187.805V52.476H180.623ZM180.623 49.914V49.06H187.805V49.914H180.623ZM190.774 59V51.454H188.688V50.642H189.472C189.845 50.642 190.139 50.5953 190.354 50.502C190.578 50.4087 190.736 50.25 190.83 50.026C190.923 49.7927 190.97 49.4707 190.97 49.06H191.726V59H190.774ZM197.189 59.224C196.405 59.224 195.724 59.014 195.145 58.594C194.567 58.174 194.119 57.5767 193.801 56.802C193.493 56.0273 193.339 55.108 193.339 54.044C193.339 52.98 193.493 52.0607 193.801 51.286C194.119 50.502 194.567 49.9 195.145 49.48C195.724 49.0507 196.405 48.836 197.189 48.836C197.983 48.836 198.669 49.0507 199.247 49.48C199.826 49.9 200.269 50.4973 200.577 51.272C200.895 52.0467 201.053 52.9707 201.053 54.044C201.053 55.108 200.895 56.0273 200.577 56.802C200.269 57.5767 199.826 58.174 199.247 58.594C198.669 59.014 197.983 59.224 197.189 59.224ZM197.189 58.286C198.095 58.286 198.799 57.9173 199.303 57.18C199.807 56.4333 200.059 55.388 200.059 54.044C200.059 53.1387 199.943 52.3687 199.709 51.734C199.485 51.0993 199.159 50.614 198.729 50.278C198.309 49.942 197.796 49.774 197.189 49.774C196.592 49.774 196.079 49.942 195.649 50.278C195.229 50.614 194.903 51.0993 194.669 51.734C194.445 52.3687 194.333 53.1387 194.333 54.044C194.333 55.388 194.585 56.4333 195.089 57.18C195.593 57.9173 196.293 58.286 197.189 58.286ZM205.803 59.224C205.019 59.224 204.338 59.014 203.759 58.594C203.181 58.174 202.733 57.5767 202.415 56.802C202.107 56.0273 201.953 55.108 201.953 54.044C201.953 52.98 202.107 52.0607 202.415 51.286C202.733 50.502 203.181 49.9 203.759 49.48C204.338 49.0507 205.019 48.836 205.803 48.836C206.597 48.836 207.283 49.0507 207.861 49.48C208.44 49.9 208.883 50.4973 209.191 51.272C209.509 52.0467 209.667 52.9707 209.667 54.044C209.667 55.108 209.509 56.0273 209.191 56.802C208.883 57.5767 208.44 58.174 207.861 58.594C207.283 59.014 206.597 59.224 205.803 59.224ZM205.803 58.286C206.709 58.286 207.413 57.9173 207.917 57.18C208.421 56.4333 208.673 55.388 208.673 54.044C208.673 53.1387 208.557 52.3687 208.323 51.734C208.099 51.0993 207.773 50.614 207.343 50.278C206.923 49.942 206.41 49.774 205.803 49.774C205.206 49.774 204.693 49.942 204.263 50.278C203.843 50.614 203.517 51.0993 203.283 51.734C203.059 52.3687 202.947 53.1387 202.947 54.044C202.947 55.388 203.199 56.4333 203.703 57.18C204.207 57.9173 204.907 58.286 205.803 58.286ZM214.417 59.224C213.633 59.224 212.952 59.014 212.373 58.594C211.794 58.174 211.346 57.5767 211.029 56.802C210.721 56.0273 210.567 55.108 210.567 54.044C210.567 52.98 210.721 52.0607 211.029 51.286C211.346 50.502 211.794 49.9 212.373 49.48C212.952 49.0507 213.633 48.836 214.417 48.836C215.21 48.836 215.896 49.0507 216.475 49.48C217.054 49.9 217.497 50.4973 217.805 51.272C218.122 52.0467 218.281 52.9707 218.281 54.044C218.281 55.108 218.122 56.0273 217.805 56.802C217.497 57.5767 217.054 58.174 216.475 58.594C215.896 59.014 215.21 59.224 214.417 59.224ZM214.417 58.286C215.322 58.286 216.027 57.9173 216.531 57.18C217.035 56.4333 217.287 55.388 217.287 54.044C217.287 53.1387 217.17 52.3687 216.937 51.734C216.713 51.0993 216.386 50.614 215.957 50.278C215.537 49.942 215.024 49.774 214.417 49.774C213.82 49.774 213.306 49.942 212.877 50.278C212.457 50.614 212.13 51.0993 211.897 51.734C211.673 52.3687 211.561 53.1387 211.561 54.044C211.561 55.388 211.813 56.4333 212.317 57.18C212.821 57.9173 213.521 58.286 214.417 58.286ZM226.419 59.224C225.542 59.224 224.772 59.0187 224.109 58.608C223.456 58.188 222.947 57.5907 222.583 56.816C222.228 56.0413 222.051 55.1173 222.051 54.044C222.051 52.9707 222.228 52.0467 222.583 51.272C222.947 50.488 223.456 49.886 224.109 49.466C224.772 49.046 225.542 48.836 226.419 48.836C227.576 48.836 228.486 49.144 229.149 49.76C229.812 50.376 230.241 51.202 230.437 52.238L229.429 52.308C229.289 51.5333 228.967 50.9173 228.463 50.46C227.968 50.0027 227.287 49.774 226.419 49.774C225.738 49.774 225.145 49.9467 224.641 50.292C224.137 50.628 223.745 51.118 223.465 51.762C223.185 52.3967 223.045 53.1573 223.045 54.044C223.045 54.9307 223.185 55.6913 223.465 56.326C223.745 56.9607 224.137 57.446 224.641 57.782C225.145 58.118 225.738 58.286 226.419 58.286C227.324 58.286 228.034 58.0387 228.547 57.544C229.07 57.0493 229.392 56.3773 229.513 55.528L230.521 55.598C230.409 56.326 230.176 56.9607 229.821 57.502C229.466 58.0433 229.004 58.468 228.435 58.776C227.866 59.0747 227.194 59.224 226.419 59.224ZM231.606 59V51.58H232.404L232.46 53.61L232.334 53.54C232.455 52.8773 232.675 52.3873 232.992 52.07C233.309 51.7433 233.748 51.58 234.308 51.58H234.952V52.476H234.28C233.907 52.476 233.589 52.56 233.328 52.728C233.067 52.8867 232.866 53.1153 232.726 53.414C232.595 53.7127 232.53 54.0673 232.53 54.478V59H231.606ZM238.511 58.258V51.566H239.379V58.258H238.511ZM235.599 55.346V54.492H242.291V55.346H235.599Z" fill="black"/>
<path d="M245.156 144.927C244.655 145.901 243.436 145.757 242.991 144.755C241.688 141.824 239.338 136.132 238.009 130.473C237.755 129.387 238.709 128.433 239.795 128.687C245.454 130.016 251.147 132.366 254.078 133.669C255.079 134.114 255.195 135.293 254.212 135.776C251.973 136.876 248.636 138.053 247.644 138.322C247.368 139.342 246.328 142.645 245.156 144.927Z" fill="#092F52" fill-opacity="0.5" stroke="#092F52" stroke-linejoin="round"/>
<defs>
<linearGradient id="paint0_linear_205_2392" x1="0.321289" y1="87.6178" x2="367.321" y2="87.6178" gradientUnits="userSpaceOnUse">
<stop stop-color="#E6E6E6" stop-opacity="0"/>
<stop offset="0.25" stop-color="#E6E6E6"/>
<stop offset="0.375" stop-color="#E6E6E6"/>
<stop offset="0.5" stop-color="#E6E6E6"/>
<stop offset="1" stop-color="#E6E6E6" stop-opacity="0"/>
</linearGradient>
</defs>
</svg>
