<svg width="35" height="32" viewBox="0 0 35 32" fill="none" xmlns="http://www.w3.org/2000/svg">
<g clip-path="url(#clip0_285_82)">
<path d="M12.3375 23.2019C16.4419 23.2019 20.5318 23.2239 24.629 23.1873C25.0875 23.1663 25.5453 23.2423 25.9731 23.4103C26.4009 23.5783 26.7892 23.8346 27.1133 24.163C28.8348 25.8119 30.6721 27.3339 32.3597 29.0194C32.7919 29.4512 33.1613 30.3903 32.9826 30.8781C32.804 31.366 31.9179 31.9099 31.3264 31.9294C28.3133 32.0343 25.2905 32.0221 22.2798 31.9294C21.6714 31.9123 20.9688 31.5343 20.4908 31.1123C17.8205 28.7658 15.2275 26.3314 12.5524 23.9898C12.0471 23.5674 11.4207 23.3202 10.7658 23.2849C7.86856 23.2117 4.97134 23.2409 2.07412 23.2605C1.20737 23.2605 0.463751 23.1117 0.106427 22.2018C-0.250897 21.292 0.246459 20.7383 0.845217 20.2017C7.84522 13.8451 14.8372 7.48121 21.8211 1.10999C22.2035 0.730681 22.6599 0.435912 23.1611 0.244423C23.6624 0.0529345 24.1976 -0.0310833 24.7328 -0.00228936C27.3451 0.0757654 29.9623 0.0416132 32.577 0.017221C33.5041 0.017221 34.395 0.0440541 34.7862 1.07096C35.1628 2.06128 34.5182 2.65889 33.8663 3.24917C27.0787 9.40899 20.2896 15.5704 13.4988 21.7335C13.0594 22.1311 12.6321 22.5385 12.1975 22.9409L12.3375 23.2019Z" fill="black"/>
</g>
<defs>
<clipPath id="clip0_285_82">
<rect width="34.9091" height="32" fill="white"/>
</clipPath>
</defs>
</svg>
