<svg width="35" height="35" viewBox="0 0 35 35" fill="none" xmlns="http://www.w3.org/2000/svg">
<path fill-rule="evenodd" clip-rule="evenodd" d="M19.7504 0.91145L24.3699 5.47806C24.9875 6.08854 25.2992 6.89572 25.3038 7.70414C25.3084 8.50937 25.0077 9.31649 24.4005 9.93059C22.2584 12.0975 19.845 14.5766 17.5577 16.7491L15.6011 14.7932L17.7024 12.693C17.7535 12.6759 17.8012 12.6471 17.8412 12.6067L17.8466 12.5958L17.8494 12.5983L22.4161 7.97887C22.4882 7.90597 22.5239 7.81018 22.5234 7.71501C22.523 7.62291 22.4877 7.53124 22.4181 7.4625L17.7905 2.88777L17.7795 2.88233L17.7819 2.8797C17.7102 2.81302 17.6182 2.77994 17.5266 2.78048C17.4345 2.781 17.3428 2.81613 17.2741 2.8856L17.2687 2.89652L17.2659 2.89393L12.6993 7.5134C12.6272 7.5863 12.5915 7.68205 12.592 7.77726C12.5924 7.8693 12.6277 7.96104 12.6972 8.02977L16.4381 11.7278L14.4694 13.6955L10.7455 10.0142C10.1279 9.40373 9.81617 8.59657 9.81157 7.78813C9.807 6.98297 10.1077 6.17578 10.7149 5.56168L15.2896 0.933971L15.295 0.923059L15.2979 0.925706C15.9074 0.313603 16.7109 0.00463255 17.5157 5.4415e-05C18.3208 -0.0046539 19.128 0.29618 19.7421 0.903228L19.753 0.908651L19.7504 0.91145Z" fill="#DBB25A"/>
<path fill-rule="evenodd" clip-rule="evenodd" d="M34.0873 19.7669L29.5159 24.3816C28.9047 24.9985 28.0972 25.3094 27.2888 25.3132C26.4836 25.3169 25.6768 25.0153 25.0633 24.4075C22.8987 22.2631 20.4221 19.8471 18.252 17.5575L20.2099 15.603L22.3079 17.7064C22.325 17.7576 22.3537 17.8053 22.3941 17.8454L22.405 17.8508L22.4025 17.8536L27.0171 22.4251C27.0899 22.4973 27.1857 22.5331 27.2809 22.5327C27.3729 22.5323 27.4647 22.4972 27.5335 22.4277L32.1131 17.8049L32.1185 17.7939L32.1212 17.7964C32.1879 17.7247 32.2211 17.6327 32.2207 17.5411C32.2202 17.449 32.1852 17.3573 32.1158 17.2886L32.1049 17.2831L32.1075 17.2803L27.4928 12.7088C27.42 12.6367 27.3243 12.6008 27.2291 12.6013C27.137 12.6017 27.0452 12.6368 26.9764 12.7062L23.2744 16.4432L21.3088 14.4724L24.9941 10.7524C25.6052 10.1355 26.4127 9.82457 27.2211 9.82083C28.0263 9.8171 28.8331 10.1187 29.4466 10.7265L34.0695 15.3061L34.0804 15.3115L34.0778 15.3144C34.6892 15.9245 34.9974 16.7283 35.0011 17.5331C35.0049 18.3382 34.7033 19.1451 34.0956 19.7586L34.0901 19.7695L34.0873 19.7669Z" fill="#DBB25A"/>
<path fill-rule="evenodd" clip-rule="evenodd" d="M15.4305 34.1124L10.762 29.5958C10.1379 28.9921 9.81744 28.1883 9.80414 27.38C9.79087 26.5748 10.0829 25.7645 10.6834 25.1439C12.802 22.954 15.1885 20.449 17.4522 18.252L19.4298 20.1866L17.3513 22.3094C17.3004 22.327 17.253 22.3563 17.2135 22.3972L17.2081 22.4082L17.2053 22.4057L12.6887 27.0741C12.6175 27.1478 12.5827 27.2439 12.5843 27.3391C12.5858 27.4312 12.622 27.5225 12.6922 27.5905L17.369 32.115L17.38 32.1204L17.3776 32.123C17.45 32.1889 17.5424 32.221 17.6341 32.2195C17.7261 32.2179 17.8174 32.1818 17.8853 32.1116L17.8906 32.1007L17.8934 32.1032L22.41 27.4348C22.4813 27.3611 22.516 27.265 22.5144 27.1698C22.5129 27.0777 22.4767 26.9864 22.4065 26.9184L18.626 23.2609L20.5733 21.2721L24.3367 24.913C24.9608 25.5168 25.2813 26.3206 25.2946 27.1289C25.3078 27.934 25.0158 28.7443 24.4154 29.365L19.8908 34.0417L19.8855 34.0527L19.8826 34.0501C19.2797 34.6687 18.4796 34.9864 17.6749 34.9996C16.8699 35.013 16.0595 34.7209 15.4389 34.1205L15.4279 34.1152L15.4305 34.1124Z" fill="#DBB25A"/>
<path fill-rule="evenodd" clip-rule="evenodd" d="M0.910009 15.262L5.47358 10.6396C6.08365 10.0216 6.89061 9.70929 7.69906 9.70417C8.50427 9.69907 9.31158 9.99925 9.92609 10.606C12.0944 12.7467 14.5751 15.1584 16.7491 17.4443L14.7945 19.4023L12.6929 17.3023C12.6758 17.2513 12.647 17.2035 12.6065 17.1636L12.5956 17.1581L12.5981 17.1553L7.97567 12.5917C7.90273 12.5197 7.80691 12.484 7.71175 12.4846C7.61964 12.4852 7.52799 12.5204 7.4593 12.59L2.88759 17.2207L2.88216 17.2316L2.87952 17.2292C2.81291 17.301 2.77988 17.393 2.78047 17.4847C2.78112 17.5767 2.81625 17.6684 2.88577 17.737L2.89668 17.7424L2.8941 17.7452L7.51658 22.3088C7.58953 22.3808 7.68528 22.4165 7.78048 22.4159C7.87255 22.4153 7.96424 22.3801 8.03293 22.3105L11.7285 18.5673L13.6975 20.5347L10.0186 24.261C9.40859 24.8789 8.60162 25.1912 7.79318 25.1964C6.98801 25.2015 6.18066 24.9013 5.56614 24.2945L0.935439 19.7228L0.924527 19.7174L0.927152 19.7145C0.314659 19.1054 0.00516599 18.3021 6.7122e-05 17.4973C-0.00516193 16.6922 0.295129 15.8849 0.901785 15.2704L0.907212 15.2594L0.910009 15.262Z" fill="#DBB25A"/>
</svg>
