<svg width="39" height="35" viewBox="0 0 39 35" fill="none" xmlns="http://www.w3.org/2000/svg">
<g clip-path="url(#clip0_261_6398)">
<path d="M13.4935 25.3769C17.9827 25.3769 22.456 25.4009 26.9373 25.3609C27.4388 25.338 27.9395 25.421 28.4074 25.6048C28.8753 25.7886 29.3001 26.069 29.6546 26.4281C31.5374 28.2316 33.5469 29.8963 35.3928 31.7398C35.8655 32.212 36.2695 33.2392 36.0741 33.7728C35.8787 34.3063 34.9095 34.9013 34.2626 34.9226C30.967 35.0373 27.6608 35.024 24.3679 34.9226C23.7024 34.904 22.934 34.4904 22.4111 34.0289C19.4905 31.4624 16.6544 28.7998 13.7285 26.2387C13.1758 25.7766 12.4907 25.5063 11.7744 25.4676C8.60557 25.3876 5.43674 25.4196 2.2679 25.441C1.31989 25.441 0.506556 25.2782 0.115733 24.2831C-0.27509 23.288 0.268893 22.6824 0.923785 22.0954C8.58004 15.1429 16.2275 8.1824 23.8661 1.21388C24.2844 0.799013 24.7836 0.476609 25.3318 0.267168C25.8801 0.0577274 26.4655 -0.0341671 27.0508 -0.00267374C29.9081 0.0826986 32.7706 0.0453446 35.6304 0.0186658C36.6445 0.0186658 37.6189 0.0480144 38.0467 1.17119C38.4586 2.25436 37.7536 2.90799 37.0406 3.55362C29.6167 10.2909 22.1911 17.03 14.7637 23.7709C14.2831 24.2057 13.8157 24.6513 13.3403 25.0915L13.4935 25.3769Z" fill="#F3F3F3"/>
</g>
<defs>
<clipPath id="clip0_261_6398">
<rect width="38.1818" height="35" fill="white"/>
</clipPath>
</defs>
</svg>
