<svg width="35" height="35" viewBox="0 0 35 35" fill="none" xmlns="http://www.w3.org/2000/svg">
<path fill-rule="evenodd" clip-rule="evenodd" d="M19.7504 0.91145L24.3699 5.47806C24.9875 6.08854 25.2992 6.89572 25.3038 7.70414C25.3084 8.50937 25.0077 9.31649 24.4005 9.93059C22.2584 12.0975 19.845 14.5766 17.5577 16.7491L15.6011 14.7932L17.7024 12.693C17.7535 12.6759 17.8012 12.6471 17.8412 12.6067L17.8466 12.5958L17.8494 12.5983L22.4161 7.97887C22.4882 7.90597 22.5239 7.81018 22.5234 7.71501C22.523 7.62291 22.4877 7.53124 22.4181 7.4625L17.7905 2.88777L17.7795 2.88233L17.7819 2.8797C17.7102 2.81302 17.6182 2.77994 17.5266 2.78048C17.4345 2.781 17.3428 2.81613 17.2741 2.8856L17.2687 2.89652L17.2659 2.89393L12.6993 7.5134C12.6272 7.5863 12.5915 7.68205 12.592 7.77726C12.5924 7.8693 12.6277 7.96104 12.6972 8.02977L16.4381 11.7278L14.4694 13.6955L10.7455 10.0142C10.1279 9.40373 9.81617 8.59657 9.81157 7.78813C9.807 6.98297 10.1077 6.17578 10.7149 5.56168L15.2896 0.933971L15.295 0.923059L15.2979 0.925706C15.9074 0.313603 16.7109 0.00463255 17.5157 5.4415e-05C18.3208 -0.0046539 19.128 0.29618 19.7421 0.903228L19.753 0.908651L19.7504 0.91145Z" fill="white"/>
<path fill-rule="evenodd" clip-rule="evenodd" d="M34.0873 19.767L29.5159 24.3816C28.9047 24.9986 28.0972 25.3095 27.2888 25.3132C26.4836 25.317 25.6768 25.0154 25.0633 24.4076C22.8987 22.2632 20.4221 19.8472 18.252 17.5576L20.2099 15.603L22.3079 17.7065C22.325 17.7577 22.3537 17.8054 22.3941 17.8455L22.405 17.8509L22.4025 17.8537L27.0171 22.4252C27.0899 22.4974 27.1857 22.5332 27.2809 22.5328C27.3729 22.5324 27.4647 22.4973 27.5335 22.4278L32.1131 17.805L32.1185 17.794L32.1212 17.7965C32.1879 17.7248 32.2211 17.6328 32.2207 17.5412C32.2202 17.4491 32.1852 17.3574 32.1158 17.2886L32.1049 17.2832L32.1075 17.2804L27.4928 12.7089C27.42 12.6368 27.3243 12.6009 27.2291 12.6014C27.137 12.6018 27.0452 12.6369 26.9764 12.7063L23.2744 16.4433L21.3088 14.4725L24.9941 10.7525C25.6052 10.1356 26.4127 9.82466 27.2211 9.82093C28.0263 9.8172 28.8331 10.1188 29.4466 10.7266L34.0695 15.3062L34.0804 15.3116L34.0778 15.3145C34.6892 15.9246 34.9974 16.7284 35.0011 17.5332C35.0049 18.3383 34.7033 19.1452 34.0956 19.7587L34.0901 19.7696L34.0873 19.767Z" fill="white"/>
<path fill-rule="evenodd" clip-rule="evenodd" d="M15.4305 34.1123L10.762 29.5958C10.1379 28.992 9.81744 28.1883 9.80414 27.3799C9.79087 26.5748 10.0829 25.7645 10.6834 25.1439C12.802 22.954 15.1885 20.449 17.4522 18.2519L19.4298 20.1866L17.3513 22.3093C17.3004 22.327 17.253 22.3563 17.2135 22.3972L17.2081 22.4082L17.2053 22.4056L12.6887 27.0741C12.6175 27.1477 12.5827 27.2439 12.5843 27.3391C12.5858 27.4311 12.622 27.5224 12.6922 27.5904L17.369 32.115L17.38 32.1203L17.3776 32.123C17.45 32.1889 17.5424 32.2209 17.6341 32.2194C17.7261 32.2179 17.8174 32.1818 17.8853 32.1116L17.8906 32.1006L17.8934 32.1032L22.41 27.4347C22.4813 27.361 22.516 27.2649 22.5144 27.1697C22.5129 27.0777 22.4767 26.9863 22.4065 26.9184L18.626 23.2609L20.5733 21.272L24.3367 24.913C24.9608 25.5167 25.2813 26.3205 25.2946 27.1289C25.3078 27.9339 25.0158 28.7443 24.4154 29.3649L19.8908 34.0417L19.8855 34.0527L19.8826 34.0501C19.2797 34.6687 18.4796 34.9863 17.6749 34.9996C16.8699 35.0129 16.0595 34.7208 15.4389 34.1204L15.4279 34.1151L15.4305 34.1123Z" fill="white"/>
<path fill-rule="evenodd" clip-rule="evenodd" d="M0.910009 15.2618L5.47358 10.6394C6.08365 10.0214 6.89061 9.70908 7.69906 9.70396C8.50427 9.69886 9.31158 9.99904 9.92609 10.6058C12.0944 12.7465 14.5751 15.1582 16.7491 17.4441L14.7945 19.402L12.6929 17.3021C12.6758 17.251 12.647 17.2033 12.6065 17.1634L12.5956 17.1579L12.5981 17.1551L7.97567 12.5915C7.90273 12.5195 7.80691 12.4838 7.71175 12.4844C7.61964 12.485 7.52799 12.5202 7.4593 12.5898L2.88759 17.2205L2.88216 17.2314L2.87952 17.229C2.81291 17.3008 2.77988 17.3928 2.78047 17.4845C2.78112 17.5765 2.81625 17.6682 2.88577 17.7368L2.89668 17.7422L2.8941 17.745L7.51658 22.3086C7.58953 22.3806 7.68528 22.4163 7.78048 22.4157C7.87255 22.4151 7.96424 22.3799 8.03293 22.3103L11.7285 18.5671L13.6975 20.5345L10.0186 24.2608C9.40859 24.8787 8.60162 25.191 7.79318 25.1961C6.98801 25.2012 6.18066 24.9011 5.56614 24.2943L0.935439 19.7226L0.924527 19.7172L0.927152 19.7143C0.314659 19.1052 0.00516599 18.3019 6.7122e-05 17.4971C-0.00516193 16.692 0.295129 15.8847 0.901785 15.2702L0.907212 15.2592L0.910009 15.2618Z" fill="white"/>
</svg>
