<svg width="170" height="171" viewBox="0 0 170 171" fill="none" xmlns="http://www.w3.org/2000/svg">
<path d="M96.1984 39.2665C99.3555 36.1406 102.45 32.9335 105.689 29.8514C110.477 25.2751 115.404 20.8364 120.155 16.2163C122.706 13.7156 125.407 13.8657 128.095 15.5224C129.624 16.5902 130.998 17.8652 132.177 19.3109C136.297 23.8622 136.353 25.7252 132.358 30.2015C130.233 32.5834 127.876 34.7465 125.619 37.0096C117.911 44.7243 110.259 52.5014 102.488 60.1411C92.2598 70.1814 79.5125 70.2564 69.3534 60.2786C59.6945 50.7822 50.2356 41.0858 40.5954 31.5769C37.9384 28.9574 35.5503 25.8003 37.5571 22.5118C39.6597 19.2206 42.5893 16.5388 46.0532 14.7347C49.1416 13.1342 51.761 15.7349 54.1805 18.2044C61.1386 25.3751 68.4344 32.2145 76.9806 40.5293C76.9806 34.3964 76.9806 30.0139 76.9806 25.6315C76.9806 19.2422 76.8555 12.8529 77.0431 6.46987C77.1931 1.39346 78.2934 0.418172 83.101 0.0305641C83.895 -0.0382051 84.6952 0.0305641 85.4954 0.0305641C93.9415 -0.0444568 94.673 0.605738 94.723 8.93306C94.7793 18.7545 94.723 28.576 94.723 38.3975L96.1984 39.2665Z" fill="#E7EBEE"/>
<path d="M25.375 37.4235C26.3423 37.4951 27.3394 38.1683 28.8145 39.5914C29.54 40.2914 30.3547 41.1446 31.3193 42.149C32.2812 43.1506 33.3861 44.2962 34.6816 45.569C43.04 53.7732 51.3239 62.0587 59.5322 70.4254L59.5332 70.4264C64.7876 75.7364 67.3382 81.1225 67.3057 86.4655C67.2731 91.8098 64.6553 97.2198 59.3457 102.576C51.8396 110.148 44.3418 117.726 36.7363 125.191L33.4707 128.383C30.7878 130.994 27.6543 133.09 24.2109 135.79C21.7493 133.429 19.6138 131.566 17.7217 129.514L17.3311 129.084C15.6679 127.218 14.9514 125.889 14.9795 124.635C15.0077 123.379 15.787 122.035 17.5938 120.154C23.4934 114.011 29.6098 108.099 35.6172 102.029L35.6182 102.03C37.0752 100.56 38.3911 98.915 40.6768 96.3258L41.4102 95.4948H11.959C9.14618 95.4838 6.99572 95.3958 5.35352 95.1051C3.7136 94.8148 2.645 94.3333 1.93457 93.5885C1.2254 92.845 0.806808 91.7687 0.619141 90.1422C0.431055 88.5119 0.481642 86.393 0.658203 83.6227V83.6217C0.742268 82.2503 0.858661 81.188 1.06152 80.3571C1.26337 79.5303 1.54317 78.97 1.92969 78.5709C2.31364 78.1745 2.84588 77.8923 3.6377 77.7037C4.43718 77.5134 5.46997 77.4246 6.82227 77.3951C14.7987 77.2202 22.7796 77.3457 30.7803 77.3395H40.8779L40.2686 76.5377C39.4376 75.4422 38.8136 74.5443 38.2363 73.7516C37.6636 72.9652 37.1403 72.2865 36.5381 71.6744C31.4588 66.5074 26.3086 61.4705 21.249 56.3151L19.0859 54.0983C17.2119 52.1526 15.7202 49.8977 14.2119 47.944C14.3994 47.4582 14.5239 47.0739 14.6221 46.7965C14.7448 46.4496 14.8203 46.3053 14.9082 46.2125L14.9102 46.2096C17.9147 42.9919 20.0273 40.7363 21.6787 39.3024C23.3442 37.8562 24.4256 37.3532 25.375 37.4235Z" fill="white" stroke="#DBB25A"/>
<path d="M73.9548 130.486L54.7995 149.485C53.099 151.173 51.3798 152.842 49.7043 154.561C47.2036 157.131 44.7029 157.287 42.1397 154.617C41.5896 154.042 41.0144 153.486 40.4392 152.929C34.0124 146.678 33.9999 146.165 40.4767 139.669C50.2607 129.867 60.5636 120.533 69.6911 110.155C77.0932 101.74 91.5347 102.028 99.0743 109.417C109.552 119.645 119.909 129.998 130.145 140.476C134.115 144.521 133.997 146.59 130.333 150.685C129.083 152.073 127.695 153.317 126.388 154.642C123.825 157.243 121.312 157.193 118.817 154.555C113.91 149.36 109.158 144.014 104.038 139.044C101.012 136.112 97.3989 133.78 93.9229 131.08C91.7285 136.419 93.4665 143.008 93.1477 149.366C92.8288 155.724 93.0789 162.026 93.0789 167.683C91.766 168.653 91.3722 169.184 90.922 169.24C76.0179 171.116 75.4365 170.584 75.4365 155.93V131.248L73.9548 130.486Z" fill="#E7EBEE"/>
<path d="M127.883 76.8269H167.794C168.676 77.9335 169.232 78.3148 169.288 78.7587C171.07 92.0499 170.357 92.8564 157.047 92.8501C149.589 92.8501 142.131 92.8501 134.672 92.8501C132.922 92.8501 131.172 93.1315 128.421 93.369C130.49 95.6384 131.828 97.2138 133.272 98.6705C139.274 104.722 145.35 110.699 151.321 116.801C156.816 122.427 156.729 124.684 151.065 129.892C146.782 133.83 144.644 133.905 140.255 129.579C129.627 119.107 118.999 108.623 108.646 97.914C102.107 91.1684 102.095 78.4899 108.646 71.7443C119.018 61.0288 129.627 50.5446 140.249 40.0729C144.625 35.7405 146.77 35.8155 151.065 39.7416C155.985 44.2429 156.66 46.7123 152.684 51.1823C147.057 57.5403 140.805 63.3607 134.804 69.4436C132.791 71.4754 130.903 73.5885 127.883 76.8269Z" fill="#E7EBEE"/>
</svg>
