<svg width="170" height="171" viewBox="0 0 170 171" fill="none" xmlns="http://www.w3.org/2000/svg">
<path d="M83.1445 0.52832C83.9131 0.461796 84.6341 0.530257 85.4951 0.530273H85.5C87.6142 0.511496 89.2075 0.539528 90.4219 0.713867C91.6346 0.88801 92.399 1.19923 92.9121 1.69141C93.4234 2.18192 93.7557 2.91928 93.9551 4.10156C94.1051 4.99092 94.1738 6.0931 94.2041 7.46777L94.2227 8.93652C94.2789 18.7561 94.2227 28.5721 94.2227 38.3975V38.6836L94.4697 38.8281L95.9443 39.6973L96.2764 39.8926L96.5498 39.6221C99.7187 36.4846 102.799 33.2924 106.033 30.2139L106.034 30.2129C110.8 25.6585 115.759 21.1888 120.504 16.5752L120.505 16.5732C121.71 15.392 122.912 14.8703 124.099 14.8096C125.292 14.7485 126.536 15.1515 127.822 15.9424C129.308 16.9818 130.644 18.2215 131.79 19.627L131.798 19.6367L131.807 19.6465C133.875 21.9317 134.785 23.4081 134.811 24.7939C134.836 26.1725 133.988 27.6239 131.985 29.8682C129.872 32.2369 127.543 34.3716 125.265 36.6562C117.553 44.3745 109.906 52.1466 102.137 59.7842C97.0974 64.731 91.4737 67.1909 85.8926 67.2168C80.4865 67.2418 75.0574 64.9835 70.1748 60.375L69.7041 59.9219C64.877 55.176 60.0994 50.3799 55.3223 45.5801C50.5456 40.7807 45.7683 35.9771 40.9463 31.2207C39.6264 29.9194 38.4224 28.5301 37.7842 27.0928C37.1597 25.6863 37.0829 24.2551 37.9785 22.7812C40.0337 19.5641 42.8966 16.9414 46.2822 15.1777L46.2832 15.1787C47.6383 14.4765 48.8827 14.6789 50.1221 15.3789C51.3916 16.0961 52.6015 17.3067 53.8213 18.5518V18.5527C60.7861 25.7303 68.0946 32.5815 76.6318 40.8877L77.4805 41.7139V25.6318C77.4805 19.2294 77.3557 12.8578 77.543 6.48438C77.6183 3.93559 77.9393 2.61185 78.6855 1.83887C79.4334 1.06456 80.7212 0.724437 83.1416 0.529297L83.1445 0.52832Z" fill="white" stroke="#DBB25A"/>
<path d="M40.302 95.9947H11.9566C0.703469 95.951 -0.546876 94.6756 0.15957 83.5913C0.497164 78.0835 1.36616 77.0145 6.81142 76.8957C14.7949 76.7206 22.7909 76.8457 30.7806 76.8394H39.8706C38.2014 74.6388 37.3324 73.1946 36.1821 72.0256C30.393 66.1364 24.4726 60.3786 18.7272 54.4457C16.7579 52.4014 15.1763 49.9819 13.6446 48.0251C14.1322 46.8248 14.2072 46.2246 14.5448 45.8683C26.5294 33.0335 24.7102 35.0715 35.0318 45.2119C43.3924 53.4183 51.6781 61.706 59.8887 70.075C70.5167 80.8155 70.4354 92.0999 59.7011 102.928C51.1238 111.58 42.5526 120.245 33.8189 128.741C31.0244 131.461 27.711 133.655 24.1788 136.45C21.4405 133.805 19.0398 131.748 16.958 129.417C13.6133 125.666 13.6008 123.59 17.2331 119.808C23.1347 113.662 29.2677 107.736 35.2631 101.678C36.7072 100.221 37.9951 98.608 40.302 95.9947Z" fill="#E7EBEE"/>
<path d="M73.9548 130.486L54.7995 149.485C53.099 151.173 51.3798 152.842 49.7043 154.561C47.2036 157.131 44.7029 157.287 42.1397 154.617C41.5896 154.042 41.0144 153.486 40.4392 152.929C34.0124 146.678 33.9999 146.165 40.4767 139.669C50.2607 129.867 60.5636 120.533 69.6911 110.155C77.0932 101.74 91.5347 102.028 99.0743 109.417C109.552 119.645 119.909 129.998 130.145 140.476C134.115 144.521 133.997 146.59 130.333 150.685C129.083 152.073 127.695 153.317 126.388 154.642C123.825 157.243 121.312 157.193 118.817 154.555C113.91 149.36 109.158 144.014 104.038 139.044C101.012 136.112 97.3989 133.78 93.9229 131.08C91.7285 136.419 93.4665 143.008 93.1477 149.366C92.8288 155.724 93.0789 162.026 93.0789 167.683C91.766 168.653 91.3722 169.184 90.922 169.24C76.0179 171.116 75.4365 170.584 75.4365 155.93V131.248L73.9548 130.486Z" fill="#E7EBEE"/>
<path d="M127.883 76.8269H167.794C168.676 77.9335 169.232 78.3148 169.288 78.7587C171.07 92.0499 170.357 92.8564 157.047 92.8501C149.589 92.8501 142.131 92.8501 134.672 92.8501C132.922 92.8501 131.172 93.1315 128.421 93.369C130.49 95.6384 131.828 97.2138 133.272 98.6705C139.274 104.722 145.35 110.699 151.321 116.801C156.816 122.427 156.729 124.684 151.065 129.892C146.782 133.83 144.644 133.905 140.255 129.579C129.627 119.107 118.999 108.623 108.646 97.914C102.107 91.1684 102.095 78.4899 108.646 71.7443C119.018 61.0288 129.627 50.5446 140.249 40.0729C144.625 35.7405 146.77 35.8155 151.065 39.7416C155.985 44.2429 156.66 46.7123 152.684 51.1823C147.057 57.5403 140.805 63.3607 134.804 69.4436C132.791 71.4754 130.903 73.5885 127.883 76.8269Z" fill="#E7EBEE"/>
</svg>
