<svg width="170" height="171" viewBox="0 0 170 171" fill="none" xmlns="http://www.w3.org/2000/svg">
<path d="M96.1984 39.2665C99.3555 36.1406 102.45 32.9335 105.689 29.8514C110.477 25.2751 115.404 20.8364 120.155 16.2163C122.706 13.7156 125.407 13.8657 128.095 15.5224C129.624 16.5902 130.998 17.8652 132.177 19.3109C136.297 23.8622 136.353 25.7252 132.358 30.2015C130.233 32.5834 127.876 34.7465 125.619 37.0096C117.911 44.7243 110.259 52.5014 102.488 60.1411C92.2598 70.1814 79.5125 70.2564 69.3534 60.2786C59.6945 50.7822 50.2356 41.0858 40.5954 31.5769C37.9384 28.9574 35.5503 25.8003 37.5571 22.5118C39.6597 19.2206 42.5893 16.5388 46.0532 14.7347C49.1416 13.1342 51.761 15.7349 54.1805 18.2044C61.1386 25.3751 68.4344 32.2145 76.9806 40.5293C76.9806 34.3964 76.9806 30.0139 76.9806 25.6315C76.9806 19.2422 76.8555 12.8529 77.0431 6.46987C77.1931 1.39346 78.2934 0.418172 83.101 0.0305641C83.895 -0.0382051 84.6952 0.0305641 85.4954 0.0305641C93.9415 -0.0444568 94.673 0.605738 94.723 8.93306C94.7793 18.7545 94.723 28.576 94.723 38.3975L96.1984 39.2665Z" fill="#E7EBEE"/>
<path d="M40.302 95.9947H11.9566C0.703469 95.951 -0.546876 94.6756 0.15957 83.5913C0.497164 78.0835 1.36616 77.0145 6.81142 76.8957C14.7949 76.7206 22.7909 76.8457 30.7806 76.8394H39.8706C38.2014 74.6388 37.3324 73.1946 36.1821 72.0256C30.393 66.1364 24.4726 60.3786 18.7272 54.4457C16.7579 52.4014 15.1763 49.9819 13.6446 48.0251C14.1322 46.8248 14.2072 46.2246 14.5448 45.8683C26.5294 33.0335 24.7102 35.0715 35.0318 45.2119C43.3924 53.4183 51.6781 61.706 59.8887 70.075C70.5167 80.8155 70.4354 92.0999 59.7011 102.928C51.1238 111.58 42.5526 120.245 33.8189 128.741C31.0244 131.461 27.711 133.655 24.1788 136.45C21.4405 133.805 19.0398 131.748 16.958 129.417C13.6133 125.666 13.6008 123.59 17.2331 119.808C23.1347 113.662 29.2677 107.736 35.2631 101.678C36.7072 100.221 37.9951 98.608 40.302 95.9947Z" fill="#E7EBEE"/>
<path d="M73.9548 130.486L54.7995 149.485C53.099 151.173 51.3798 152.842 49.7043 154.561C47.2036 157.131 44.7029 157.287 42.1397 154.617C41.5896 154.042 41.0144 153.486 40.4392 152.929C34.0124 146.678 33.9999 146.165 40.4767 139.669C50.2607 129.867 60.5636 120.533 69.6911 110.155C77.0932 101.74 91.5347 102.028 99.0743 109.417C109.552 119.645 119.909 129.998 130.145 140.476C134.115 144.521 133.997 146.59 130.333 150.685C129.083 152.073 127.695 153.317 126.388 154.642C123.825 157.243 121.312 157.193 118.817 154.555C113.91 149.36 109.158 144.014 104.038 139.044C101.012 136.112 97.3989 133.78 93.9229 131.08C91.7285 136.419 93.4665 143.008 93.1477 149.366C92.8288 155.724 93.0789 162.026 93.0789 167.683C91.766 168.653 91.3722 169.184 90.922 169.24C76.0179 171.116 75.4365 170.584 75.4365 155.93V131.248L73.9548 130.486Z" fill="#E7EBEE"/>
<path d="M145.697 37.3105C147.101 37.2828 148.579 38.1465 150.728 40.1104C153.193 42.366 154.461 44.0048 154.717 45.5547C154.965 47.057 154.277 48.6383 152.311 50.8496L152.31 50.8506C147.396 56.4025 142.016 61.5319 136.714 66.8164L134.448 69.0918C132.428 71.1306 130.528 73.2581 127.518 76.4863L126.733 77.3271H167.559C167.943 77.7938 168.263 78.1321 168.477 78.373C168.747 78.678 168.786 78.7749 168.792 78.8213L168.793 78.8252C169.239 82.1535 169.523 84.6603 169.499 86.5625C169.475 88.4685 169.142 89.6671 168.45 90.4629C167.759 91.258 166.624 91.7488 164.753 92.0254C162.885 92.3015 160.381 92.3522 157.048 92.3506H134.673C132.895 92.3506 131.081 92.6377 128.378 92.8711L127.369 92.958L128.052 93.7061C130.105 95.9581 131.464 97.5565 132.917 99.0225C138.926 105.081 144.993 111.048 150.963 117.149C152.329 118.548 153.325 119.714 153.972 120.752C154.616 121.785 154.897 122.662 154.878 123.492C154.859 124.322 154.54 125.173 153.856 126.154C153.169 127.14 152.135 128.229 150.727 129.523C148.584 131.494 147.111 132.361 145.709 132.335C144.306 132.309 142.8 131.385 140.606 129.223C130.642 119.405 120.682 109.581 110.949 99.5713L109.006 97.5664C105.843 94.3042 104.239 89.5816 104.237 84.8291C104.236 80.0767 105.837 75.3547 109.005 72.0928L109.006 72.0918C119.373 61.3812 129.978 50.9006 140.6 40.4287H140.601C142.788 38.2636 144.292 37.3383 145.697 37.3105Z" fill="white" stroke="#DBB25A"/>
</svg>
