<svg width="170" height="171" viewBox="0 0 170 171" fill="none" xmlns="http://www.w3.org/2000/svg">
<path d="M96.1984 39.2665C99.3555 36.1406 102.45 32.9335 105.689 29.8514C110.477 25.2751 115.404 20.8364 120.155 16.2163C122.706 13.7156 125.407 13.8657 128.095 15.5224C129.624 16.5902 130.998 17.8652 132.177 19.3109C136.297 23.8622 136.353 25.7252 132.358 30.2015C130.233 32.5834 127.876 34.7465 125.619 37.0096C117.911 44.7243 110.259 52.5014 102.488 60.1411C92.2598 70.1814 79.5125 70.2564 69.3534 60.2786C59.6945 50.7822 50.2356 41.0858 40.5954 31.5769C37.9384 28.9574 35.5503 25.8003 37.5571 22.5118C39.6597 19.2206 42.5893 16.5388 46.0532 14.7347C49.1416 13.1342 51.761 15.7349 54.1805 18.2044C61.1386 25.3751 68.4344 32.2145 76.9806 40.5293C76.9806 34.3964 76.9806 30.0139 76.9806 25.6315C76.9806 19.2422 76.8555 12.8529 77.0431 6.46987C77.1931 1.39346 78.2934 0.418172 83.101 0.0305641C83.895 -0.0382051 84.6952 0.0305641 85.4954 0.0305641C93.9415 -0.0444568 94.673 0.605738 94.723 8.93306C94.7793 18.7545 94.723 28.576 94.723 38.3975L96.1984 39.2665Z" fill="#E7EBEE"/>
<path d="M40.302 95.9947H11.9566C0.703469 95.951 -0.546876 94.6756 0.15957 83.5913C0.497164 78.0835 1.36616 77.0145 6.81142 76.8957C14.7949 76.7206 22.7909 76.8457 30.7806 76.8394H39.8706C38.2014 74.6388 37.3324 73.1946 36.1821 72.0256C30.393 66.1364 24.4726 60.3786 18.7272 54.4457C16.7579 52.4014 15.1763 49.9819 13.6446 48.0251C14.1322 46.8248 14.2072 46.2246 14.5448 45.8683C26.5294 33.0335 24.7102 35.0715 35.0318 45.2119C43.3924 53.4183 51.6781 61.706 59.8887 70.075C70.5167 80.8155 70.4354 92.0999 59.7011 102.928C51.1238 111.58 42.5526 120.245 33.8189 128.741C31.0244 131.461 27.711 133.655 24.1788 136.45C21.4405 133.805 19.0398 131.748 16.958 129.417C13.6133 125.666 13.6008 123.59 17.2331 119.808C23.1347 113.662 29.2677 107.736 35.2631 101.678C36.7072 100.221 37.9951 98.608 40.302 95.9947Z" fill="#E7EBEE"/>
<path d="M75.9365 130.943L75.665 130.804L74.1836 130.041L73.8604 129.875L73.6025 130.131L54.4473 149.13C52.7522 150.812 51.0258 152.489 49.3467 154.212L49.3457 154.213C48.1428 155.449 47.0092 156.031 45.9346 156.054C44.8667 156.076 43.7262 155.548 42.5 154.271H42.501C42.2221 153.98 41.9373 153.693 41.6504 153.41L40.7871 152.57C39.1753 151.002 37.9956 149.823 37.2168 148.826C36.4382 147.83 36.1179 147.086 36.1191 146.391C36.1205 145.695 36.4462 144.935 37.2324 143.906C38.018 142.878 39.2068 141.651 40.8311 140.022C50.5904 130.244 60.9257 120.878 70.0664 110.485C73.6565 106.404 78.9717 104.414 84.3359 104.359C89.7028 104.304 95.0638 106.186 98.7246 109.774V109.775C109.2 120 119.555 130.35 129.788 140.825L129.789 140.826C131.768 142.842 132.594 144.245 132.602 145.564C132.609 146.891 131.792 148.304 129.96 150.351C128.716 151.732 127.371 152.933 126.032 154.291V154.292C124.804 155.538 123.657 156.078 122.584 156.063C121.577 156.05 120.519 155.546 119.404 154.44L119.181 154.212C114.287 149.032 109.517 143.665 104.387 138.685H104.386C101.335 135.729 97.6573 133.348 94.2295 130.684L93.71 130.281L93.46 130.89C92.3198 133.664 92.2112 136.738 92.332 139.86C92.4543 143.019 92.8064 146.19 92.6484 149.341C92.3335 155.621 92.5701 161.867 92.5771 167.435C92.02 167.857 91.6342 168.193 91.3604 168.417C91.0236 168.693 90.92 168.736 90.8604 168.744H90.8594C87.1258 169.214 84.3289 169.527 82.2178 169.513C80.1007 169.498 78.7826 169.151 77.917 168.405C77.0539 167.662 76.5383 166.433 76.2559 164.388C75.9741 162.347 75.9365 159.602 75.9365 155.931V130.943Z" fill="white" stroke="#DBB25A"/>
<path d="M127.883 76.8269H167.794C168.676 77.9335 169.232 78.3148 169.288 78.7587C171.07 92.0499 170.357 92.8564 157.047 92.8501C149.589 92.8501 142.131 92.8501 134.672 92.8501C132.922 92.8501 131.172 93.1315 128.421 93.369C130.49 95.6384 131.828 97.2138 133.272 98.6705C139.274 104.722 145.35 110.699 151.321 116.801C156.816 122.427 156.729 124.684 151.065 129.892C146.782 133.83 144.644 133.905 140.255 129.579C129.627 119.107 118.999 108.623 108.646 97.914C102.107 91.1684 102.095 78.4899 108.646 71.7443C119.018 61.0288 129.627 50.5446 140.249 40.0729C144.625 35.7405 146.77 35.8155 151.065 39.7416C155.985 44.2429 156.66 46.7123 152.684 51.1823C147.057 57.5403 140.805 63.3607 134.804 69.4436C132.791 71.4754 130.903 73.5885 127.883 76.8269Z" fill="#E7EBEE"/>
</svg>
