<svg width="135" height="30" viewBox="0 0 135 30" fill="none" xmlns="http://www.w3.org/2000/svg">
<g clip-path="url(#clip0_14_454)">
<path d="M9.74738 19.0163C8.22862 19.0163 7.58771 18.0732 7.58771 16.1884V7.64235H12.6664V5.23968H7.58923V0.227783H4.09609L2.88108 5.23968H0.227814V7.64235H2.69124V17.1908C2.69124 20.201 4.12039 22.2027 8.15876 22.2027C10.285 22.2027 12.2336 21.0773 13.4744 19.7089L12.6528 17.976C11.7233 18.7718 10.8713 19.0163 9.74738 19.0163Z" fill="#949494"/>
<path d="M97.483 19.0163C95.9642 19.0163 95.3233 18.0732 95.3233 16.1884V7.64235H100.402V5.23968H95.3233V0.227783H91.8301L90.6151 5.23968H87.9649V7.64235H90.4283V17.1908C90.4283 20.201 91.8575 22.2027 95.8959 22.2027C98.0221 22.2027 99.9707 21.0773 101.212 19.7089L100.39 17.976C99.4589 18.7718 98.6084 19.0163 97.483 19.0163Z" fill="#949494"/>
<path d="M130.609 3.20306C128.967 3.20306 127.629 4.41807 127.629 5.93683C127.629 7.15183 128.54 8.12687 129.728 8.12687C130.255 8.12728 130.764 7.93253 131.157 7.58012C131.309 10.162 129.88 13.9589 126.2 17.9502L123.827 5.2382H117.496V7.0926C118.925 7.36598 119.228 7.63935 119.686 9.79902L122.088 21.2945C118.469 23.7579 116.645 25.6123 116.645 27.5214C116.645 28.7683 117.342 29.7722 118.619 29.7722C120.627 29.7722 122.454 27.6459 123.853 22.6568C130.938 16.9706 133.919 11.74 133.919 7.29915C133.916 4.78409 132.669 3.20306 130.609 3.20306Z" fill="#949494"/>
<path d="M29.5505 17.5872V10.7725C29.5505 7.3356 27.2086 4.93445 22.7389 4.93445C18.8767 4.93445 15.8361 6.33322 15.8361 8.94852C15.8361 10.2258 16.7185 11.1993 18.0262 11.1993C19.2731 11.1993 20.277 10.3169 20.277 9.00927C20.277 8.30913 20.034 7.79427 19.6391 7.45862C20.208 7.27214 20.8036 7.1798 21.4024 7.18525C23.6805 7.18525 24.6859 8.43215 24.6859 10.5265V12.3202C17.7528 11.8645 14.8322 13.9619 14.8322 17.4293C14.8322 20.163 16.84 22.1739 20.2147 22.1739C22.2832 22.1739 24.1073 21.2915 25.1415 19.8957L26.0239 21.8701H31.5856V20.0187C30.0669 19.8061 29.5505 19.3505 29.5505 17.5872ZM24.6905 17.162C24.6905 18.2874 23.5954 19.2305 22.227 19.2305C20.6764 19.2305 19.8547 18.3193 19.8547 16.9524C19.8547 15.0676 20.889 14.0029 24.6905 14.2459V17.162Z" fill="#949494"/>
<path d="M44.451 5.00128C42.0787 5.00128 40.1332 5.9748 38.9835 7.98108L39.105 5.24732H32.4695V7.10172C33.9883 7.31435 34.5077 7.80187 34.5077 9.56515V27.0445L32.2873 27.5609V29.3242H42.1106V27.5609L39.4345 27.0141V21.1745C40.4081 21.7213 41.655 22.0858 43.2967 22.0858C48.0717 22.0858 51.6286 18.5273 51.6286 13.0841C51.6332 7.94615 48.6473 5.00128 44.451 5.00128ZM42.2017 19.5024C41.1975 19.5209 40.2184 19.1872 39.4345 18.5592V12.7211C39.4345 9.80207 40.7422 8.03728 42.993 8.03728C45.1526 8.03728 46.4603 9.9828 46.4603 13.2679C46.4588 17.3123 44.7866 19.5024 42.2017 19.5024Z" fill="#949494"/>
<path d="M113.598 4.93597C111.805 4.93597 110.105 6.274 109.22 8.61592L109.341 5.23973H102.8V7.09413C104.319 7.30675 104.838 7.79427 104.838 9.55755V19.5935L102.618 20.1099V21.8747H112.441V20.1114L109.765 19.5646V12.5085C109.765 10.4703 110.556 8.98042 111.773 8.31217C111.883 8.79175 112.154 9.21914 112.541 9.52313C112.928 9.82713 113.407 9.98936 113.899 9.9828C115.298 9.9828 116.271 8.8574 116.271 7.51938C116.271 6.18135 115.36 4.93597 113.598 4.93597Z" fill="#949494"/>
<path d="M80.7933 11.3223C78.2388 10.8059 76.8445 10.6844 76.8445 9.19604C76.8445 8.10102 77.7269 7.25051 79.3687 7.25051C81.4676 7.25051 82.71 8.13291 83.2613 9.95694H84.9638V5.91249C83.5043 5.33536 81.4054 4.93896 79.4963 4.93896C75.0266 4.93896 72.472 6.97714 72.472 10.4429C72.472 14.3917 75.4215 15.066 78.0368 15.5824C80.5913 16.0988 81.9855 16.2203 81.9855 17.7087C81.9855 19.0467 80.8298 19.8683 78.9146 19.8683C76.2993 19.8683 75.1177 18.7733 74.3842 16.5529H72.7135V20.7188C73.7767 21.3567 75.9029 22.1784 78.7885 22.1784C83.5331 22.1784 86.3611 20.0795 86.3611 16.4618C86.3626 12.5085 83.4132 11.8356 80.7933 11.3223Z" fill="#949494"/>
<path d="M62.2417 4.93597C56.8896 4.93597 53.6349 8.55517 53.6349 13.725C53.6349 18.6519 56.8881 22.1784 62.2417 22.1784C65.7698 22.1784 68.0495 20.567 69.4801 18.3815L68.294 17.2561C66.9863 18.5334 65.4964 19.1713 64.0065 19.1713C60.969 19.1713 59.1101 17.2258 58.8063 13.7038H69.6016C70.3306 9.80207 68.3851 4.93597 62.2417 4.93597ZM58.7714 11.5653C59.0144 8.55517 60.4132 7.31283 62.0246 7.31283C63.7271 7.31283 64.8221 8.67971 64.8525 11.5653H58.7714Z" fill="#949494"/>
</g>
<defs>
<clipPath id="clip0_14_454">
<rect width="134.147" height="30" fill="white"/>
</clipPath>
</defs>
</svg>
