<svg width="87" height="30" viewBox="0 0 87 30" fill="none" xmlns="http://www.w3.org/2000/svg">
<g clip-path="url(#clip0_14_466)">
<path d="M4.97189 21.4256C5.33708 22.3948 5.84268 23.2234 6.48878 23.9116C7.13488 24.5998 7.90032 25.1265 8.78509 25.4917C9.66996 25.8568 10.632 26.0394 11.6714 26.0394C12.6827 26.0394 13.6307 25.8498 14.5155 25.4705C15.4004 25.0912 16.1728 24.5576 16.8329 23.8694C17.493 23.1812 18.0057 22.3596 18.3709 21.4045C18.736 20.4495 18.9186 19.3821 18.9186 18.2023V0H23.3427V29.4944H18.9607V26.7556C17.9776 27.7949 16.8188 28.5955 15.4846 29.1574C14.1502 29.7191 12.7107 30 11.1658 30C9.59267 30 8.12501 29.7261 6.7626 29.1783C5.40029 28.6306 4.22044 27.8512 3.22332 26.8399C2.2262 25.8286 1.4396 24.6139 0.863797 23.1953C0.287901 21.7767 0 20.1967 0 18.455V0H4.42415V18.2023C4.42415 19.3821 4.6067 20.4565 4.97189 21.4256Z" fill="#949494"/>
<path d="M30.9688 -6.10352e-05V10.7443C31.952 9.76117 33.0897 8.98175 34.3818 8.40585C35.6739 7.82996 37.0784 7.54206 38.5952 7.54206C40.1683 7.54206 41.6429 7.83695 43.0194 8.42683C44.3958 9.01671 45.5895 9.8173 46.6008 10.8286C47.6121 11.8399 48.4127 13.0336 49.0026 14.41C49.5925 15.7865 49.8873 17.2472 49.8873 18.7921C49.8873 20.337 49.5925 21.7907 49.0026 23.153C48.4127 24.5154 47.6121 25.7022 46.6008 26.7133C45.5895 27.7246 44.3958 28.5252 43.0194 29.1151C41.6429 29.705 40.1683 29.9998 38.5952 29.9998C37.0784 29.9998 35.6669 29.7119 34.3607 29.136C33.0545 28.5602 31.9098 27.7807 30.9267 26.7976V29.4942H26.7133V-6.10352e-05H30.9688ZM31.4534 21.6994C31.8325 22.5983 32.3593 23.3848 33.0335 24.059C33.7076 24.7332 34.4941 25.2669 35.393 25.6602C36.2919 26.0534 37.261 26.25 38.3003 26.25C39.3116 26.25 40.2666 26.0534 41.1655 25.6602C42.0643 25.2669 42.8437 24.7332 43.504 24.059C44.1641 23.3849 44.6908 22.5983 45.084 21.6994C45.4773 20.8005 45.6739 19.8315 45.6739 18.7921C45.6739 17.7528 45.4773 16.7766 45.084 15.8637C44.6908 14.9508 44.1641 14.1573 43.504 13.4831C42.8438 12.809 42.0644 12.2823 41.1655 11.9031C40.2665 11.5239 39.3115 11.3342 38.3003 11.3342C37.2892 11.3342 36.3341 11.5238 35.4352 11.9031C34.5364 12.2824 33.7499 12.809 33.0756 13.4831C32.4015 14.1573 31.8678 14.9508 31.4745 15.8637C31.0813 16.7766 30.8847 17.7528 30.8847 18.7921C30.8846 19.8315 31.0742 20.8005 31.4534 21.6994Z" fill="#949494"/>
<path d="M52.2886 14.4523C52.8504 13.1039 53.623 11.9172 54.606 10.8919C55.5891 9.86664 56.7549 9.05907 58.1033 8.46919C59.4516 7.87931 60.9123 7.58441 62.4853 7.58441C64.0302 7.58441 65.4628 7.86532 66.7831 8.42705C68.1033 8.98886 69.2409 9.76838 70.196 10.7656C71.151 11.7627 71.8955 12.9426 72.4291 14.3049C72.9628 15.6673 73.2296 17.149 73.2296 18.7502V20.1407H55.7437C55.8842 21.0114 56.1652 21.819 56.5865 22.5633C57.0079 23.3077 57.5345 23.9538 58.1665 24.5015C58.7985 25.0493 59.5148 25.4777 60.3154 25.7866C61.116 26.0956 61.9656 26.2502 62.8645 26.2502C65.4208 26.2502 67.4854 25.1967 69.0584 23.09L72.1343 25.3652C71.0668 26.7978 69.7467 27.9214 68.1737 28.736C66.6005 29.5506 64.8309 29.9579 62.8646 29.9579C61.2635 29.9579 59.7677 29.6769 58.3773 29.1152C56.9868 28.5535 55.779 27.7669 54.7537 26.7556C53.7284 25.7443 52.9209 24.5575 52.331 23.1952C51.7411 21.8329 51.4461 20.3511 51.4461 18.75C51.4459 17.2332 51.7269 15.8006 52.2886 14.4523ZM58.2086 12.7879C57.0148 13.7851 56.2213 15.1124 55.828 16.7697H68.932C68.5668 15.1124 67.7873 13.7851 66.5935 12.7879C65.3996 11.7908 64.0022 11.2922 62.4011 11.2922C60.7999 11.2922 59.4025 11.7908 58.2086 12.7879Z" fill="#949494"/>
<path d="M81.1929 13.2724C80.294 14.2555 79.8445 15.5898 79.8445 17.2753V29.4945H75.5889V8.00563H79.8023V10.6601C80.3361 9.78935 81.0313 9.10111 81.888 8.59551C82.7447 8.08982 83.763 7.83698 84.9429 7.83698H86.4175V11.7977H84.6479C83.2434 11.7978 82.0917 12.2893 81.1929 13.2724Z" fill="#949494"/>
</g>
<defs>
<clipPath id="clip0_14_466">
<rect width="86.4175" height="30" fill="white"/>
</clipPath>
</defs>
</svg>
