<svg width="75" height="30" viewBox="0 0 75 30" fill="none" xmlns="http://www.w3.org/2000/svg">
<g clip-path="url(#clip0_14_592)">
<path d="M73.6729 10.4988C73.2722 9.67349 72.7336 8.9198 72.0793 8.26905C71.9479 8.14396 71.807 8.02888 71.6578 7.92481C71.5455 7.83931 71.4284 7.76005 71.3071 7.6874H71.282L71.2504 7.66914C71.1192 7.59923 70.9845 7.53614 70.8466 7.48013H70.8112C70.465 7.34586 70.096 7.27678 69.7237 7.2765H69.5693C69.1599 7.30207 68.7608 7.40982 68.397 7.59426C67.9668 7.81842 67.572 8.10261 67.2248 8.43797H67.2034L67.182 8.45897C67.1685 8.47433 67.1532 8.48811 67.1365 8.50006L67.0695 8.56215C66.8313 8.78221 66.5922 9.02053 66.315 9.29902L66.1187 9.49991C65.8697 9.74443 65.6229 9.99098 65.3781 10.2395C65.4544 8.93744 65.5363 7.60431 65.6023 6.28122C65.6023 6.1123 65.62 5.93699 65.634 5.7708C65.6833 5.19281 65.6954 4.61116 65.6693 4.03134V3.88981C65.634 3.22873 65.5781 2.23253 64.9064 1.37878C64.4134 0.743265 63.4291 0 61.5554 0C61.1314 0.002808 60.708 0.0339253 60.2883 0.0931363C59.5987 0.189247 58.9187 0.342589 58.2555 0.551513C56.1707 1.22356 54.9668 2.27362 54.6645 3.7008C54.4431 4.75817 54.8403 5.67858 55.0999 6.28762L55.1557 6.4191C55.3911 6.95327 55.6618 7.471 55.9669 7.96955L56.22 8.41423C56.8658 9.56709 57.5198 10.7155 58.182 11.8594L57.1773 11.5151L56.9214 11.4256C56.5493 11.2914 56.22 11.1773 55.9139 11.0805L55.8302 11.0567L55.7706 11.0394H55.7139C55.2514 10.8874 54.7687 10.8028 54.2812 10.7883H54.2049C53.8202 10.7867 53.4392 10.8615 53.0848 11.0084C52.6922 11.1709 52.3405 11.4138 52.0521 11.7215C51.9561 11.8327 51.8648 11.9479 51.7786 12.0666L51.7581 12.094L51.7367 12.1251C51.5594 12.3899 51.4145 12.6743 51.3051 12.9724V12.9934C51.0071 13.8551 50.8587 14.7598 50.8659 15.6697C49.971 12.2246 47.0367 9.67796 43.575 9.67796C42.3184 9.68192 41.0854 10.0127 40.0016 10.6367C39.3908 10.1297 38.6228 9.84097 37.8232 9.81775C37.0236 9.79453 36.2395 10.0382 35.5993 10.5089V8.69638C35.5777 7.78335 35.1961 6.91414 34.5349 6.2716C33.8736 5.62906 32.9842 5.26329 32.0538 5.25125C31.1107 5.25463 30.2076 5.62519 29.5427 6.28157C28.8778 6.93795 28.5054 7.82648 28.5074 8.75208V12.5177C28.4189 12.4035 28.3242 12.294 28.2236 12.1899C27.2028 11.1404 25.9178 10.3738 24.4986 9.96742C23.0693 9.57272 21.5566 9.57399 20.1279 9.97107H20.0898C18.9379 10.2672 17.8727 10.8242 16.9797 11.5973C16.6977 11.0155 16.2527 10.5245 15.6969 10.1817C15.141 9.83891 14.4972 9.65849 13.8408 9.66153C13.5077 9.66153 13.1774 9.70901 12.8583 9.80214C11.1028 10.3226 10.4004 11.9972 9.97246 12.9962C9.93339 13.0893 9.89804 13.1761 9.86083 13.2582C9.75477 13.5066 9.65336 13.7267 9.57242 13.9029C9.49084 14.0736 9.41574 14.2472 9.34729 14.4233C9.29798 14.5576 9.25611 14.6498 9.20774 14.7676C8.91475 14.1838 8.61859 13.6015 8.31927 13.0208L8.14251 12.6556C7.7006 11.7242 7.03728 10.3263 5.38781 9.83684C4.56551 9.59022 3.67918 9.65219 2.9008 10.0107C2.12241 10.3693 1.50747 10.9988 1.17529 11.7772C0.377996 13.6271 1.36786 15.2598 1.89815 16.1354C2.27772 16.7563 2.76522 17.5781 3.22201 18.4337C3.41738 18.7779 3.4918 18.9231 3.92347 19.7458L3.98674 19.86L4.5347 20.8936C4.66495 21.131 4.80822 21.4031 4.97661 21.7209C5.15616 22.0651 5.3599 22.4367 5.58411 22.8504C5.54597 22.9024 5.50689 22.9572 5.46131 23.0092L5.42967 23.0467L5.38037 23.0229C5.03028 22.8484 4.65885 22.7186 4.27514 22.6367C4.00455 22.5751 3.72771 22.5439 3.44994 22.5436C2.84222 22.5433 2.24515 22.7002 1.7188 22.9983C1.19244 23.2965 0.755351 23.7254 0.451491 24.2419C0.147933 24.7622 -0.00787515 25.3529 0.000306389 25.9525C0.00848793 26.552 0.18036 27.1384 0.498008 27.6505C1.55021 29.3726 3.69554 29.9999 5.36362 29.9999C5.80553 30.0018 6.24743 29.957 6.6791 29.8657C10.4255 29.0668 12.0471 25.5239 13.2305 22.9371L13.4686 22.4166C13.7127 21.8677 13.9667 21.3231 14.2306 20.7831L14.4659 20.2763C14.7052 21.0303 15.0563 21.7457 15.5079 22.3993C15.787 22.8065 16.0987 23.191 16.442 23.5471C16.7908 23.8968 17.1704 24.2155 17.576 24.5013C17.9854 24.7807 18.4226 25.0217 18.8785 25.2208C19.3437 25.4344 19.8302 25.5951 20.3317 25.7038C20.6387 25.7778 20.9513 25.8344 21.2657 25.8718C21.5541 25.9019 21.8425 25.9147 22.1328 25.9102H22.3886C23.4285 25.9113 24.4607 25.7364 25.4401 25.3934C25.8904 25.2473 26.3267 25.0601 26.7426 24.8354C27.4818 24.414 28.0888 23.8012 28.4971 23.064C28.6052 23.9046 29.0208 24.6779 29.6665 25.2401C30.3122 25.8024 31.1441 26.1151 32.0073 26.1202C32.7673 26.1202 33.506 25.8782 34.1145 25.4308V26.5201C34.1145 27.443 34.488 28.3281 35.1529 28.9807C35.8178 29.6333 36.7196 29.9999 37.6599 29.9999C38.6003 29.9999 39.5021 29.6333 40.167 28.9807C40.8319 28.3281 41.2054 27.443 41.2054 26.5201V25.5696C41.9534 25.8252 42.7405 25.9558 43.5331 25.9549C47.6963 25.9549 51.0836 22.3162 51.0911 17.8438C51.1767 18.115 51.2948 18.3753 51.4418 18.62C51.6651 18.9651 51.9572 19.2619 52.3024 19.4911C52.7982 19.8158 53.3774 19.9962 53.9732 20.0115H54.2468C54.7103 20.0007 55.1709 19.936 55.619 19.8189H55.6934L57.6341 19.3879C57.3289 19.8015 57.0303 20.2042 56.7428 20.6041L56.5809 20.8278C56.3465 21.1447 56.1456 21.4241 55.9669 21.6926L55.9176 21.7683L55.8823 21.8204L55.8655 21.8441V21.8688C55.5872 22.2664 55.3694 22.7016 55.2189 23.1608C55.0961 23.5495 55.0581 23.9593 55.1073 24.3634C55.1613 24.7761 55.3055 25.1733 55.5278 25.5276V25.5449C55.6088 25.6691 55.6999 25.7896 55.7911 25.8892L55.8125 25.9102L55.8302 25.9339C55.9279 26.048 56.0367 26.1549 56.1465 26.2581C56.2749 26.3832 56.4135 26.4982 56.5605 26.6032C57.2545 27.0689 58.0137 27.4341 58.8137 27.688C59.4957 27.9108 60.2036 28.0441 60.92 28.0843H61.1247C61.2418 28.0855 61.359 28.0797 61.4754 28.0669C61.6215 28.055 61.7666 28.0359 61.9099 28.0085H61.9731C62.1201 27.9747 62.2662 27.9327 62.4085 27.8843H62.4299C62.8237 27.7407 63.1825 27.5177 63.4831 27.2296C63.7717 26.941 63.9974 26.5977 64.1464 26.2206C64.3162 25.7688 64.418 25.2951 64.4487 24.8144V24.7524C64.4508 24.7317 64.4508 24.7109 64.4487 24.6903V24.6108C64.4794 24.2666 64.4943 23.9497 64.5111 23.5772V23.0476L64.6311 23.2603L64.7678 23.5124C64.9576 23.8566 65.1186 24.1461 65.287 24.4218L65.3298 24.4903L65.3679 24.5524V24.5734L65.3865 24.6008C65.6554 25.0098 65.9838 25.3769 66.3615 25.6928C66.6638 25.9713 67.022 26.1841 67.4146 26.3165H67.436C67.7402 26.4169 68.0593 26.4681 68.3803 26.4681C68.4798 26.4681 68.5794 26.4617 68.678 26.4507H68.7106C68.8613 26.4343 69.0111 26.4096 69.1599 26.3749H69.2222C69.3664 26.3384 69.5088 26.2918 69.6474 26.238C69.813 26.1768 69.973 26.1037 70.1284 26.0207C70.7566 25.6762 71.3351 25.2509 71.8486 24.756C72.4546 24.1835 72.9746 23.5292 73.3929 22.8129C73.5543 22.5275 73.6772 22.2227 73.7585 21.9062V21.8478C73.7931 21.7049 73.8189 21.56 73.8357 21.4141V21.3684C73.8753 20.959 73.8274 20.546 73.6953 20.1558C73.5568 19.7702 73.3364 19.4178 73.0487 19.1222C72.7087 18.7756 72.3199 18.4786 71.8941 18.2401H71.869L71.8411 18.2237L71.7853 18.1926L71.7146 18.147C71.4346 17.9854 71.122 17.8027 70.7917 17.6448L70.5182 17.4996C70.0819 17.2606 69.6405 17.0308 69.1943 16.8102L71.1182 16.3728H71.1927C71.7391 16.2715 72.2658 16.0867 72.7538 15.825C73.2818 15.555 73.7213 15.1442 74.0218 14.6398C74.219 14.2882 74.3391 13.9001 74.3725 13.4993C74.527 12.2556 73.9939 11.1563 73.6748 10.4988H73.6729Z" fill="#949494"/>
<path d="M59.171 17.2503L60.3293 16.9873C60.3535 16.9818 60.3944 16.9727 60.4428 16.9572C60.7627 16.873 61.0368 16.6702 61.2074 16.3915C61.378 16.1129 61.4318 15.7801 61.3573 15.4633L61.3526 15.4433C61.3143 15.2915 61.2475 15.1481 61.1554 15.0205C61.0257 14.8589 60.8652 14.7237 60.6828 14.6224C60.4681 14.5023 60.2434 14.4003 60.0111 14.3174L58.7412 13.8618C58.0286 13.6015 57.3159 13.3486 56.5959 13.1011C56.1298 12.9386 55.7344 12.7953 55.3911 12.6903C55.3258 12.6725 55.2609 12.653 55.1967 12.6318C54.7817 12.5076 54.4896 12.4556 54.2431 12.4538C54.0783 12.4477 53.9142 12.477 53.7621 12.5396C53.6032 12.6071 53.4606 12.7067 53.3434 12.8318C53.2853 12.8965 53.2307 12.9642 53.1797 13.0345C53.0806 13.1839 52.9988 13.3438 52.936 13.5111C52.7 14.1951 52.5824 14.913 52.588 15.635C52.5927 16.287 52.6103 17.1243 52.976 17.6922C53.0643 17.8383 53.1825 17.9643 53.323 18.062C53.5835 18.2383 53.8458 18.262 54.1203 18.2812C54.5296 18.3095 54.925 18.2118 55.3204 18.1214L59.1682 17.2494L59.171 17.2503ZM72.0933 11.2156C71.7771 10.5642 71.3519 9.96948 70.8355 9.45605C70.7687 9.39075 70.6972 9.33033 70.6215 9.27526C70.5515 9.22376 70.4789 9.17591 70.4038 9.1319C70.3265 9.09033 70.247 9.05284 70.1656 9.01959C70.005 8.95761 69.8329 8.9296 69.6605 8.93741C69.4958 8.94654 69.3349 8.99219 69.1888 9.06798C68.9683 9.17573 68.7292 9.34922 68.411 9.63867C68.3673 9.68159 68.3124 9.72998 68.2622 9.77563C68.0008 10.0176 67.7086 10.3162 67.3616 10.6632C66.8248 11.1955 66.2973 11.7306 65.7717 12.2702L64.8321 13.2272C64.6605 13.4017 64.5042 13.5902 64.365 13.7905C64.2458 13.9601 64.1615 14.1508 64.1166 14.3521C64.0915 14.5067 64.0953 14.6645 64.1278 14.8178L64.1325 14.8379C64.2067 15.1543 64.4032 15.4301 64.6805 15.6073C64.9578 15.7844 65.2943 15.849 65.6191 15.7875C65.6582 15.7821 65.697 15.7748 65.7354 15.7656L70.7424 14.6297C71.1378 14.5402 71.5379 14.458 71.8923 14.2553C72.1305 14.1211 72.3566 13.9869 72.5119 13.7166C72.5947 13.5677 72.6447 13.4035 72.6589 13.2345C72.7361 12.5642 72.3798 11.8036 72.0933 11.2156ZM63.1296 13.2819C63.4924 12.8345 63.4924 12.168 63.524 11.6219C63.6338 9.80029 63.7482 7.97865 63.8403 6.1561C63.8748 5.4658 63.9501 4.78462 63.9082 4.08884C63.8738 3.51541 63.8701 2.85615 63.5008 2.38499C62.8495 1.55407 61.4596 1.62255 60.5116 1.75221C60.2192 1.79186 59.9289 1.84549 59.6418 1.91292C59.3534 1.98049 59.0668 2.05445 58.7877 2.14302C57.8779 2.43521 56.5987 2.97212 56.3828 4.00118C56.26 4.58283 56.5503 5.17726 56.7736 5.70868C57.0462 6.3515 57.4174 6.93132 57.756 7.53671C58.6519 9.13555 59.5636 10.7253 60.4725 12.3159C60.7451 12.7907 61.0401 13.3915 61.5657 13.6381C61.601 13.6527 61.6364 13.6654 61.6727 13.6773C61.908 13.765 62.1657 13.7814 62.4104 13.7257L62.4542 13.7166C62.6812 13.6554 62.8858 13.534 63.0468 13.3669C63.0765 13.3395 63.1026 13.3121 63.1296 13.2819ZM62.6951 18.1588C62.5535 17.9633 62.3525 17.8168 62.1209 17.7402C61.8893 17.6636 61.6389 17.6609 61.4057 17.7324C61.3508 17.7501 61.2973 17.7718 61.2457 17.7972C61.1657 17.8372 61.0894 17.884 61.0177 17.9369C60.8129 18.0953 60.63 18.2792 60.4735 18.4839C60.4335 18.5341 60.3963 18.6008 60.3479 18.6446L59.5422 19.7312C59.0864 20.3411 58.6352 20.952 58.1895 21.572C57.8974 21.9728 57.6462 22.3116 57.4462 22.6102C57.409 22.6668 57.3699 22.7289 57.3346 22.78C57.0955 23.1416 56.9606 23.4064 56.8908 23.642C56.8387 23.7985 56.8221 23.9643 56.8424 24.1278C56.8647 24.2976 56.9233 24.461 57.0136 24.6081C57.062 24.6811 57.1141 24.7523 57.1699 24.8208C57.2905 24.957 57.4262 25.0795 57.5746 25.186C58.1309 25.5659 58.7393 25.8389 59.3794 26.0498C59.9125 26.2233 60.466 26.3274 61.0261 26.3585C61.1219 26.363 61.2177 26.3612 61.3126 26.353C61.4006 26.3449 61.4882 26.3327 61.575 26.3165C61.6618 26.2966 61.7476 26.2722 61.8318 26.2434C61.9955 26.1832 62.1444 26.0899 62.269 25.9695C62.3872 25.8535 62.4783 25.7138 62.5351 25.5595C62.6281 25.3312 62.6895 25.0427 62.7305 24.6135C62.7332 24.5524 62.7425 24.4793 62.7491 24.4126C62.7807 24.0565 62.7956 23.6365 62.8179 23.1453C62.8579 22.3883 62.8886 21.635 62.9128 20.8799L62.9649 19.5358C62.977 19.2271 62.9668 18.8838 62.8793 18.5761C62.8409 18.4283 62.7787 18.2874 62.6951 18.1588ZM71.7872 20.2617C71.6197 20.08 71.3816 19.9001 71.0057 19.6773C70.9518 19.6472 70.8876 19.6079 70.829 19.5732C70.5164 19.3879 70.1396 19.1943 69.6995 18.9596C69.0232 18.5944 68.3468 18.2401 67.6631 17.8876L66.4564 17.2594C66.3941 17.2412 66.3308 17.1973 66.2713 17.169C66.0393 17.0527 65.7928 16.9664 65.5382 16.9124C65.4505 16.8958 65.3614 16.8866 65.2721 16.885C65.2143 16.8847 65.1565 16.8881 65.0991 16.8951C64.8575 16.9317 64.6339 17.0423 64.4602 17.211C64.2864 17.3797 64.1714 17.598 64.1315 17.8347C64.1138 17.9853 64.1194 18.1378 64.1492 18.2857C64.2078 18.6017 64.3511 18.913 64.4999 19.1861L65.1437 20.3722C65.5028 21.0406 65.8657 21.7053 66.2378 22.3682C66.4778 22.8001 66.6778 23.1699 66.8648 23.4767C66.9002 23.5342 66.9402 23.5963 66.9709 23.6502C67.1988 24.0182 67.3812 24.2501 67.5663 24.4172C67.6896 24.5336 67.8376 24.6218 67.9998 24.6755C68.1619 24.7292 68.3341 24.747 68.5041 24.7277C68.5926 24.7171 68.6805 24.7018 68.7673 24.682C68.9453 24.6353 69.1173 24.5688 69.28 24.4839C69.7697 24.2145 70.221 23.8829 70.6224 23.4977C71.1043 23.032 71.5304 22.5244 71.8616 21.9436C71.9081 21.8614 71.9472 21.7765 71.9807 21.688C72.0119 21.6069 72.0389 21.5243 72.0616 21.4405C72.0812 21.3547 72.0961 21.2688 72.1063 21.1821C72.123 21.0116 72.103 20.8396 72.0477 20.6772C71.9931 20.5213 71.9041 20.3791 71.7872 20.2608V20.2617Z" fill="#010101"/>
<path fill-rule="evenodd" clip-rule="evenodd" d="M30.2341 8.72832C30.2341 7.7513 31.0444 6.95325 32.0231 6.95325C32.9879 6.95325 33.7712 7.7513 33.8131 8.74293V22.5983C33.8131 23.5753 33.0018 24.3734 32.0231 24.3734C31.7866 24.3733 31.5524 24.3272 31.3341 24.2377C31.1158 24.1482 30.9178 24.0171 30.7514 23.8521C30.5851 23.687 30.4537 23.4912 30.3649 23.276C30.2761 23.0608 30.2316 22.8305 30.2341 22.5983V8.72832ZM28.5697 17.2868C28.5558 17.5617 28.486 18.0712 28.1232 18.4428C27.7315 18.8418 27.2003 18.9377 26.8924 18.9377C25.6132 18.945 24.334 18.9487 23.0548 18.9514C21.7756 18.9551 20.4964 18.9587 19.2172 18.9651C19.3288 19.3093 19.5521 19.8325 20.0554 20.3137C20.3624 20.6032 20.6564 20.7676 20.7829 20.837C20.9364 20.9328 21.4676 21.2086 22.1244 21.2086C22.824 21.2086 23.439 20.9876 24.0409 20.6854L24.0902 20.6598C24.5089 20.4471 24.9396 20.2279 25.3964 20.1485C25.843 20.08 26.3193 20.1622 26.6682 20.4653C27.0877 20.8233 27.2561 21.3456 27.1017 21.8825C26.9203 22.4878 26.403 23.0111 25.8578 23.327C25.5458 23.5062 25.2183 23.6581 24.8791 23.7808C24.0138 24.0821 23.0989 24.2224 22.1812 24.1944C21.9579 24.1944 21.7197 24.1944 21.4816 24.167C21.2304 24.1396 20.9792 24.0839 20.741 24.0292C20.3549 23.947 19.9795 23.8223 19.6218 23.6575C19.2641 23.5018 18.9223 23.3129 18.6013 23.0932C18.2811 22.8673 17.9819 22.614 17.7072 22.3363C17.4341 22.0551 17.1861 21.7514 16.9658 21.4286C16.2113 20.3001 15.8615 18.9103 15.9312 17.5617C15.9871 16.2413 16.4345 14.9201 17.2458 13.8472C17.3332 13.712 17.4346 13.5979 17.5305 13.4901C17.5723 13.4427 17.6133 13.397 17.6514 13.3513C18.6525 12.1497 19.9903 11.7699 20.5419 11.6128L20.5726 11.6037C21.6923 11.2916 22.8784 11.2916 23.9981 11.6037C24.2642 11.6731 25.7602 12.1269 26.9203 13.3513C26.9761 13.4061 27.1305 13.5851 27.3259 13.8472C27.8221 14.5104 28.1867 15.2594 28.4004 16.055L28.4023 16.0623C28.486 16.3646 28.5697 16.7782 28.5697 17.2868ZM20.3633 15.0168C19.8113 15.4575 19.4271 16.0682 19.273 16.7499H25.3685C25.204 16.0687 24.816 15.4595 24.2642 15.0159C23.7084 14.5785 23.0192 14.3364 22.3068 14.3284C21.5981 14.3353 20.9127 14.5776 20.3624 15.0159L20.3633 15.0168ZM43.5434 11.3699C41.9497 11.3699 40.4956 12.0721 39.4611 13.2144V13.1724C39.4403 12.7137 39.2368 12.2813 38.8943 11.9685C38.5518 11.6557 38.0978 11.4875 37.6301 11.5002C37.1624 11.5129 36.7186 11.7055 36.3942 12.0364C36.0698 12.3673 35.8909 12.81 35.8961 13.2692V26.4918C35.895 26.723 35.9405 26.9522 36.03 27.1661C36.1195 27.38 36.2512 27.5744 36.4176 27.7381C36.584 27.9018 36.7817 28.0316 36.9994 28.12C37.2171 28.2084 37.4504 28.2537 37.686 28.2532C37.9215 28.2535 38.1548 28.2082 38.3724 28.1197C38.59 28.0313 38.7876 27.9014 38.9539 27.7377C39.1201 27.574 39.2518 27.3797 39.3412 27.1659C39.4307 26.952 39.4761 26.7229 39.475 26.4918V22.3637C40.5096 23.4923 41.9497 24.2081 43.5573 24.2081C46.7595 24.2081 49.3598 21.3592 49.3598 17.8091C49.3458 14.2599 46.7456 11.3699 43.5434 11.3699ZM42.761 21.3319C40.9431 21.3319 39.4611 19.7768 39.4611 17.8374C39.4611 15.8834 40.9291 14.3284 42.761 14.3284C44.5779 14.3284 46.0599 15.8834 46.0599 17.8374C46.0459 19.7768 44.5779 21.3319 42.761 21.3319ZM13.2472 18.7313L12.6602 19.9978C12.3941 20.5475 12.1281 21.1118 11.8769 21.6761L11.6341 22.2057C10.5158 24.6455 9.19008 27.5419 6.29863 28.1564C4.90034 28.4595 2.78943 28.0468 2.00609 26.7529C1.22369 25.4463 2.38381 23.9461 3.87977 24.2903C4.11608 24.3414 4.34773 24.4547 4.58217 24.5697C4.97198 24.7615 5.36737 24.9541 5.79532 24.8683C6.20094 24.7998 6.45213 24.5104 6.77402 24.1387C7.22058 23.6301 7.41688 23.0932 7.50061 22.7764L7.48014 22.7289C7.47366 22.7125 7.46652 22.6964 7.45874 22.6805C7.09499 22.0139 6.77681 21.4186 6.51167 20.921C6.36261 20.6399 6.21221 20.3596 6.06046 20.08L5.4511 18.9441C5.00454 18.1132 4.93011 17.9762 4.73288 17.6174C4.29808 16.8119 3.84112 16.0181 3.36251 15.2369C2.84525 14.3832 2.31403 13.4344 2.74757 12.4291C2.91051 12.0399 3.2165 11.7249 3.60488 11.5467C3.99327 11.3684 4.43571 11.3399 4.84452 11.4667C5.74415 11.7342 6.14326 12.5752 6.51539 13.3605C6.58331 13.5029 6.64936 13.6435 6.7182 13.7778C7.3192 14.9475 7.90623 16.1171 8.49327 17.2868C8.54537 17.4028 8.62351 17.5607 8.72027 17.7543C8.80586 17.926 8.9054 18.126 9.01053 18.346L9.1659 18.6638C9.22637 18.788 9.2794 18.8939 9.31847 18.9788C9.59106 18.3122 9.86736 17.6484 10.1427 16.9837C10.419 16.3198 10.6954 15.656 10.9679 14.9885C10.9754 14.952 11.0405 14.8096 11.1391 14.595C11.2219 14.4133 11.328 14.1804 11.4433 13.9156L11.5615 13.6353C11.9243 12.7679 12.3616 11.7242 13.331 11.4393C13.6751 11.3413 14.0417 11.3509 14.38 11.4668C14.7182 11.5826 15.0113 11.799 15.2186 12.0858C15.4279 12.3743 15.5117 12.7049 15.5256 13.0354C15.5368 13.7659 15.1777 14.5493 14.8688 15.2214C14.7944 15.3857 14.7218 15.5428 14.6595 15.6907L14.6223 15.7711C14.5367 15.9601 14.3041 16.4714 13.9041 17.3142C13.7599 17.6155 13.6212 17.9187 13.4808 18.2246L13.2472 18.7313Z" fill="black"/>
</g>
<defs>
<clipPath id="clip0_14_592">
<rect width="74.4" height="30" fill="white"/>
</clipPath>
</defs>
</svg>
