<svg width="20" height="20" viewBox="0 0 20 20" fill="none" xmlns="http://www.w3.org/2000/svg">
<path d="M13.9581 13.5625C12.5806 14.94 9.40686 13.7659 7.82036 12.1794C6.23386 10.5929 5.05982 7.41913 6.43732 6.04163C6.83632 5.64263 7.38573 5.59513 7.7214 5.61096C7.91536 5.61967 8.08319 5.73367 8.1964 5.892L8.95007 6.94809C9.05888 7.10059 9.11008 7.28674 9.09457 7.47344C9.07906 7.66014 8.99784 7.83529 8.86536 7.96775L8.15207 8.68104C8.28348 9.07688 8.70623 10.0269 9.33957 10.6602C9.9729 11.2935 10.9229 11.7163 11.3187 11.8477L12.032 11.1352C12.1644 11.0026 12.3395 10.9212 12.5262 10.9056C12.7129 10.8899 12.8991 10.941 13.0517 11.0497L14.1078 11.8034C14.2661 11.9166 14.3801 12.0844 14.3888 12.2784C14.4047 12.614 14.3571 13.1635 13.9581 13.5625Z" stroke="black" stroke-linejoin="round"/>
<path d="M10 18.3125C14.5909 18.3125 18.3125 14.5909 18.3125 10C18.3125 5.40912 14.5909 1.6875 10 1.6875C5.40912 1.6875 1.6875 5.40912 1.6875 10C1.6875 11.5137 2.09204 12.9339 2.79979 14.1562L2.10312 17.8969L5.84375 17.2002C7.10685 17.931 8.54074 18.3147 10 18.3125Z" stroke="black" stroke-linejoin="round"/>
</svg>
