<svg width="160" height="160" viewBox="0 0 160 160" fill="none" xmlns="http://www.w3.org/2000/svg">
<path d="M71.724 24.043C110.577 24.043 142.074 74.0488 142.074 135.734H1.37305C1.37305 74.0488 32.8701 24.043 71.724 24.043ZM74.764 62.3123L79.2525 76.4867C79.4569 77.1327 79.8618 77.6967 80.4084 78.0971C80.955 78.4975 81.615 78.7133 82.2925 78.7134H96.9891C100.058 78.7134 101.355 82.6243 98.8946 84.459L86.8653 93.427C86.334 93.8231 85.9393 94.3748 85.736 95.0055C85.5327 95.6363 85.5309 96.3147 85.7309 96.9464L90.2925 111.351C91.2275 114.304 87.829 116.721 85.3464 114.871L73.6296 106.136C73.0789 105.725 72.4103 105.503 71.7234 105.503C71.0366 105.503 70.368 105.725 69.8173 106.136L58.101 114.871C55.6178 116.721 52.22 114.304 53.1549 111.351L57.716 96.9464C57.9161 96.3147 57.9145 95.6363 57.7112 95.0056C57.508 94.3748 57.1134 93.8231 56.5821 93.427L44.5522 84.459C42.0914 82.6243 43.3891 78.7134 46.4584 78.7134H61.1544C61.832 78.7134 62.492 78.4975 63.0387 78.0972C63.5854 77.6968 63.9904 77.1327 64.1949 76.4867L68.6834 62.3123C69.6232 59.3438 73.8237 59.3438 74.764 62.3123Z" stroke="#092F52" stroke-width="1.6" stroke-linecap="round" stroke-linejoin="round"/>
<path d="M61.834 112.086C61.8543 111.846 61.9023 111.6 61.9818 111.351L66.5428 96.946C66.7429 96.3142 66.7412 95.6359 66.538 95.0051C66.3348 94.3744 65.9402 93.8226 65.409 93.4265L53.3791 84.4585C50.9183 82.6238 52.2159 78.7129 55.2852 78.7129H46.457C43.3876 78.7129 42.09 82.6238 44.5508 84.4585L56.5802 93.4265C57.1115 93.8226 57.5062 94.3743 57.7095 95.005C57.9128 95.6358 57.9146 96.3142 57.7146 96.946L53.1535 111.351C52.218 114.303 55.6164 116.721 58.0996 114.87L61.834 112.086Z" stroke="#092F52" stroke-width="1.6" stroke-linecap="round" stroke-linejoin="round"/>
<path d="M74.7634 62.3123C73.8231 59.3438 69.6226 59.3438 68.6828 62.3123L64.1943 76.4867C63.9898 77.1327 63.5849 77.6967 63.0383 78.097C62.4917 78.4974 61.8318 78.7133 61.1543 78.7134H69.9826C70.6601 78.7134 71.32 78.4975 71.8666 78.0971C72.4133 77.6968 72.8181 77.1327 73.0226 76.4867L76.1372 66.651L74.7634 62.3123Z" stroke="#092F52" stroke-width="1.6" stroke-linecap="round" stroke-linejoin="round"/>
<path d="M71.7227 24.1553C110.577 24.1553 142.074 74.1611 142.074 135.846H158.627C158.627 74.1611 127.13 24.1553 88.2763 24.1553H71.7227Z" stroke="#092F52" stroke-width="1.6" stroke-linecap="round" stroke-linejoin="round"/>
<path d="M88.2767 24.1553C127.13 24.1553 158.627 74.1611 158.627 135.846H17.9258C17.9258 74.1611 49.4229 24.1553 88.2767 24.1553Z" stroke="#092F52" stroke-width="1.6" stroke-linecap="round" stroke-linejoin="round"/>
<path d="M71.724 24.1553C110.577 24.1553 142.074 74.1611 142.074 135.846H1.37305C1.37305 74.1611 32.8701 24.1553 71.724 24.1553Z" stroke="#092F52" stroke-width="1.6" stroke-linecap="round" stroke-linejoin="round"/>
</svg>
