<svg width="160" height="160" viewBox="0 0 160 160" fill="none" xmlns="http://www.w3.org/2000/svg">
<path d="M91.5445 132.937C91.3477 124.064 89.8944 104.296 81.1712 94.4657C80.8286 94.0802 80.4728 93.7066 80.1045 93.3457C93.5637 80.1345 125.963 80.1318 125.963 80.1318C125.963 80.1318 93.5637 80.1297 80.105 66.9185C80.4732 66.5572 80.829 66.1835 81.1717 65.7979C89.8949 55.9686 91.3477 36.2006 91.545 27.3265M91.5445 132.937C91.4826 135.718 91.5445 137.429 91.5445 137.429C91.5445 137.429 91.6064 135.718 91.5445 132.937ZM91.5445 132.937C91.7413 124.064 93.1946 104.296 101.918 94.4657C114.636 80.1345 148.843 80.1318 148.843 80.1318C148.843 80.1318 114.636 80.1297 101.918 65.7979C93.1946 55.9686 91.7418 36.2006 91.545 27.3265M91.545 27.3265C91.6064 24.5457 91.545 22.8347 91.545 22.8347C91.545 22.8347 91.4832 24.5457 91.545 27.3265Z" stroke="#092F52" stroke-width="1.6" stroke-linecap="round" stroke-linejoin="round"/>
<path d="M68.6659 146.131C72.5673 146.131 76.3897 145.793 80.1054 145.143C49.1081 139.726 25.5465 112.681 25.5465 80.1327C25.5465 47.5839 49.1081 20.5386 80.1054 15.1215C76.3279 14.4627 72.5004 14.1322 68.6659 14.1338C32.2158 14.1338 2.66699 43.6826 2.66699 80.1327C2.66699 116.583 32.2158 146.131 68.6659 146.131Z" stroke="#092F52" stroke-width="1.6" stroke-linecap="round" stroke-linejoin="round"/>
<path d="M91.5448 27.3269C91.6067 24.5461 91.5448 22.8351 91.5448 22.8351C91.5448 22.8351 91.483 24.5461 91.5448 27.3269ZM91.5448 27.3269C91.7416 36.2015 93.195 55.969 101.918 65.7983C114.637 80.1301 148.843 80.1327 148.843 80.1327C148.843 80.1327 114.636 80.1349 101.918 94.4666C93.1944 104.296 91.7411 124.064 91.5443 132.938M91.5448 27.3269C91.348 36.2005 89.8947 55.969 81.1715 65.7983C68.4531 80.1301 34.2467 80.1327 34.2467 80.1327C34.2467 80.1327 68.4531 80.1349 81.1715 94.4666C89.8942 104.296 91.3475 124.064 91.5443 132.938M91.5443 132.938C91.483 135.719 91.5443 137.43 91.5443 137.43C91.5443 137.43 91.6062 135.719 91.5443 132.938ZM157.543 80.1327C157.543 116.583 127.995 146.131 91.5448 146.131C55.0947 146.131 25.5459 116.583 25.5459 80.1327C25.5459 43.6826 55.0947 14.1338 91.5448 14.1338C127.995 14.1338 157.543 43.6826 157.543 80.1327Z" stroke="#092F52" stroke-width="1.6" stroke-linecap="round" stroke-linejoin="round"/>
</svg>
