<svg width="160" height="160" viewBox="0 0 160 160" fill="none" xmlns="http://www.w3.org/2000/svg">
<g clip-path="url(#clip0_348_29169)">
<path d="M146.172 52.5908C146.17 61.193 144.146 70.5535 140.247 80.0004C144.146 89.4474 146.17 98.8079 146.172 107.41C154.079 99.5087 158.666 90.0996 158.666 80.0004C158.666 69.9012 154.079 60.4927 146.172 52.5908Z" stroke="#092F52" stroke-width="1.6" stroke-linecap="round" stroke-linejoin="round"/>
<path d="M107.409 146.173C98.8069 146.171 89.4464 144.147 79.9994 140.248C70.5525 144.147 61.192 146.171 52.5898 146.173C60.4912 154.08 69.9002 158.667 79.9994 158.667C90.0986 158.667 99.5077 154.08 107.409 146.173Z" stroke="#092F52" stroke-width="1.6" stroke-linecap="round" stroke-linejoin="round"/>
<path d="M13.8269 107.41C13.8295 98.8079 15.8535 89.4474 19.7522 80.0004C15.8535 70.5535 13.8295 61.193 13.8269 52.5908C5.92074 60.4922 1.33301 69.9012 1.33301 80.0004C1.33301 90.0996 5.92074 99.5087 13.8269 107.41Z" stroke="#092F52" stroke-width="1.6" stroke-linecap="round" stroke-linejoin="round"/>
<path d="M79.9994 1.33301C90.0986 1.33301 99.5077 5.92074 107.409 13.8269C98.8069 13.8295 89.4464 15.853 79.9994 19.7522C70.553 15.853 61.192 13.8295 52.5898 13.8269C60.4917 5.92074 69.9002 1.33301 79.9994 1.33301Z" stroke="#092F52" stroke-width="1.6" stroke-linecap="round" stroke-linejoin="round"/>
<path d="M19.7522 79.9995C10.7869 58.2779 11.7373 37.0112 24.3741 24.3744C37.0109 11.7376 58.2776 10.7867 79.9992 19.752M19.7522 79.9995C24.8248 67.7094 33.0722 55.2736 44.173 44.1728C55.2738 33.072 67.7096 24.8251 79.9992 19.752M19.7522 79.9995C10.7869 101.722 11.7373 122.989 24.3741 135.626C37.0109 148.262 58.2776 149.213 79.9997 140.247M19.7522 79.9995C24.8253 92.2896 33.0722 104.725 44.173 115.826C55.2738 126.927 67.7096 135.174 79.9997 140.247M79.9992 19.752C101.721 10.7862 122.989 11.7376 135.626 24.3744C148.263 37.0112 149.213 58.2779 140.247 80M79.9992 19.752C92.2888 24.824 104.726 33.072 115.826 44.1728C126.927 55.2736 135.175 67.7099 140.247 80M79.9997 140.247C101.722 149.213 122.989 148.262 135.626 135.626C148.263 122.989 149.213 101.722 140.247 80M79.9997 140.247C92.2898 135.174 104.726 126.927 115.826 115.826C126.928 104.725 135.175 92.2896 140.247 80" stroke="#092F52" stroke-width="1.6" stroke-linecap="round" stroke-linejoin="round"/>
<path d="M79.9994 140.247C67.7093 135.174 55.2736 126.927 44.1728 115.826C33.072 104.725 24.8245 92.2896 19.752 80C24.8245 67.7098 33.072 55.2736 44.1733 44.1728C55.273 33.072 67.7088 24.825 79.9994 19.752C92.2895 24.825 104.725 33.072 115.826 44.1728C126.927 55.2736 135.174 67.7098 140.247 80C135.174 92.2896 126.927 104.725 115.826 115.826C104.725 126.927 92.2895 135.174 79.9994 140.247Z" stroke="#092F52" stroke-width="1.6" stroke-linecap="round" stroke-linejoin="round"/>
</g>
<defs>
<clipPath id="clip0_348_29169">
<rect width="160" height="160" fill="white"/>
</clipPath>
</defs>
</svg>
