<svg width="160" height="160" viewBox="0 0 160 160" fill="none" xmlns="http://www.w3.org/2000/svg">
<path d="M91.5445 132.937C91.3477 124.064 89.8944 104.296 81.1712 94.4659C80.8286 94.0804 80.4728 93.7068 80.1045 93.3459C93.5637 80.1347 125.963 80.132 125.963 80.132C125.963 80.132 93.5637 80.1299 80.105 66.9187C80.4732 66.5574 80.829 66.1837 81.1717 65.7982C89.8949 55.9688 91.3477 36.2008 91.545 27.3267M91.5445 132.937C91.4826 135.719 91.5445 137.43 91.5445 137.43C91.5445 137.43 91.6064 135.719 91.5445 132.937ZM91.5445 132.937C91.7413 124.064 93.1946 104.296 101.918 94.4659C114.636 80.1347 148.843 80.132 148.843 80.132C148.843 80.132 114.636 80.1299 101.918 65.7982C93.1946 55.9688 91.7418 36.2008 91.545 27.3267M91.545 27.3267C91.6064 24.5459 91.545 22.835 91.545 22.835C91.545 22.835 91.4832 24.5459 91.545 27.3267Z" stroke="#092F52" stroke-width="1.6" stroke-linecap="round" stroke-linejoin="round"/>
<path d="M68.6659 146.13C72.5673 146.13 76.3897 145.792 80.1054 145.142C49.1081 139.725 25.5465 112.68 25.5465 80.1318C25.5465 47.583 49.1081 20.5376 80.1054 15.1206C76.3279 14.4617 72.5004 14.1312 68.6659 14.1328C32.2158 14.1328 2.66699 43.6816 2.66699 80.1318C2.66699 116.582 32.2158 146.13 68.6659 146.13Z" stroke="#092F52" stroke-width="1.6" stroke-linecap="round" stroke-linejoin="round"/>
<path d="M91.5448 27.3259C91.6067 24.5451 91.5448 22.8341 91.5448 22.8341C91.5448 22.8341 91.483 24.5451 91.5448 27.3259ZM91.5448 27.3259C91.7416 36.2005 93.195 55.968 101.918 65.7973C114.637 80.1291 148.843 80.1318 148.843 80.1318C148.843 80.1318 114.636 80.1339 101.918 94.4656C93.1944 104.295 91.7411 124.063 91.5443 132.937M91.5448 27.3259C91.348 36.1995 89.8947 55.968 81.1715 65.7973C68.4531 80.1291 34.2467 80.1318 34.2467 80.1318C34.2467 80.1318 68.4531 80.1339 81.1715 94.4656C89.8942 104.295 91.3475 124.063 91.5443 132.937M91.5443 132.937C91.483 135.718 91.5443 137.429 91.5443 137.429C91.5443 137.429 91.6062 135.718 91.5443 132.937ZM157.543 80.1318C157.543 116.582 127.995 146.13 91.5448 146.13C55.0947 146.13 25.5459 116.582 25.5459 80.1318C25.5459 43.6816 55.0947 14.1328 91.5448 14.1328C127.995 14.1328 157.543 43.6816 157.543 80.1318Z" stroke="#092F52" stroke-width="1.6" stroke-linecap="round" stroke-linejoin="round"/>
<path d="M124.781 80.1328L147.551 80.144" stroke="#092F52" stroke-width="1.6" stroke-linecap="round" stroke-linejoin="round"/>
<path d="M32.0527 25.1328H54.9327" stroke="#092F52" stroke-width="1.6" stroke-linecap="round" stroke-linejoin="round"/>
<path d="M16.4346 39.8174H39.314" stroke="#092F52" stroke-width="1.6" stroke-linecap="round" stroke-linejoin="round"/>
<path d="M5.87402 59.3965H28.7535" stroke="#092F52" stroke-width="1.6" stroke-linecap="round" stroke-linejoin="round"/>
<path d="M2.66699 82.0566H25.547" stroke="#092F52" stroke-width="1.6" stroke-linecap="round" stroke-linejoin="round"/>
<path d="M7.72559 105.706H30.6056" stroke="#092F52" stroke-width="1.6" stroke-linecap="round" stroke-linejoin="round"/>
<path d="M19.166 123.855H42.046" stroke="#092F52" stroke-width="1.6" stroke-linecap="round" stroke-linejoin="round"/>
<path d="M40.1758 139.806H63.0552" stroke="#092F52" stroke-width="1.6" stroke-linecap="round" stroke-linejoin="round"/>
</svg>
