<svg width="160" height="160" viewBox="0 0 160 160" fill="none" xmlns="http://www.w3.org/2000/svg">
<path d="M153.897 115.921L157.33 100.4C157.33 100.4 138.234 48.2991 96.5473 32.8015C84.5638 28.3466 72.0182 27.4015 60.2235 28.3162L56.791 43.8367C68.5851 42.922 81.1308 43.8676 93.1137 48.322C134.801 63.8202 153.897 115.921 153.897 115.921Z" stroke="#092F52" stroke-width="1.6" stroke-linecap="round" stroke-linejoin="round"/>
<path d="M39.8429 46.3936C18.6323 51.0672 2.93359 59.7995 2.93359 59.7995L6.36719 44.2784C6.36719 44.2784 22.0648 35.5466 43.276 30.873L39.8429 46.3936Z" stroke="#092F52" stroke-width="1.6" stroke-linecap="round" stroke-linejoin="round"/>
<path d="M43.2754 30.873L54.8845 52.4501L51.4525 67.9733L39.8418 46.3936L43.2754 30.873Z" stroke="#092F52" stroke-width="1.6" stroke-linecap="round" stroke-linejoin="round"/>
<path d="M39.8429 46.3937L51.4536 67.9734L56.7901 43.8369C68.5843 42.9222 81.1299 43.8678 93.1133 48.3222C134.8 63.8203 153.896 115.921 153.896 115.921C153.896 115.921 105.403 142.896 63.716 127.398C22.0291 111.9 2.93359 59.7995 2.93359 59.7995C2.93359 59.7995 18.6317 51.0673 39.8429 46.3937Z" stroke="#092F52" stroke-width="1.6" stroke-linecap="round" stroke-linejoin="round"/>
</svg>
