<svg width="24" height="24" viewBox="0 0 24 24" fill="none" xmlns="http://www.w3.org/2000/svg">
<path d="M17.9459 8.03577H6.05301C4.5934 8.03577 3.41016 9.21901 3.41016 10.6786V17.9465C3.41016 19.4061 4.5934 20.5893 6.05301 20.5893H17.9459C19.4055 20.5893 20.5887 19.4061 20.5887 17.9465V10.6786C20.5887 9.21901 19.4055 8.03577 17.9459 8.03577Z" stroke="#DBB25A" stroke-width="1.5" stroke-linecap="round" stroke-linejoin="round"/>
<path d="M8.03516 20.5893V8.03577" stroke="#DBB25A" stroke-width="1.5" stroke-linecap="round" stroke-linejoin="round"/>
<path d="M15.9629 20.5892V8.03564" stroke="#DBB25A" stroke-width="1.5" stroke-linecap="round" stroke-linejoin="round"/>
<path d="M8.69531 8.03575C8.69531 7.15959 9.04336 6.31931 9.6629 5.69977C10.2824 5.08023 11.1227 4.73218 11.9989 4.73218C12.875 4.73218 13.7153 5.08023 14.3349 5.69977C14.9544 6.31931 15.3025 7.15959 15.3025 8.03575" stroke="#DBB25A" stroke-width="1.5" stroke-linecap="round" stroke-linejoin="round"/>
</svg>
