<svg width="24" height="24" viewBox="0 0 24 24" fill="none" xmlns="http://www.w3.org/2000/svg">
<path d="M6.71289 9.35707V4.73207C6.71289 4.3816 6.85212 4.0455 7.09992 3.79768C7.34774 3.54987 7.68385 3.41064 8.03432 3.41064H19.2665C19.6169 3.41064 19.9531 3.54987 20.2008 3.79768C20.4486 4.0455 20.5879 4.3816 20.5879 4.73207V15.3035C20.5879 15.654 20.4486 15.9901 20.2008 16.2379C19.9531 16.4857 19.6169 16.6249 19.2665 16.6249H17.2843" stroke="#DBB25A" stroke-width="1.5" stroke-linecap="round" stroke-linejoin="round"/>
<path d="M6.71289 7.375H20.5879" stroke="#DBB25A" stroke-width="1.5" stroke-linecap="round" stroke-linejoin="round"/>
<path d="M12.6602 12.6606H4.73158C4.00178 12.6606 3.41016 13.2523 3.41016 13.9821V19.2678C3.41016 19.9976 4.00178 20.5892 4.73158 20.5892H12.6602C13.39 20.5892 13.9816 19.9976 13.9816 19.2678V13.9821C13.9816 13.2523 13.39 12.6606 12.6602 12.6606Z" stroke="#DBB25A" stroke-width="1.5" stroke-linecap="round" stroke-linejoin="round"/>
<path d="M3.41016 15.9642H13.9816" stroke="#DBB25A" stroke-width="1.5" stroke-linecap="round" stroke-linejoin="round"/>
</svg>
