<svg width="24" height="24" viewBox="0 0 24 24" fill="none" xmlns="http://www.w3.org/2000/svg">
<path d="M3.47461 6.82629L6.37437 8.38687L8.96273 7.93873C9.83649 7.78745 10.7319 8.03757 11.4008 8.61975" stroke="#DBB25A" stroke-width="1.5" stroke-linecap="round" stroke-linejoin="round"/>
<path d="M17.659 15.016L13.5592 17.9277C12.6579 18.5678 11.4536 18.5793 10.5402 17.9567L3.47461 13.1401" stroke="#DBB25A" stroke-width="1.5" stroke-linecap="round" stroke-linejoin="round"/>
<path d="M20.4596 13.1092L17.5587 15.0915L13.0577 11.4572L11.4021 12.6622C10.7289 13.1521 9.78841 13.0201 9.27612 12.3637C8.76501 11.7089 8.86361 10.767 9.49927 10.2321L11.2232 8.78168C12.0494 8.08648 13.1235 7.75841 14.1972 7.8733L16.884 8.16076L20.4596 6.22803" stroke="#DBB25A" stroke-width="1.5" stroke-linecap="round" stroke-linejoin="round"/>
<path d="M13.0586 11.4669C14.1416 12.4318 15.6776 11.9396 16.2487 11.1519" stroke="#DBB25A" stroke-width="1.5" stroke-linecap="round" stroke-linejoin="round"/>
</svg>
