<svg width="24" height="24" viewBox="0 0 24 24" fill="none" xmlns="http://www.w3.org/2000/svg">
<path d="M19.2673 6.05347H4.73158C4.00178 6.05347 3.41016 6.6451 3.41016 7.3749V16.6249C3.41016 17.3547 4.00178 17.9463 4.73158 17.9463H19.2673C19.9971 17.9463 20.5887 17.3547 20.5887 16.6249V7.3749C20.5887 6.6451 19.9971 6.05347 19.2673 6.05347Z" stroke="#DBB25A" stroke-width="1.5" stroke-linecap="round" stroke-linejoin="round"/>
<path d="M8.69503 13.9821C9.78974 13.9821 10.6772 13.0947 10.6772 12C10.6772 10.9053 9.78974 10.0178 8.69503 10.0178C7.60032 10.0178 6.71289 10.9053 6.71289 12C6.71289 13.0947 7.60032 13.9821 8.69503 13.9821Z" stroke="#DBB25A" stroke-width="1.5" stroke-linecap="round" stroke-linejoin="round"/>
<path d="M13.9824 10.0178H17.286" stroke="#DBB25A" stroke-width="1.5" stroke-linecap="round" stroke-linejoin="round"/>
<path d="M13.9824 13.9819H17.286" stroke="#DBB25A" stroke-width="1.5" stroke-linecap="round" stroke-linejoin="round"/>
</svg>
