<svg width="24" height="24" viewBox="0 0 24 24" fill="none" xmlns="http://www.w3.org/2000/svg">
<path d="M20.8022 13.1424C21.7679 11.5951 22.0819 9.67834 21.6619 7.89521C20.7647 3.8349 15.7979 2.17599 12.7041 4.89709C12.459 5.11084 12.241 5.35787 12 5.60396C11.7591 5.35787 11.5407 5.11084 11.296 4.89709C8.20223 2.17599 3.23536 3.8349 2.33817 7.89521C1.91864 9.67787 2.2327 11.5951 3.19786 13.1424C4.88676 15.8546 7.6102 17.9658 10.2666 19.8802C10.7719 20.2428 11.3781 20.4378 12 20.4378C12.622 20.4378 13.2282 20.2428 13.7335 19.8802C16.3899 17.9663 19.1133 15.8546 20.8022 13.1424Z" stroke="#DBB25A" stroke-width="1.5" stroke-linecap="round" stroke-linejoin="round"/>
</svg>
