<svg width="24" height="24" viewBox="0 0 24 24" fill="none" xmlns="http://www.w3.org/2000/svg">
<path d="M16.1916 12.8541C16.653 12.0995 16.8 11.194 16.6008 10.3322C16.1738 8.38077 13.8085 7.58343 12.3352 8.89124C12.2185 8.99436 12.1149 9.11296 12 9.23108C11.8852 9.11249 11.7816 8.9939 11.6649 8.89124C10.1916 7.58343 7.82626 8.38077 7.39923 10.3322C7.20006 11.194 7.34699 12.0995 7.80845 12.8541C8.5547 14.0634 9.72564 15.0244 10.9008 15.8916C11.2194 16.1258 11.6045 16.2521 12 16.2521C12.3955 16.2521 12.7806 16.1258 13.0992 15.8916C14.2749 15.0244 15.4453 14.0634 16.1916 12.8541Z" stroke="#DBB25A" stroke-width="1.5" stroke-linecap="round" stroke-linejoin="round"/>
<path d="M7.04043 17.1487C7.07599 17.0938 7.09819 17.0312 7.10527 16.9662C7.11235 16.9011 7.1041 16.8353 7.08118 16.774C7.05827 16.7127 7.02133 16.6575 6.97331 16.6131C6.9253 16.5686 6.86754 16.5359 6.80465 16.5178C5.42184 16.1025 3.59371 15.885 2.69793 15.7978C2.63162 15.7907 2.56456 15.7987 2.5017 15.8209C2.43884 15.8432 2.38175 15.8792 2.33464 15.9264C2.28753 15.9736 2.25158 16.0308 2.22944 16.0937C2.2073 16.1566 2.19952 16.2237 2.20668 16.29C2.29715 17.1539 2.51606 18.8981 2.9309 20.3747C2.94803 20.4395 2.98026 20.4994 3.02497 20.5494C3.06968 20.5994 3.12558 20.6382 3.18812 20.6625C3.25066 20.6867 3.31806 20.6959 3.38481 20.6891C3.45155 20.6823 3.51575 20.6599 3.57215 20.6236C4.84481 19.8065 6.22809 18.4204 7.04043 17.1487Z" stroke="#DBB25A" stroke-width="1.5" stroke-linecap="round" stroke-linejoin="round"/>
<path d="M16.9592 6.85079C16.9235 6.90576 16.9012 6.96832 16.8941 7.03345C16.887 7.09857 16.8952 7.16447 16.9181 7.22585C16.941 7.28722 16.978 7.34238 17.0261 7.3869C17.0741 7.43141 17.132 7.46405 17.1949 7.4822C18.5777 7.89751 20.4059 8.11501 21.3017 8.2022C21.3679 8.20916 21.4349 8.2012 21.4977 8.1789C21.5605 8.15661 21.6176 8.12054 21.6646 8.07335C21.7117 8.02616 21.7476 7.96903 21.7697 7.90616C21.7918 7.84329 21.7996 7.77627 21.7924 7.71001C21.7024 6.84611 21.4835 5.10189 21.0687 3.62532C21.0516 3.56046 21.0193 3.50057 20.9746 3.45055C20.9299 3.40053 20.874 3.3618 20.8115 3.33753C20.7489 3.31325 20.6815 3.30412 20.6148 3.31088C20.548 3.31764 20.4838 3.3401 20.4274 3.37642C19.1548 4.19345 17.7715 5.57954 16.9592 6.85079Z" stroke="#DBB25A" stroke-width="1.5" stroke-linecap="round" stroke-linejoin="round"/>
<path d="M18.6066 4.85766C16.86 3.18328 14.4989 2.15625 11.9016 2.15625C9.21049 2.15625 6.7744 3.25781 5.01096 5.03906C3.17708 6.89107 2.15077 9.39365 2.15627 12M5.39299 19.1423C7.14002 20.8167 9.50158 21.8438 12.0989 21.8438C14.79 21.8438 17.2261 20.7422 18.9896 18.9609C20.8233 17.1089 21.8495 14.6063 21.8438 12" stroke="#DBB25A" stroke-width="1.5" stroke-linecap="round" stroke-linejoin="round"/>
</svg>
