<svg width="24" height="24" viewBox="0 0 24 24" fill="none" xmlns="http://www.w3.org/2000/svg">
<path d="M2.15625 13.6706C2.15625 13.6706 4.96875 12.4688 7.3125 12.4688C8.96578 12.4688 10.7813 13.1334 11.9972 13.6814C12.93 14.1014 13.4667 14.3667 13.68 15.3675C13.8286 16.0627 13.3294 17.2214 12.6206 17.2786L12.1214 17.3189M12.1214 17.3189C10.9767 17.3189 9.20484 16.9795 9.20484 16.9795M12.1214 17.3189C13.7091 17.3189 17.8884 16.5647 19.3697 16.2877C19.7231 16.222 20.0892 16.1737 20.4253 16.3003C20.8481 16.4602 21.4153 16.8459 21.6863 17.7769C21.8981 18.5044 21.3895 19.2042 20.6831 19.4775C18.6112 20.2791 14.2908 21.8438 12.1214 21.8438C6.375 21.8438 2.15625 20.4014 2.15625 20.4014" stroke="#DBB25A" stroke-width="1.5" stroke-linecap="round" stroke-linejoin="round"/>
<path d="M14.8716 11.5218C14.8866 11.9545 15.1547 12.3267 15.5822 12.3923C15.8588 12.4345 16.2239 12.4687 16.6875 12.4687C17.0573 12.4714 17.4269 12.4459 17.7928 12.3923C18.2203 12.3267 18.4884 11.9545 18.5034 11.5223C18.5208 11.0254 18.5409 10.2553 18.5527 9.17761C19.3344 9.17043 20.116 9.15402 20.8973 9.12839C21.3295 9.11339 21.7017 8.84526 21.7673 8.41776C21.8095 8.1412 21.8438 7.77604 21.8438 7.31245C21.8465 6.9426 21.8209 6.57309 21.7673 6.20714C21.7017 5.77964 21.3295 5.51151 20.8973 5.49651C20.4005 5.47917 19.6303 5.45901 18.5527 5.44729C18.5454 4.66557 18.529 3.88395 18.5034 3.10261C18.4884 2.67042 18.2203 2.29823 17.7928 2.23261C17.4268 2.17915 17.0573 2.15361 16.6875 2.1562C16.3177 2.1535 15.9481 2.17904 15.5822 2.23261C15.1547 2.29823 14.8866 2.67042 14.8716 3.10261C14.8542 3.59948 14.8341 4.36964 14.8223 5.44729C14.0406 5.45447 13.259 5.47088 12.4777 5.49651C12.0455 5.51151 11.6733 5.77964 11.6077 6.20714C11.5655 6.4837 11.5312 6.84886 11.5312 7.31245C11.5312 7.77651 11.565 8.14167 11.6077 8.41776C11.6733 8.84526 12.0455 9.11339 12.4777 9.12839C12.9745 9.14573 13.7447 9.16589 14.8223 9.17761C14.8341 10.2553 14.8542 11.0254 14.8716 11.5218Z" stroke="#DBB25A" stroke-width="1.5" stroke-linecap="round" stroke-linejoin="round"/>
</svg>
