<svg width="24" height="24" viewBox="0 0 24 24" fill="none" xmlns="http://www.w3.org/2000/svg">
<path d="M2.43094 7.42312C2.52938 6.42328 3.21375 5.61938 4.20516 5.45625C5.60297 5.22563 8.04844 4.96875 12 4.96875C15.9516 4.96875 18.397 5.22563 19.7953 5.45625C20.7863 5.61938 21.4711 6.42328 21.5691 7.42312C21.6984 8.73422 21.8438 10.7934 21.8438 13.4062C21.8438 16.0191 21.6984 18.0783 21.5691 19.3894C21.4706 20.3892 20.7862 21.1931 19.7948 21.3563C18.397 21.5869 15.9516 21.8438 12 21.8438C8.04844 21.8438 5.60344 21.5869 4.20469 21.3563C3.21375 21.1931 2.52891 20.3892 2.43094 19.3894C2.30156 18.0783 2.15625 16.0191 2.15625 13.4062C2.15625 10.7939 2.30156 8.73422 2.43094 7.42312Z" stroke="#DBB25A" stroke-width="1.5" stroke-linecap="round" stroke-linejoin="round"/>
<path d="M10.1812 17.146C10.1972 17.5908 10.4803 17.9686 10.9214 18.0282C11.1942 18.0652 11.5509 18.0938 12 18.0938C12.4491 18.0938 12.8058 18.0652 13.0786 18.0282C13.5192 17.9686 13.8028 17.5908 13.8192 17.146C13.8347 16.7218 13.852 16.103 13.8633 15.2696C14.6967 15.2583 15.3155 15.241 15.7397 15.2255C16.1845 15.2091 16.5623 14.9255 16.6219 14.4849C16.6589 14.2121 16.6875 13.8553 16.6875 13.4063C16.6875 12.9572 16.6589 12.6005 16.6219 12.3277C16.5623 11.8871 16.1845 11.6035 15.7397 11.5871C15.3155 11.5716 14.6967 11.5543 13.8633 11.543C13.8557 10.9174 13.841 10.2919 13.8192 9.66659C13.8028 9.22175 13.5192 8.84394 13.0786 8.78441C12.7209 8.73847 12.3606 8.71655 12 8.71878C11.5509 8.71878 11.1942 8.74738 10.9214 8.78441C10.4808 8.84394 10.1972 9.22175 10.1808 9.66659C10.1653 10.0908 10.148 10.7096 10.1367 11.543C9.30328 11.5543 8.68453 11.5716 8.26031 11.5871C7.81547 11.6035 7.43766 11.8871 7.37813 12.3277C7.34109 12.6005 7.3125 12.9572 7.3125 13.4063C7.3125 13.8553 7.34109 14.2121 7.37813 14.4849C7.43766 14.9255 7.81547 15.2091 8.26031 15.2255C8.68453 15.241 9.30328 15.2583 10.1367 15.2696C10.148 16.103 10.1658 16.7218 10.1812 17.146Z" stroke="#DBB25A" stroke-width="1.5" stroke-linecap="round" stroke-linejoin="round"/>
<path d="M8.5957 5.04098C8.80992 4.38144 9.17602 3.61129 9.4507 3.07129C9.67477 2.63066 10.0788 2.31379 10.5682 2.24816C11.0428 2.18571 11.5211 2.15501 11.9998 2.15629C12.5834 2.15629 13.0676 2.19894 13.4309 2.24816C13.9202 2.31379 14.3243 2.63113 14.5484 3.07129C14.823 3.61082 15.1891 4.38144 15.4034 5.04098" stroke="#DBB25A" stroke-width="1.5" stroke-linecap="round" stroke-linejoin="round"/>
</svg>
