<svg width="24" height="24" viewBox="0 0 24 24" fill="none" xmlns="http://www.w3.org/2000/svg">
<path d="M6.62109 4.03125C6.87984 3.0825 7.69453 2.39719 8.71781 2.32359C9.91594 2.23734 11.6878 2.15625 14.1089 2.15625C16.5155 2.15625 18.2798 2.23641 19.4775 2.32219C20.6761 2.4075 21.5925 3.32344 21.6778 4.5225C21.7636 5.72016 21.8438 7.485 21.8438 9.89062C21.8438 12.3117 21.7627 14.0831 21.6764 15.2812C21.6028 16.3045 20.917 17.1197 19.9688 17.378" stroke="#DBB25A" stroke-width="1.5" stroke-linecap="round" stroke-linejoin="round"/>
<path d="M17.4591 8.74078C17.3738 7.54219 16.4578 6.62672 15.2587 6.54094C14.0611 6.45469 12.2963 6.375 9.89062 6.375C7.48453 6.375 5.72016 6.45516 4.5225 6.54094C3.32344 6.62625 2.4075 7.54219 2.32219 8.74125C2.23594 9.93844 2.15625 11.7033 2.15625 14.1094C2.15625 16.5155 2.23641 18.2798 2.32219 19.478C2.4075 20.6766 3.32344 21.592 4.5225 21.6778C5.72016 21.7636 7.485 21.8438 9.89062 21.8438C12.2967 21.8438 14.0611 21.7636 15.2587 21.6778C16.4578 21.5925 17.3738 20.6766 17.4591 19.4775C17.5448 18.2798 17.625 16.515 17.625 14.1094C17.625 11.7033 17.5448 9.93891 17.4591 8.74078Z" stroke="#DBB25A" stroke-width="1.5" stroke-linecap="round" stroke-linejoin="round"/>
<path d="M10.6369 18.294C11.1347 18.2443 11.4562 17.8304 11.4783 17.3307C11.4942 16.9613 11.5102 16.4447 11.5205 15.7393C12.0511 15.7326 12.5816 15.7186 13.1119 15.6971C13.612 15.675 14.0259 15.3535 14.0752 14.8557C14.0953 14.6513 14.1094 14.4043 14.1094 14.1094C14.1094 13.815 14.0953 13.5675 14.0752 13.3632C14.0255 12.8654 13.612 12.5438 13.1119 12.5218C12.7425 12.5058 12.2259 12.4899 11.5205 12.4796C11.5139 11.9489 11.4999 11.4184 11.4783 10.8882C11.4562 10.388 11.1347 9.97411 10.6369 9.92489C10.3888 9.9012 10.1398 9.88978 9.89062 9.89067C9.59625 9.89067 9.34875 9.90474 9.14437 9.92489C8.64656 9.97458 8.325 10.388 8.30297 10.8882C8.28703 11.2575 8.27109 11.7741 8.26078 12.4796C7.73014 12.4862 7.19962 12.5003 6.66937 12.5218C6.16969 12.5438 5.75531 12.8654 5.70609 13.3632C5.68594 13.5675 5.67188 13.8146 5.67188 14.1094C5.67188 14.4038 5.68594 14.6513 5.70609 14.8557C5.75578 15.3535 6.16969 15.675 6.66937 15.6971C7.03875 15.713 7.55531 15.729 8.26078 15.7393C8.27109 16.4443 8.28703 16.9613 8.30297 17.3307C8.325 17.8304 8.64656 18.2447 9.14437 18.294C9.34875 18.3141 9.59578 18.3282 9.89062 18.3282C10.185 18.3282 10.4325 18.3141 10.6369 18.294Z" stroke="#DBB25A" stroke-width="1.5" stroke-linecap="round" stroke-linejoin="round"/>
</svg>
