<svg width="24" height="24" viewBox="0 0 24 24" fill="none" xmlns="http://www.w3.org/2000/svg">
<path d="M7.82414 16.1971C7.36148 15.7344 7.10156 15.1069 7.10156 14.4526C7.10156 13.7983 7.36148 13.1708 7.82414 12.7082L12.7085 7.82382C13.1712 7.3611 13.7987 7.10112 14.453 7.10107C15.1074 7.10103 15.7349 7.36092 16.1977 7.82358C16.6604 8.28624 16.9204 8.91376 16.9204 9.5681C16.9204 10.2224 16.6605 10.85 16.1979 11.3127L11.3135 16.1971C11.0844 16.4263 10.8124 16.608 10.5131 16.7321C10.2137 16.8561 9.89286 16.9199 9.56883 16.9199C9.2448 16.9199 8.92394 16.8561 8.62458 16.7321C8.32522 16.608 8.05323 16.4263 7.82414 16.1971Z" stroke="#DBB25A" stroke-width="1.5" stroke-linecap="round" stroke-linejoin="round"/>
<path d="M4.33473 19.6865C1.44441 16.7962 1.44441 12.1097 4.33473 9.21936L5.45129 8.1028C5.6254 7.92868 5.8321 7.79056 6.05959 7.69632C6.28709 7.60209 6.53091 7.55359 6.77715 7.55359C7.02338 7.55359 7.26721 7.60209 7.4947 7.69632C7.72219 7.79056 7.9289 7.92868 8.10301 8.1028L8.94019 8.94045C9.11431 9.11457 9.25244 9.32127 9.34667 9.54876C9.4409 9.77625 9.4894 10.0201 9.4894 10.2663C9.4894 10.5125 9.4409 10.7564 9.34667 10.9839C9.25244 11.2114 9.11431 11.4181 8.94019 11.5922L7.82363 12.7087C7.36097 13.1715 7.10108 13.799 7.10113 14.4534C7.10117 15.1077 7.36115 15.7352 7.82387 16.1979C8.28659 16.6605 8.91414 16.9204 9.56849 16.9204C10.2228 16.9203 10.8504 16.6604 11.313 16.1976L12.4296 15.0811C12.6037 14.907 12.8104 14.7688 13.0379 14.6746C13.2654 14.5804 13.5092 14.5319 13.7554 14.5319C14.0017 14.5319 14.2455 14.5804 14.473 14.6746C14.7005 14.7688 14.9072 14.907 15.0813 15.0811L15.9185 15.9183C16.0926 16.0924 16.2307 16.2991 16.325 16.5266C16.4192 16.7541 16.4677 16.9979 16.4677 17.2441C16.4677 17.4904 16.4192 17.7342 16.325 17.9617C16.2307 18.1892 16.0926 18.3959 15.9185 18.57L14.8019 19.6865C11.9116 22.5769 7.22504 22.5769 4.33473 19.6865Z" stroke="#DBB25A" stroke-width="1.5" stroke-linecap="round" stroke-linejoin="round"/>
<path d="M19.6876 4.33497C16.7969 1.44466 12.1108 1.44466 9.22046 4.33497L8.1039 5.45153C7.92978 5.62564 7.79166 5.83235 7.69742 6.05984C7.60319 6.28733 7.55469 6.53116 7.55469 6.77739C7.55469 7.02363 7.60319 7.26745 7.69742 7.49495C7.79166 7.72244 7.92978 7.92914 8.1039 8.10325L8.94108 8.94044C9.1152 9.11456 9.3219 9.25268 9.54939 9.34691C9.77688 9.44115 10.0207 9.48965 10.2669 9.48965C10.5132 9.48965 10.757 9.44115 10.9845 9.34691C11.212 9.25268 11.4187 9.11456 11.5928 8.94044L12.7094 7.82435C13.1722 7.36266 13.7994 7.10356 14.4532 7.10398C15.1069 7.10439 15.7338 7.36428 16.1961 7.82656C16.6583 8.28883 16.9182 8.91569 16.9186 9.56945C16.9191 10.2232 16.66 10.8504 16.1983 11.3133L15.0817 12.4298C14.9076 12.6039 14.7695 12.8106 14.6752 13.0381C14.581 13.2656 14.5325 13.5094 14.5325 13.7557C14.5325 14.0019 14.581 14.2457 14.6752 14.4732C14.7695 14.7007 14.9076 14.9074 15.0817 15.0815L15.9194 15.9187C16.0935 16.0928 16.3002 16.231 16.5277 16.3252C16.7552 16.4194 16.999 16.4679 17.2452 16.4679C17.4915 16.4679 17.7353 16.4194 17.9628 16.3252C18.1903 16.231 18.397 16.0928 18.5711 15.9187L19.6876 14.8022C22.578 11.9118 22.578 7.22528 19.6876 4.33497Z" stroke="#DBB25A" stroke-width="1.5" stroke-linecap="round" stroke-linejoin="round"/>
</svg>
