<svg width="24" height="24" viewBox="0 0 24 24" fill="none" xmlns="http://www.w3.org/2000/svg">
<path d="M10.955 3.80581L11.6863 2.34847C11.7156 2.29017 11.7605 2.24116 11.8161 2.20692C11.8716 2.17268 11.9356 2.15454 12.0008 2.15454C12.0661 2.15454 12.13 2.17268 12.1856 2.20692C12.2411 2.24116 12.2861 2.29017 12.3154 2.34847L13.0457 3.80535C17.7519 4.33785 21.4729 8.37472 21.8394 11.9353C21.8769 12.2986 21.7208 12.6455 21.4021 12.8255C20.4669 13.3528 17.9235 14.3424 12.0008 14.3424C6.07817 14.3424 3.5352 13.3528 2.60005 12.8255C2.2813 12.6455 2.1252 12.2986 2.1627 11.9353C2.52833 8.37519 6.2488 4.33785 10.955 3.80581Z" stroke="#DBB25A" stroke-width="1.5" stroke-linecap="round" stroke-linejoin="round"/>
<path d="M10.6813 14.3429L10.5923 18.0929C10.5923 18.3415 10.4935 18.58 10.3177 18.7558C10.1419 18.9316 9.90341 19.0304 9.65477 19.0304C9.40613 19.0304 9.16767 18.9316 8.99185 18.7558C8.81604 18.58 8.71727 18.3415 8.71727 18.0929V17.7901C8.71727 17.2576 8.40461 16.7776 7.87539 16.7171C7.71133 16.6984 7.52289 16.6866 7.31055 16.6866C7.0982 16.6866 6.91023 16.6988 6.7457 16.7171C6.21648 16.7771 5.9043 17.2576 5.9043 17.7906V18.0929C5.9043 19.0875 6.29939 20.0413 7.00265 20.7445C7.70591 21.4478 8.65973 21.8429 9.6543 21.8429C10.6489 21.8429 11.6027 21.4478 12.3059 20.7445C13.0092 20.0413 13.4043 19.0875 13.4043 18.0929L13.3148 14.3429" stroke="#DBB25A" stroke-width="1.5" stroke-linecap="round" stroke-linejoin="round"/>
</svg>
