<svg width="24" height="24" viewBox="0 0 24 24" fill="none" xmlns="http://www.w3.org/2000/svg">
<path d="M9.1875 4.96875C9.1875 5.71467 9.48382 6.43004 10.0113 6.95749C10.5387 7.48493 11.2541 7.78125 12 7.78125C12.7459 7.78125 13.4613 7.48493 13.9887 6.95749C14.5162 6.43004 14.8125 5.71467 14.8125 4.96875C14.8125 4.22283 14.5162 3.50746 13.9887 2.98001C13.4613 2.45257 12.7459 2.15625 12 2.15625C11.2541 2.15625 10.5387 2.45257 10.0113 2.98001C9.48382 3.50746 9.1875 4.22283 9.1875 4.96875Z" stroke="#DBB25A" stroke-width="1.5" stroke-linecap="round" stroke-linejoin="round"/>
<path d="M4.03973 6.1997L8.4652 7.57127C8.91454 7.71051 9.38228 7.7813 9.8527 7.78127H14.1385C14.6152 7.78126 15.089 7.70855 15.5438 7.56564L19.9027 6.19595C20.4582 6.02158 21.0915 6.19595 21.3404 6.72236C21.6755 7.43111 21.6727 8.03486 21.5813 8.46799C21.4768 8.9672 21.046 9.29299 20.5763 9.49314L15.795 11.5313L15.3966 20.0935C15.3558 20.9775 14.7015 21.7088 13.8188 21.7749C13.2136 21.8204 12.6069 21.8434 12 21.8438C11.3175 21.8438 10.6969 21.8138 10.1822 21.7749C9.29958 21.7092 8.64473 20.9775 8.60395 20.0935L8.20551 11.5313L3.40551 9.51564C2.89645 9.30142 2.4352 8.93814 2.34989 8.39252C2.28426 7.97345 2.30208 7.41049 2.58895 6.75658C2.82801 6.21283 3.47255 6.02345 4.03973 6.1997Z" stroke="#DBB25A" stroke-width="1.5" stroke-linecap="round" stroke-linejoin="round"/>
<path d="M12 21.8438V15.75" stroke="#DBB25A" stroke-width="1.5" stroke-linecap="round" stroke-linejoin="round"/>
</svg>
