<svg width="24" height="24" viewBox="0 0 24 24" fill="none" xmlns="http://www.w3.org/2000/svg">
<path d="M19.024 8.71876C19.018 8.2546 19.0075 7.79052 18.9926 7.32657C18.8661 6.95954 18.387 5.87626 16.7787 4.32751C15.0593 2.67188 13.8926 2.25891 13.5959 2.17501C13.0641 2.16229 12.5322 2.15604 12.0003 2.15626C9.76059 2.15626 8.16309 2.26032 7.10512 2.3686C6.07199 2.47454 5.29949 3.24516 5.1959 4.27829C5.12788 4.97579 5.07786 5.67493 5.0459 6.37501" stroke="#DBB25A" stroke-width="1.5" stroke-linecap="round" stroke-linejoin="round"/>
<path d="M13.9373 2.39062C13.8248 3.06234 13.8829 4.24547 13.9678 5.24859C14.0095 5.75749 14.2307 6.23502 14.5918 6.59604C14.9529 6.95705 15.4304 7.17807 15.9393 7.21969C16.9425 7.30406 18.1251 7.36266 18.7968 7.25063" stroke="#DBB25A" stroke-width="1.5" stroke-linecap="round" stroke-linejoin="round"/>
<path d="M6.39234 7.89422C7.25016 7.80281 8.09062 8.15766 8.66484 8.80266L9.56578 9.81516C9.74172 10.0127 9.95747 10.1709 10.1989 10.2791C10.4403 10.3874 10.7018 10.4433 10.9664 10.4433H18.5967C20.0578 10.4433 21.2761 11.5627 21.3295 13.0228C21.3577 13.7883 21.375 14.617 21.375 15.4598C21.375 17.0742 21.2512 18.5184 21.1341 19.5239C21.0277 20.438 20.415 21.1744 19.5098 21.3403C18.2161 21.5775 15.8958 21.8438 12 21.8438C8.10375 21.8438 5.78437 21.5775 4.49016 21.3403C3.58547 21.1744 2.97281 20.438 2.86594 19.5239C2.70836 18.1749 2.62792 16.818 2.625 15.4598C2.625 13.0266 2.75953 11.1895 2.88094 10.028C2.97656 9.11297 3.58172 8.36438 4.48312 8.18109C5.11451 8.05551 5.75194 7.95978 6.39234 7.89422Z" stroke="#DBB25A" stroke-width="1.5" stroke-linecap="round" stroke-linejoin="round"/>
</svg>
