<svg width="24" height="24" viewBox="0 0 24 24" fill="none" xmlns="http://www.w3.org/2000/svg">
<path d="M7.18753 9.87666C7.24444 10.4246 7.59502 10.8803 8.09555 11.1103C9.13472 11.5879 10.9591 12.3516 12 12.3516C13.0409 12.3516 14.8653 11.5879 15.9045 11.1103C16.405 10.8803 16.7556 10.4246 16.8125 9.87666C16.8684 9.33881 16.9219 8.53514 16.9219 7.42969C16.9219 6.32423 16.8684 5.52056 16.8125 4.9827C16.7556 4.4348 16.405 3.97908 15.9045 3.74905C14.8653 3.27147 13.0409 2.50781 12 2.50781C10.9591 2.50781 9.13472 3.27147 8.09555 3.74905C7.59502 3.97908 7.24444 4.4348 7.18753 4.9827C7.13161 5.52056 7.07812 6.32423 7.07812 7.42969C7.07812 8.53514 7.13161 9.33881 7.18753 9.87666Z" stroke="#DBB25A" stroke-width="1.5" stroke-linejoin="round"/>
<path d="M7.07812 4.47668C7.07812 4.47668 11.0062 6.44544 12 6.44544C12.9938 6.44544 16.9219 4.47668 16.9219 4.47668" stroke="#DBB25A" stroke-width="1.5" stroke-linejoin="round"/>
<path d="M12 6.44556V12.3518" stroke="#DBB25A" stroke-width="1.5" stroke-linecap="round" stroke-linejoin="round"/>
<path d="M2.26563 18.4313C2.32255 18.9793 2.67315 19.435 3.17367 19.665C4.21286 20.1426 6.03727 20.9062 7.07812 20.9062C8.11898 20.9062 9.94341 20.1426 10.9826 19.665C11.4831 19.435 11.8337 18.9793 11.8906 18.4313C11.9465 17.8935 12 17.0898 12 15.9844C12 14.8789 11.9465 14.0752 11.8906 13.5374C11.8337 12.9895 11.4831 12.5338 10.9826 12.3038C9.94341 11.8261 8.11898 11.0625 7.07812 11.0625C6.03727 11.0625 4.21286 11.8261 3.17368 12.3038C2.67315 12.5338 2.32255 12.9895 2.26563 13.5374C2.20975 14.0752 2.15625 14.8789 2.15625 15.9844C2.15625 17.0898 2.20975 17.8935 2.26563 18.4313Z" stroke="#DBB25A" stroke-width="1.5" stroke-linejoin="round"/>
<path d="M2.15625 13.0315C2.15625 13.0315 6.08433 15.0002 7.07812 15.0002C8.07192 15.0002 12 13.0315 12 13.0315" stroke="#DBB25A" stroke-width="1.5" stroke-linejoin="round"/>
<path d="M7.07812 15.0002V20.9065" stroke="#DBB25A" stroke-width="1.5" stroke-linecap="round" stroke-linejoin="round"/>
<path d="M12.1094 18.4313C12.1663 18.9793 12.5169 19.435 13.0174 19.665C14.0566 20.1426 15.881 20.9062 16.9219 20.9062C17.9627 20.9062 19.7872 20.1426 20.8263 19.665C21.3269 19.435 21.6774 18.9793 21.7343 18.4313C21.7903 17.8935 21.8438 17.0898 21.8438 15.9844C21.8438 14.8789 21.7903 14.0752 21.7343 13.5374C21.6774 12.9895 21.3269 12.5338 20.8263 12.3038C19.7872 11.8261 17.9627 11.0625 16.9219 11.0625C15.881 11.0625 14.0566 11.8261 13.0174 12.3038C12.5169 12.5338 12.1663 12.9895 12.1094 13.5374C12.0535 14.0752 12 14.8789 12 15.9844C12 17.0898 12.0535 17.8935 12.1094 18.4313Z" stroke="#DBB25A" stroke-width="1.5" stroke-linejoin="round"/>
<path d="M12 13.0315C12 13.0315 15.9281 15.0002 16.9219 15.0002C17.9157 15.0002 21.8438 13.0315 21.8438 13.0315" stroke="#DBB25A" stroke-width="1.5" stroke-linejoin="round"/>
<path d="M16.9219 15.0002V20.9065" stroke="#DBB25A" stroke-width="1.5" stroke-linecap="round" stroke-linejoin="round"/>
</svg>
