<svg width="24" height="24" viewBox="0 0 24 24" fill="none" xmlns="http://www.w3.org/2000/svg">
<path d="M21.5057 9.18744C21.5932 9.04016 21.6546 8.87225 21.684 8.68503C21.7717 8.12792 21.8438 7.31342 21.8438 6.1415C21.8438 4.96952 21.7717 4.15504 21.684 3.59791C21.5688 2.86541 20.9644 2.42741 20.225 2.37151C18.9619 2.27601 16.4881 2.1571 12 2.1571C7.51191 2.1571 5.03809 2.27601 3.77501 2.3715C3.03562 2.42741 2.43123 2.86541 2.316 3.59791C2.22835 4.15504 2.15625 4.96952 2.15625 6.1415C2.15625 7.31342 2.22835 8.12792 2.316 8.68503C2.34544 8.87225 2.40683 9.04016 2.49425 9.18744" stroke="#DBB25A" stroke-width="1.5" stroke-linecap="round" stroke-linejoin="round"/>
<path d="M17.7731 5.41999C18.4777 5.47869 19.0129 6.06721 19.0203 6.77422C19.0486 9.50038 19.0308 13.3873 18.8603 18.3114C18.8167 19.5692 17.9275 20.6099 16.674 20.7227C15.5847 20.8207 14.0415 20.9062 11.9731 20.9062C9.91631 20.9062 8.38852 20.8216 7.31142 20.7243C6.06459 20.6117 5.18366 19.5763 5.14027 18.3252C4.96924 13.3946 4.95132 9.50291 4.97972 6.77422C4.98708 6.06721 5.52225 5.47864 6.22687 5.41995C7.67348 5.29941 9.58214 5.20398 11.9998 5.20398C14.4177 5.20398 16.3265 5.29943 17.7731 5.41999Z" stroke="#DBB25A" stroke-width="1.5" stroke-linecap="round" stroke-linejoin="round"/>
<path d="M12.4688 20.9047V5.20532" stroke="#DBB25A" stroke-width="1.5" stroke-linecap="round" stroke-linejoin="round"/>
<path d="M15.75 20.7934V5.28821" stroke="#DBB25A" stroke-width="1.5" stroke-linecap="round" stroke-linejoin="round"/>
<path d="M8.82234 18.0938C8.28652 18.0938 7.83881 17.7249 7.80727 17.19C7.79198 16.931 7.78125 16.61 7.78125 16.2188C7.78125 15.8275 7.79198 15.5065 7.80727 15.2475C7.83881 14.7126 8.28652 14.3438 8.82234 14.3438H9.08391C9.61973 14.3438 10.0674 14.7126 10.099 15.2475C10.1143 15.5065 10.125 15.8275 10.125 16.2188C10.125 16.61 10.1143 16.931 10.099 17.19C10.0674 17.7249 9.61973 18.0938 9.08391 18.0938H8.82234Z" stroke="#DBB25A" stroke-width="1.5" stroke-linecap="round" stroke-linejoin="round"/>
</svg>
