<svg width="24" height="24" viewBox="0 0 24 24" fill="none" xmlns="http://www.w3.org/2000/svg">
<path d="M13.0289 14.6156C13.0973 13.8413 13.5787 13.2234 14.3484 13.1147C15.0225 13.0195 16.0575 12.9375 17.625 12.9375C19.1925 12.9375 20.2275 13.0195 20.9016 13.1147C21.6712 13.2234 22.1531 13.8413 22.2206 14.6156C22.2814 15.3046 22.3121 15.9959 22.3125 16.6875C22.3125 18.8034 21.1955 20.7834 19.3144 21.7519C18.6858 22.0753 18.0722 22.3125 17.625 22.3125C17.1778 22.3125 16.5642 22.0753 15.9356 21.7519C14.0541 20.7834 12.9375 18.8034 12.9375 16.6875C12.9375 15.8869 12.9802 15.172 13.0289 14.6156Z" stroke="#DBB25A" stroke-width="1.5" stroke-linecap="round" stroke-linejoin="round"/>
<path d="M15.9844 17.047L17.5284 18.7969L19.7344 15.5156" stroke="#DBB25A" stroke-width="1.5" stroke-linecap="round" stroke-linejoin="round"/>
<path d="M11.5067 11.9189C12.3599 11.4893 13.077 10.8311 13.578 10.0177C14.079 9.20435 14.3442 8.26779 14.344 7.3125C14.344 4.46484 12.0354 2.15625 9.18778 2.15625C6.34013 2.15625 4.03153 4.46484 4.03153 7.3125C4.03134 8.26779 4.29654 9.20435 4.79754 10.0177C5.29854 10.8311 6.01565 11.4893 6.86888 11.9189C4.51716 12.7327 2.73544 14.7492 2.27372 17.2247C2.12466 18.0244 2.59013 18.6778 3.39731 18.7823C4.37934 18.9094 6.12075 19.0312 9.18778 19.0312C9.69169 19.0312 10.1595 19.028 10.594 19.0219" stroke="#DBB25A" stroke-width="1.5" stroke-linecap="round" stroke-linejoin="round"/>
</svg>
