<svg width="24" height="24" viewBox="0 0 24 24" fill="none" xmlns="http://www.w3.org/2000/svg">
<path d="M2.40889 4.62055C2.5062 3.42276 3.42275 2.50621 4.62055 2.40889C6.13378 2.28594 8.54813 2.15625 12 2.15625C15.4519 2.15625 17.8662 2.28594 19.3794 2.40889C20.5772 2.5062 21.4938 3.42275 21.5911 4.62055C21.714 6.13378 21.8438 8.54813 21.8438 12C21.8438 15.4519 21.714 17.8662 21.5911 19.3794C21.4938 20.5772 20.5772 21.4938 19.3794 21.5911C17.8662 21.714 15.4519 21.8438 12 21.8438C8.54813 21.8438 6.13378 21.714 4.62055 21.5911C3.42276 21.4938 2.50621 20.5772 2.40889 19.3794C2.28594 17.8662 2.15625 15.4519 2.15625 12C2.15625 8.54813 2.28594 6.13378 2.40889 4.62055Z" stroke="#DBB25A" stroke-width="1.5" stroke-linecap="round" stroke-linejoin="round"/>
<path d="M4.99928 9.17367C4.98699 9.6967 5.40943 10.125 5.93257 10.125H18.0657C18.5889 10.125 19.0113 9.6967 18.999 9.17367C18.9695 7.91752 18.9239 6.97444 18.8834 6.32334C18.8426 5.66691 18.3322 5.15656 17.6758 5.11573C16.6049 5.04912 14.744 4.96875 11.9991 4.96875C9.25427 4.96875 7.39343 5.04912 6.32248 5.11573C5.66604 5.15656 5.15571 5.66691 5.11488 6.32334C5.07438 6.97444 5.0288 7.91752 4.99928 9.17367Z" stroke="#DBB25A" stroke-width="1.5" stroke-linecap="round" stroke-linejoin="round"/>
<path d="M5.90625 13.875H7.78125" stroke="#DBB25A" stroke-width="1.5" stroke-linecap="round" stroke-linejoin="round"/>
<path d="M5.90625 18.0938H7.78125" stroke="#DBB25A" stroke-width="1.5" stroke-linecap="round" stroke-linejoin="round"/>
<path d="M11.0625 13.875H12.9375" stroke="#DBB25A" stroke-width="1.5" stroke-linecap="round" stroke-linejoin="round"/>
<path d="M11.0625 18.0938H12.9375" stroke="#DBB25A" stroke-width="1.5" stroke-linecap="round" stroke-linejoin="round"/>
<path d="M16.2188 13.875H18.0938" stroke="#DBB25A" stroke-width="1.5" stroke-linecap="round" stroke-linejoin="round"/>
<path d="M16.2188 18.0938H18.0938" stroke="#DBB25A" stroke-width="1.5" stroke-linecap="round" stroke-linejoin="round"/>
</svg>
