<svg width="24" height="24" viewBox="0 0 24 24" fill="none" xmlns="http://www.w3.org/2000/svg">
<path d="M2.40797 8.76656C2.51484 7.74937 3.23438 6.94828 4.24641 6.8025C5.65125 6.59859 8.08734 6.375 12 6.375C15.9127 6.375 18.3487 6.59906 19.7531 6.80203C20.7656 6.94875 21.4852 7.74984 21.592 8.76656C21.7144 9.93656 21.8438 11.6878 21.8438 13.875C21.8438 16.0622 21.7144 17.8134 21.592 18.9834C21.4852 20.0006 20.7656 20.8013 19.7536 20.9475C18.3487 21.1514 15.9127 21.375 12 21.375C8.08734 21.375 5.65125 21.1509 4.24688 20.948C3.23438 20.8013 2.51484 20.0002 2.40797 18.9834C2.28563 17.8134 2.15625 16.0622 2.15625 13.875C2.15625 11.6878 2.28563 9.93656 2.40797 8.76656Z" stroke="#DBB25A" stroke-width="1.5" stroke-linejoin="round"/>
<path d="M21.8438 13.4062C21.8438 13.4062 19.8108 13.8159 13.4062 13.8694M2.15625 13.4062C2.15625 13.4062 4.18922 13.8159 10.5938 13.8694" stroke="#DBB25A" stroke-width="1.5" stroke-linejoin="round"/>
<path d="M7.3125 6.375C7.56094 5.38125 8.12578 4.26 8.50406 3.57656C8.73375 3.16031 9.13125 2.86922 9.60094 2.79703C10.1386 2.71406 10.9584 2.625 12 2.625C13.0416 2.625 13.8609 2.71406 14.3991 2.79703C14.8687 2.86922 15.2662 3.16031 15.4959 3.57656C15.8742 4.26 16.4391 5.38125 16.6875 6.375" stroke="#DBB25A" stroke-width="1.5" stroke-linecap="round" stroke-linejoin="round"/>
<path d="M12.1158 15.9844C12.8222 15.9811 13.357 15.4992 13.388 14.7933C13.3992 14.5401 13.4062 14.2369 13.4062 13.875C13.4062 13.5131 13.3992 13.2094 13.388 12.9567C13.357 12.2508 12.8222 11.7684 12.1158 11.7661C12.0386 11.7658 11.9614 11.7658 11.8842 11.7661C11.1778 11.7684 10.643 12.2508 10.612 12.9567C10.6008 13.2098 10.5938 13.5131 10.5938 13.875C10.5938 14.2369 10.6008 14.5406 10.612 14.7933C10.643 15.4992 11.1778 15.9811 11.8842 15.9839C11.9614 15.9842 12.0386 15.9847 12.1158 15.9844Z" stroke="#DBB25A" stroke-width="1.5" stroke-linejoin="round"/>
</svg>
