<svg width="24" height="24" viewBox="0 0 24 24" fill="none" xmlns="http://www.w3.org/2000/svg">
<path d="M4.61612 3.77936C3.42105 3.86267 2.48879 4.75518 2.38389 5.94853C2.26899 7.25578 2.15625 9.24136 2.15625 12C2.15625 14.7586 2.26899 16.7442 2.38389 18.0515C2.48879 19.2448 3.42104 20.1373 4.61611 20.2207C6.12909 20.3261 8.54475 20.4375 12 20.4375C15.4553 20.4375 17.8709 20.3261 19.3839 20.2207C20.579 20.1373 21.5112 19.2448 21.6161 18.0515C21.731 16.7442 21.8438 14.7586 21.8438 12C21.8438 9.24136 21.731 7.25578 21.6161 5.94853C21.5112 4.75518 20.579 3.86267 19.3839 3.77936C17.8709 3.67388 15.4553 3.5625 12 3.5625C8.54475 3.5625 6.12909 3.67388 4.61612 3.77936Z" stroke="#DBB25A" stroke-width="1.5" stroke-linecap="round" stroke-linejoin="round"/>
<path d="M7.78125 17.1562H16.2188" stroke="#DBB25A" stroke-width="1.5" stroke-linecap="round" stroke-linejoin="round"/>
</svg>
