<svg width="24" height="24" viewBox="0 0 24 24" fill="none" xmlns="http://www.w3.org/2000/svg">
<path d="M11.0625 19.0284C8.10309 19.0106 5.98833 18.9101 4.61611 18.8144C3.42105 18.7311 2.48879 17.8386 2.38389 16.6452C2.26899 15.338 2.15625 13.3524 2.15625 10.5938C2.15625 7.83511 2.26899 5.84953 2.3839 4.5423C2.48879 3.34893 3.42105 2.45642 4.61612 2.37311C6.12909 2.26763 8.54475 2.15625 12 2.15625C15.4553 2.15625 17.8709 2.26763 19.3839 2.37311C20.579 2.45642 21.5112 3.34893 21.6161 4.5423C21.731 5.84953 21.8438 7.83511 21.8438 10.5938C21.8438 13.3524 21.731 15.338 21.6161 16.6452C21.5146 17.7997 20.6389 18.6725 19.5 18.8037" stroke="#DBB25A" stroke-width="1.5" stroke-linecap="round" stroke-linejoin="round"/>
<path d="M11.0625 13.875C11.0625 14.4643 11.3343 14.9901 11.7594 15.3338C11.7019 15.8775 11.8815 16.4415 12.2982 16.8581C12.6101 17.17 13.0045 17.3491 13.4113 17.3953C13.3971 18.4557 13.4091 19.8324 13.5001 21.3304C13.524 21.7243 13.996 21.9043 14.2808 21.6312L15.0379 20.9052C15.1739 20.7748 15.3886 20.7748 15.5246 20.9052L16.2817 21.6312C16.5665 21.9043 17.0385 21.7243 17.0624 21.3304C17.1534 19.8324 17.1654 18.4557 17.1512 17.3953C17.558 17.3491 17.9524 17.17 18.2644 16.8581C18.681 16.4414 18.8606 15.8775 18.8031 15.3338C19.2282 14.9901 19.5 14.4643 19.5 13.875C19.5 13.2857 19.2282 12.7599 18.8031 12.4162C18.8606 11.8725 18.681 11.3086 18.2644 10.8919C17.8477 10.4752 17.2837 10.2957 16.74 10.3532C16.3963 9.92808 15.8705 9.65625 15.2812 9.65625C14.692 9.65625 14.1662 9.92808 13.8225 10.3532C13.2788 10.2957 12.7148 10.4752 12.2982 10.8919C11.8815 11.3085 11.7019 11.8725 11.7594 12.4162C11.3343 12.7599 11.0625 13.2857 11.0625 13.875Z" stroke="#DBB25A" stroke-width="1.5" stroke-linecap="round" stroke-linejoin="round"/>
<path d="M13.875 13.8961C13.875 14.2691 14.0232 14.6268 14.2869 14.8905C14.5506 15.1542 14.9083 15.3024 15.2812 15.3024C15.6542 15.3024 16.0119 15.1542 16.2756 14.8905C16.5393 14.6268 16.6875 14.2691 16.6875 13.8961C16.6875 13.5232 16.5393 13.1655 16.2756 12.9017C16.0119 12.638 15.6542 12.4899 15.2812 12.4899C14.9083 12.4899 14.5506 12.638 14.2869 12.9017C14.0232 13.1655 13.875 13.5232 13.875 13.8961Z" stroke="#DBB25A" stroke-width="1.5" stroke-linecap="round" stroke-linejoin="round"/>
<path d="M6.375 6.375H16.2188" stroke="#DBB25A" stroke-width="1.5" stroke-linecap="round" stroke-linejoin="round"/>
<path d="M6.375 9.65625H9.1875" stroke="#DBB25A" stroke-width="1.5" stroke-linecap="round" stroke-linejoin="round"/>
</svg>
