<svg width="24" height="24" viewBox="0 0 24 24" fill="none" xmlns="http://www.w3.org/2000/svg">
<path d="M14.1609 2.38688C14.7604 2.43832 15.3215 2.70276 15.7428 3.13227C16.164 3.56179 16.4175 4.12798 16.4573 4.72828C16.5694 6.28453 16.6875 8.70609 16.6875 12C16.6875 16.0336 16.5989 18.9544 16.5356 20.5228C16.5209 20.8795 16.3684 21.2165 16.1101 21.4629C15.8518 21.7094 15.5079 21.8459 15.1509 21.8438H9.42188H3.6975C3.33942 21.8455 2.99464 21.7082 2.73581 21.4607C2.47699 21.2133 2.32433 20.875 2.31 20.5172C2.24672 18.9122 2.15625 15.9295 2.15625 12C2.15625 8.78531 2.27719 6.33656 2.39062 4.74984C2.42998 4.14442 2.6848 3.57309 3.10896 3.1393C3.53312 2.70551 4.09858 2.43793 4.70297 2.385C5.95219 2.26969 7.63547 2.15625 9.42188 2.15625C11.2177 2.15625 12.9094 2.27063 14.1609 2.38688Z" stroke="#DBB25A" stroke-width="1.5" stroke-linecap="round" stroke-linejoin="round"/>
<path d="M15.1514 21.8437H20.3404C20.6993 21.8453 21.0448 21.7077 21.3043 21.4598C21.5638 21.2118 21.717 20.8729 21.7317 20.5143C21.7814 19.2543 21.8442 17.2331 21.8442 15.0468C21.8442 13.3767 21.7711 11.871 21.6918 10.7334C21.6037 9.45839 20.6156 8.4562 19.3401 8.36761C18.439 8.30485 17.5363 8.26718 16.6331 8.25464" stroke="#DBB25A" stroke-width="1.5" stroke-linecap="round" stroke-linejoin="round"/>
<path d="M11.7265 21.8438L11.7293 21.7945C11.7495 21.2789 11.7659 20.5397 11.7659 19.5C11.7659 18.4603 11.7495 17.7211 11.7293 17.2055C11.7017 16.508 11.3121 15.9183 10.6207 15.8227C10.2233 15.7712 9.82284 15.7469 9.42212 15.75C9.0214 15.7469 8.62094 15.7712 8.22353 15.8227C7.53212 15.9183 7.14259 16.508 7.11494 17.2055C7.09478 17.7211 7.07837 18.4603 7.07837 19.5C7.07611 20.2815 7.08924 21.0629 7.11775 21.8438" stroke="#DBB25A" stroke-width="1.5" stroke-linecap="round" stroke-linejoin="round"/>
<path d="M6.84375 6.375V7.3125" stroke="#DBB25A" stroke-width="1.5" stroke-linecap="round" stroke-linejoin="round"/>
<path d="M6.84375 11.5312V12.4688" stroke="#DBB25A" stroke-width="1.5" stroke-linecap="round" stroke-linejoin="round"/>
<path d="M12 6.375V7.3125" stroke="#DBB25A" stroke-width="1.5" stroke-linecap="round" stroke-linejoin="round"/>
<path d="M12 11.5312V12.4688" stroke="#DBB25A" stroke-width="1.5" stroke-linecap="round" stroke-linejoin="round"/>
</svg>
