<svg width="24" height="24" viewBox="0 0 24 24" fill="none" xmlns="http://www.w3.org/2000/svg">
<path d="M20.9062 21.8437H3.09375V11.0615C3.09375 9.76684 4.14188 8.71872 5.43516 8.77684C9.58547 8.96434 15.1978 9.5995 19.0238 10.5909C20.1684 10.8876 20.9062 11.9503 20.9062 13.1329V21.8437Z" stroke="#DBB25A" stroke-width="1.5" stroke-linecap="round" stroke-linejoin="round"/>
<path d="M3.09375 16.2188H20.9062" stroke="#DBB25A" stroke-width="1.5" stroke-linecap="round" stroke-linejoin="round"/>
<path d="M2.15625 21.8438H21.8438" stroke="#DBB25A" stroke-width="1.5" stroke-linecap="round" stroke-linejoin="round"/>
<path d="M8.95312 16.2188V21.8438" stroke="#DBB25A" stroke-width="1.5" stroke-linecap="round" stroke-linejoin="round"/>
<path d="M15.0469 16.2188V21.8438" stroke="#DBB25A" stroke-width="1.5" stroke-linecap="round" stroke-linejoin="round"/>
<path d="M16.6875 6.84375V9.89062" stroke="#DBB25A" stroke-width="1.5" stroke-linecap="round" stroke-linejoin="round"/>
<path d="M13.4381 5.50313C13.4831 6.18844 13.9791 6.7125 14.6634 6.77063C15.1416 6.81141 15.8006 6.84375 16.6875 6.84375C17.5744 6.84375 18.2334 6.81141 18.7116 6.77063C19.3959 6.7125 19.8919 6.18844 19.9369 5.50313C19.9556 5.21578 19.9688 4.87875 19.9688 4.5C19.9688 4.12125 19.9556 3.78422 19.9369 3.49688C19.8919 2.81156 19.3959 2.2875 18.7116 2.22938C18.2334 2.18859 17.5744 2.15625 16.6875 2.15625C15.8006 2.15625 15.1416 2.18859 14.6634 2.22938C13.9791 2.2875 13.4831 2.81156 13.4381 3.49688C13.4166 3.83082 13.406 4.16537 13.4063 4.5C13.4063 4.87875 13.4194 5.21578 13.4381 5.50313Z" stroke="#DBB25A" stroke-width="1.5" stroke-linecap="round" stroke-linejoin="round"/>
</svg>
