<svg width="24" height="24" viewBox="0 0 24 24" fill="none" xmlns="http://www.w3.org/2000/svg">
<path d="M13.3194 2.69993C16.7107 4.20524 19.2814 6.18242 20.6104 7.32509C21.282 7.90259 21.6565 8.73374 21.7029 9.61827C21.7666 10.833 21.8438 12.7337 21.8438 14.8125C21.8438 16.4117 21.7981 17.9561 21.748 19.1686C21.69 20.5754 20.5714 21.685 19.1642 21.733C17.5422 21.7884 15.1354 21.8438 12 21.8438C8.86462 21.8438 6.45783 21.7884 4.83578 21.733C3.42865 21.685 2.31011 20.5754 2.25201 19.1687C2.20193 17.9561 2.15625 16.4117 2.15625 14.8125C2.15625 12.7337 2.23344 10.8329 2.29715 9.61822C2.34354 8.73369 2.71801 7.9026 3.38963 7.32514C4.71859 6.18247 7.28934 4.20525 10.6806 2.69993C11.5203 2.32724 12.4798 2.32724 13.3194 2.69993Z" stroke="#DBB25A" stroke-width="1.5" stroke-linecap="round" stroke-linejoin="round"/>
<path d="M8.25 18.5625H15.75" stroke="#DBB25A" stroke-width="1.5" stroke-linecap="round" stroke-linejoin="round"/>
</svg>
